SplineFontDB: 3.0
FontName: BowlbyOneSC-Regular
FullName: Bowlby One SC
FamilyName: Bowlby One SC
Weight: Normal
Copyright: Copyright (c) 2011 by vernon adams.
Version: 1.2
FONDName: Bowlby One SC
ItalicAngle: 0
UnderlinePosition: -204
UnderlineWidth: 102
Ascent: 1638
Descent: 410
UFOAscent: 2248
UFODescent: -876
LayerCount: 2
Layer: 0 0 "Back"  1
Layer: 1 0 "Fore"  0
NeedsXUIDChange: 1
FSType: 0
OS2Version: 0
OS2_WeightWidthSlopeOnly: 0
OS2_UseTypoMetrics: 0
CreationTime: 1329862791
ModificationTime: 1329912564
PfmFamily: 17
TTFWeight: 400
TTFWidth: 1
LineGap: 0
VLineGap: 0
Panose: 2 0 5 5 6 0 0 2 0 4
OS2TypoAscent: 2248
OS2TypoAOffset: 0
OS2TypoDescent: -876
OS2TypoDOffset: 0
OS2TypoLinegap: 0
OS2WinAscent: 2248
OS2WinAOffset: 0
OS2WinDescent: 876
OS2WinDOffset: 0
HheadAscent: 2248
HheadAOffset: 0
HheadDescent: -876
HheadDOffset: 0
OS2SubXSize: 1332
OS2SubYSize: 1228
OS2SubXOff: 0
OS2SubYOff: 154
OS2SupXSize: 1332
OS2SupYSize: 1228
OS2SupXOff: 0
OS2SupYOff: 716
OS2StrikeYSize: 102
OS2StrikeYPos: 512
OS2Vendor: 'newt'
OS2CodePages: 00000001.00000000
OS2UnicodeRanges: 800000ef.4000a04b.00000000.00000000
Lookup: 258 0 0 "'kern' Horizontal Kerning lookup 0"  {"'kern' Horizontal Kerning lookup 0 subtable"  } ['kern' ('DFLT' <'dflt' > 'latn' <'dflt' > ) ]
MarkAttachClasses: 1
DEI: 91125
LangName: 1033 "" "" "" "Bowlby One SC Regular : 1-7-2011" "" "Version 1.2" "" "" "" "" "" "" "" "This Font Software is licensed under the SIL Open Font License, Version 1.1. This license is available with a FAQ at: http://scripts.sil.org/OFL" "http://scripts.sil.org/OFL" 
PickledData: "(dp1
S'com.typemytype.robofont.compileSettings.autohint'
p2
I01
sS'com.typemytype.robofont.compileSettings.decompose'
p3
I01
sS'public.glyphOrder'
p4
(S'A'
S'Agrave'
p5
S'Aacute'
p6
S'Acircumflex'
p7
S'Atilde'
p8
S'Adieresis'
p9
S'Aring'
p10
S'uni0200'
p11
S'uni0202'
p12
S'B'
S'C'
S'Ccedilla'
p13
S'D'
S'E'
S'Egrave'
p14
S'Eacute'
p15
S'Ecircumflex'
p16
S'Edieresis'
p17
S'uni0204'
p18
S'uni0206'
p19
S'F'

StartChar: A
Encoding: 65 65 1
Width: 1638
VWidth: 0
Flags: HW
LayerCount: 2
Fore
SplineSet
-48 0 m 1
 89.1002722142 508.077479382 266.504192525 991.600027839 428 1484 c 1
 434 1494 438 1502 444 1508 c 1
 612 1508 l 2
 730 1508 842 1512 960 1512 c 2
 1128 1512 l 2
 1168 1512 1219.8790932 1510.38287154 1219.8790932 1472.38287154 c 1
 1681.31989924 11.1536523929 l 1
 1681.31989924 -14.8463476071 1666 -24 1612 -24 c 2
 1520 -24 l 2
 1440 -24 1362 -26 1282 -26 c 0
 1212 -26 1062 -42 1044 8 c 1
 1044 74 l 1
 1032 134 996 208 956 208 c 2
 612 208 l 1
 560 -4 l 1
 550 -26 502 -28 448 -28 c 2
 368 -28 l 2
 282 -28 198 -34 112 -34 c 2
 84 -34 l 2
 50 -34 18 -36 -20 -36 c 1
 -30 -26 -38 -14 -48 0 c 1
646.460556548 607.435282104 m 1
 674 560 l 1
 740 560 l 2
 822 560 953.091106347 568.244362359 953.091106347 600.244362359 c 1
 824.22772712 1175.63433472 l 1
 800.22772712 1175.63433472 752 1070 726 954 c 2
 646.460556548 607.435282104 l 1
EndSplineSet
EndChar

StartChar: AE
Encoding: 257 198 2
Width: 2382
VWidth: 0
Flags: HW
LayerCount: 2
Fore
SplineSet
1956 -12 m 0
 1801.84693999 -12 1699.41460812 -24 1554 -24 c 2
 1156 -24 l 2
 1116 -24 1058 -32 1044 8 c 1
 1044 74 l 1
 1032 134 996 208 956 208 c 2
 612 208 l 1
 560 -4 l 1
 546 -26 498 -28 448 -28 c 2
 368 -28 l 2
 282 -28 198 -34 112 -34 c 2
 84 -34 l 2
 50 -34 18 -36 -20 -36 c 1
 -30 -26 -38 -14 -48 0 c 1
 -14 126 24 250 64 374 c 0
 182.894564817 736.575023194 266.630230263 1169.26046053 436 1508 c 1
 612 1508 l 2
 730 1508 842 1512 960 1512 c 2
 1128 1512 l 2
 1142 1512 1156 1510 1168 1508 c 1
 1392 1514 1608 1516 1838 1516 c 1
 1856 1514 1866 1506 1870 1492 c 0
 1905.42027898 1364.75361231 1941.92616353 1238.5928302 1976 1110 c 1
 1976 1092 1950 1084 1926 1084 c 2
 1900 1084 l 2
 1740 1084 1584 1086 1424 1092 c 1
 1434 1038 1440 988 1454 934 c 1
 1926 934 l 2
 1968 934 1982 922 1988 900 c 1
 1988 868 l 1
 2012 772 2058 680 2082 584 c 1
 2082 574 l 2
 2082 566 2078 564 2072 564 c 0
 2070 564 2066 566 2060 568 c 1
 1906 560 1756 552 1596 552 c 2
 1570 552 l 1
 1612 408 l 1
 1786 408 1946 424 2116 424 c 0
 2144 424 2188 420 2200 396 c 1
 2313.11926606 18.9357798165 l 1
 2313.11926606 0.935779816514 2306 -14 2282 -14 c 0
 2176 -14 2066 -12 1956 -12 c 0
646.460556548 607.435282104 m 1
 674 560 l 1
 740 560 l 2
 822 560 953.091106347 568.244362359 953.091106347 600.244362359 c 1
 824.22772712 1175.63433472 l 1
 800.22772712 1175.63433472 752 1070 726 954 c 2
 646.460556548 607.435282104 l 1
EndSplineSet
EndChar

StartChar: B
Encoding: 66 66 9
Width: 1570
VWidth: 0
Flags: HW
LayerCount: 2
Fore
SplineSet
92 136 m 1
 91.6638303646 1481.5388134 l 1
 956 1512 l 1
 1202 1512 1484 1436 1484 1112 c 0
 1484 936 1400 846 1264 772 c 1
 1434 724 1528 606 1528 424 c 0
 1528 78 1188 -28 928 -28 c 0
 832 -28 736 -24 638 -24 c 0
 468 -24 302 -26 128 -32 c 1
 102 10 94 64 92 136 c 1
666 1148 m 0
 666 1058 672 970 672 880 c 0
 672 866 680 860 696 858 c 1
 788 874 932 860 932 1032 c 0
 932 1160 818 1184 722 1184 c 1
 684 1178 666 1178 666 1148 c 0
684 386 m 2
 684 352 688 312 692 312 c 2
 724 312 l 2
 836 312 954 326 954 480 c 0
 954 636 802 628 704 634 c 1
 704 596 l 1
 698 538 684 484 684 422 c 2
 684 386 l 2
EndSplineSet
EndChar

StartChar: C
Encoding: 67 67 10
Width: 1556
VWidth: 0
Flags: HW
LayerCount: 2
Fore
SplineSet
1528 536 m 1
 1481.58335578 127.533530871 1183.2233168 -64 800 -64 c 0
 146 -64 40 442 40 796 c 2
 40 884 l 1
 74 1392 536 1538 848 1538 c 0
 1288 1538 1480 1318 1512 1028 c 1
 1512 932 l 2
 1512 904 1406 900 1292 900 c 0
 1196 900 1092 904 1026 904 c 0
 1016 904 1006 902 996 902 c 0
 900 902 976 1112 844 1112 c 0
 670 1112 694 884 686 728 c 1
 686 702 682 670 682 632 c 0
 682 526 702 382 814 376 c 1
 918 376 906 534 948 576 c 1
 1492 576 l 1
 1514 574 1526 560 1528 536 c 1
EndSplineSet
EndChar

StartChar: D
Encoding: 68 68 13
Width: 1648
VWidth: 0
Flags: HW
LayerCount: 2
Fore
SplineSet
106 1468 m 2
 106 1522.19307788 342.560595531 1512 400 1512 c 2
 512 1512 l 2
 576 1512 634 1516 692 1516 c 0
 922 1516 1204 1488 1374 1352 c 1
 1410 1320 l 2
 1454 1280 1612 1094 1612 760 c 0
 1612 262 1258 -28 872 -28 c 2
 840 -28 l 2
 754 -28 670 -24 584 -24 c 0
 430 -24 282 -26 130 -32 c 1
 110 8 106 22 106 56 c 2
 106 1468 l 2
694 320 m 1
 978.979354624 320 1018 543.3134558 1018 758 c 2
 1018 820 l 2
 1018 1054.66402413 941.576850958 1176.81208997 690 1184 c 1
 680 1162 668 1146 658 1124 c 1
 658 1076 l 2
 658 978.802742173 634.9599219 329.840013017 694 320 c 1
EndSplineSet
EndChar

StartChar: E
Encoding: 69 69 14
Width: 1306
VWidth: 0
Flags: HW
LayerCount: 2
Fore
SplineSet
92 36 m 2
 92 74 l 2
 92 416 100 742 100 1084 c 2
 100 1498 l 1
 1264 1498 l 1
 1264 1170 l 2
 1264 1130 1272 1080 1204 1080 c 2
 1176 1080 l 2
 1016 1080 864 1082 704 1088 c 1
 698 1034 688 984 688 930 c 1
 1164 930 l 2
 1206 930 1214 918 1214 896 c 0
 1214 886 1212 874 1212 864 c 0
 1212 768 1218 676 1218 580 c 1
 1216 566 1210 560 1202 560 c 0
 1198 560 1194 562 1192 564 c 1
 1034 556 884 548 724 548 c 2
 698 548 l 1
 698 404 l 1
 874 404 1038 420 1208 420 c 0
 1240 420 1276 414 1284 392 c 1
 1284 316 l 2
 1284 220 1288 128 1288 32 c 0
 1288 8 1280 -18 1248 -18 c 0
 1142 -18 1034 -16 924 -16 c 0
 654 -16 390 -30 124 -32 c 1
 96 0 l 1
 94 14 92 26 92 36 c 2
EndSplineSet
EndChar

StartChar: Eth
Encoding: 261 208 19
Width: 1644
VWidth: 0
Flags: HW
LayerCount: 2
Fore
SplineSet
100 1472 m 2
 100 1519.93591402 343.014549796 1512 396 1512 c 2
 508 1512 l 2
 572 1512 628 1516 690 1516 c 0
 910 1516 1184 1492 1372 1352 c 1
 1408 1320 l 2
 1450 1282 1610 1088 1610 760 c 0
 1610 260 1256 -28 868 -28 c 2
 838 -28 l 2
 752 -28 668 -24 580 -24 c 0
 502 -24 426 -24 352 -26 c 1
 128 -26 l 1
 84 56 100 168 100 258 c 0
 100 354 104 448 104 544 c 2
 104 618 l 1
 82 616 62 616 42 616 c 2
 -20 616 l 1
 -20 628 l 1
 -28 630 -54 634 -60 640 c 1
 -60 810 l 2
 -60 842 -50 876 -24 876 c 2
 100 876 l 1
 100 1472 l 2
692 320 m 1
 975.450473653 320 1016 545.341711729 1016 758 c 2
 1016 820 l 2
 1016 988 980 1184 744 1184 c 2
 688 1184 l 1
 678 1162 666 1146 656 1124 c 1
 656 876 l 1
 792 876 l 2
 820 876 824 804 824 750 c 2
 824 678 l 2
 824 656 820 630 792 630 c 0
 750 630 708 628 662 628 c 1
 664 532 668 436 668 340 c 1
 670 328 678 322 692 320 c 1
EndSplineSet
EndChar

StartChar: Euro
Encoding: 262 8364 20
Width: 1444
VWidth: 0
Flags: HW
PickledData: "(dp1
S'com.typemytype.robofont.layerData'
p2
(dp3
s."
LayerCount: 2
Fore
SplineSet
1460 380 m 1
 1427.55796346 49.0912273053 1090.47147783 -52.0873441243 812 -68 c 1
 732 -68 620 -48 560 -26 c 1
 532 -26 l 1
 518 -20 510 -10 500 -4 c 2
 440 32 l 1
 270 116 198 296 150 456 c 1
 18 456 l 1
 2 462 -4 468 -4 486 c 1
 12 540 44 682 72 692 c 1
 120 692 l 1
 120 714 122 734 122 756 c 1
 68 756 l 2
 32 756 0 760 0 784 c 1
 60.0787369284 995.388148452 l 1
 156 992 l 1
 198 1162 280 1316 446 1412 c 1
 508 1444 l 1
 542.848258044 1455.15174196 576.220450885 1467.77954912 610 1480 c 1
 678 1496 790 1500 844 1500 c 0
 1107 1500 1400 1400 1438 1186 c 1
 1438 1126 l 1
 1436 1112 1438 1106 1428 1104 c 1
 968 1104 l 1
 968 1182 920 1266 822 1266 c 0
 704 1266 690 996 690 996 c 1
 1040 996 l 1
 1062 994 1068 982 1068 960 c 1
 1040 868 l 1
 1016 772 l 1
 1010 762 1002 756 992 756 c 2
 896 756 l 1
 866 754 836 750 804 750 c 0
 766 750 726 752 688 752 c 1
 688 696 l 1
 726 698 766 700 804 700 c 0
 826 700 846 698 870 698 c 0
 896 698 926 700 952 700 c 1
 974 698 986.969495446 687.022697701 986.969495446 669.022697701 c 1
 932 502 l 1
 866 506 768 502 704 502 c 1
 714 436 732 192 860 192 c 0
 980 192 1008 314 1008 388 c 1
 1424 414 l 1
 1446 412 1454 404 1460 380 c 1
EndSplineSet
EndChar

StartChar: F
Encoding: 70 70 21
Width: 1264
VWidth: 0
Flags: HW
LayerCount: 2
Fore
SplineSet
100 140 m 2
 100 1476 l 2
 100 1504 186 1510 256 1510 c 0
 288 1510 322 1508 348 1508 c 0
 506 1508 660 1514 820 1514 c 0
 932 1514 1034 1510 1152 1510 c 0
 1168 1510 1184 1512 1200 1512 c 0
 1246 1512 1264 1500 1264 1446 c 2
 1264 1096 l 1
 1136 1086 990 1088 862 1086 c 1
 724 1086 l 1
 724 1048 722 1014 722 976 c 2
 722 962 l 1
 724 958 724 954 724 948 c 1
 866 958 958 964 1108 964 c 0
 1162 964 1228 956 1228 936 c 2
 1228 602 l 2
 1228 540 1202 528 1158 528 c 0
 1140 528 1118 532 1096 532 c 1
 974 524 850 518 726 516 c 1
 726 394 732 270 732 148 c 2
 732 24 l 2
 732 -14 728 -22 696 -28 c 1
 504 -28 320 -32 128 -32 c 1
 94 16 100 78 100 140 c 2
EndSplineSet
EndChar

StartChar: G
Encoding: 71 71 22
Width: 1680
VWidth: 0
Flags: HW
LayerCount: 2
Fore
SplineSet
42 748 m 0
 42 1412 576 1540 916 1540 c 0
 1118 1540 1480 1496 1556 1184 c 1
 1566 1126 1570 1074 1576 1020 c 1
 1572 992 1534 990 1512 990 c 0
 1342 990 1182 998 1016 998 c 1
 962 1016 1018 1128 882 1128 c 0
 680 1128 678 888 678 740 c 0
 678 716 680 698 680 682 c 2
 680 652 l 2
 680 536 686 364 894 364 c 0
 964 364 1018 368 1076 386 c 1
 1076 508 l 1
 1032 508 l 1
 1032 506 l 1
 960 506 l 2
 942 506 922 504 898 504 c 1
 862 544 l 1
 862 820 l 2
 862 842 872 854 898 876 c 1
 970 876 l 2
 1114 876 1196 872 1316 872 c 2
 1396 872 l 2
 1480 872 1584 872 1612 836 c 1
 1612 580 1600 322 1600 90 c 0
 1600 84 1602 78 1602 70 c 2
 1602 48 l 1
 1552 -10 1206 -52 1064 -52 c 2
 1038 -52 l 2
 982 -52 928 -60 872 -60 c 0
 324 -60 42 256 42 748 c 0
EndSplineSet
EndChar

StartChar: H
Encoding: 72 72 23
Width: 1654
VWidth: 0
Flags: HW
LayerCount: 2
Fore
SplineSet
360 -26 m 2
 173.118068519 -26 90 -71.8056520881 90 138 c 0
 90 556 106 912 106 1276 c 0
 106 1336 106 1492 128 1504 c 1
 500 1504 l 2
 698 1504 728 1476 728 1388 c 0
 728 1356 724 1316 724 1266 c 2
 724 1220 l 2
 724 1156 718 1092 718 1028 c 2
 718 1008 l 1
 720 1002 720 998 720 992 c 1
 760 992 l 2
 794 992 830 990 864 990 c 0
 886 990 910 990 932 996 c 1
 932 1412 l 2
 932 1512 942 1516 984 1516 c 0
 1010 1516 1042 1514 1068 1514 c 0
 1088 1514 1178 1520 1276 1520 c 0
 1408 1520 1548 1510 1548 1460 c 0
 1548 1428 1550 1400 1550 1368 c 0
 1550 1298 1548 1234 1548 1164 c 0
 1548 956 1554 752 1554 544 c 0
 1554 528 1552 514 1552 504 c 2
 1552 456 l 2
 1552 424 1552 392 1554 360 c 1
 1554 338 l 1
 1552 334 1552 330 1552 326 c 0
 1552 220 1556 110 1556 4 c 1
 1550 -28 1458 -32 1364 -32 c 2
 948 -32 l 1
 918 10 l 1
 918 76 l 2
 918 210 920 338 920 472 c 0
 920 502 916 512 892 512 c 2
 856 512 l 2
 814 512 774 510 732 504 c 1
 732 338 728 172 728 4 c 1
 718 -22 602 -26 478 -26 c 2
 360 -26 l 2
EndSplineSet
EndChar

StartChar: I
Encoding: 73 73 24
Width: 842
VWidth: 0
Flags: HW
LayerCount: 2
Fore
SplineSet
82 -26 m 1
 84 112 86 262 96 400 c 1
 96 680 100 964 108 1252 c 1
 106 1294 104 1336 104 1376 c 2
 104 1406 l 1
 102 1428 100 1454 100 1478 c 0
 100 1492 106 1502 118 1512 c 1
 282 1500 442 1500 618 1500 c 0
 650 1500 698 1500 728 1504 c 1
 728 -26 l 1
 82 -26 l 1
EndSplineSet
EndChar

StartChar: J
Encoding: 74 74 29
Width: 1382
VWidth: 0
Flags: HW
LayerCount: 2
Fore
SplineSet
624 -56 m 0
 274.700347014 -56 -24 52.6268220769 -24 470 c 0
 -24 500 -18 524 8 524 c 2
 464 524 l 2
 576 524 490 376 588 376 c 0
 658 376 660 466 660 528 c 2
 660 536 l 1
 660 536 l 1
 658 728 650 930 650 1136 c 2
 650 1476 l 2
 650 1496.92364584 667.539062236 1506.94238278 692 1510 c 1
 756 1510 820 1508 884 1508 c 0
 980 1508 1072 1510 1168 1510 c 2
 1262 1510 l 2
 1276 1510 1288 1500 1294 1482 c 1
 1290 1450 1294 1416 1292 1384 c 1
 1292 1334 l 1
 1286 1150 1282 976 1282 786 c 2
 1282 472 l 2
 1282 46 864 -56 624 -56 c 0
EndSplineSet
EndChar

StartChar: K
Encoding: 75 75 30
Width: 1646
VWidth: 0
Flags: HW
LayerCount: 2
Fore
SplineSet
160 -32 m 2
 114.874321773 -32 112.119640712 -21.2691916028 100 6 c 1
 100 1428 l 2
 100 1486 100 1516 162 1516 c 2
 572 1516 l 2
 634 1516 716 1508 716 1480 c 2
 716 1478 l 1
 714 1292 712 1110 712 924 c 1
 993.009102731 1509.43563069 l 1
 1200 1508 l 2
 1288 1508 1624 1510 1624 1488 c 0
 1624 1486 1622 1484 1620 1484 c 1
 1490.67327889 1249.99338778 1359.3300837 1018.00324963 1226 788 c 1
 1226 760 l 1
 1266.76348255 733.608741628 l 1
 1685.11084225 14.975240309 l 1
 1685.11084225 4.97524030904 1674 -10 1662 -20 c 1
 1020 -20 l 1
 734 538 l 1
 724 442 726 342 720 240 c 1
 720 4 l 1
 714 -26 662 -32 600 -32 c 2
 160 -32 l 2
EndSplineSet
EndChar

StartChar: L
Encoding: 76 76 31
Width: 1264
VWidth: 0
Flags: HW
LayerCount: 2
Fore
SplineSet
102 1336 m 0
 102 1422 108 1502 136 1518 c 1
 146 1516 154 1516 164 1516 c 2
 196 1516 l 2
 260 1516 334 1520 406 1520 c 0
 566 1520 717.530784834 1512.00524263 733.530784834 1466.00524263 c 1
 722 434 l 1
 744 434 l 1
 868 444 936 430 1138 430 c 0
 1212 430 1266 426 1266 392 c 2
 1266 8 l 1
 1256 -20 1042 -28 820 -28 c 2
 128 -28 l 1
 106 4 104 42 104 84 c 2
 104 368 l 2
 104 618 108 858 108 1108 c 0
 108 1162 102 1250 102 1336 c 0
EndSplineSet
EndChar

StartChar: Lslash
Encoding: 263 321 32
Width: 1264
VWidth: 0
Flags: HW
LayerCount: 2
Fore
SplineSet
-78 796 m 0
 -78 812 -74 822 -64 826 c 2
 20 856 l 2
 46 866 74 874 104 884 c 1
 104 928 l 2
 104 986 106 1046 106 1108 c 0
 106 1162 100 1250 100 1336 c 0
 100 1420 108 1504 136 1518 c 1
 146 1516 154 1516 164 1516 c 2
 196 1516 l 2
 262 1516 328 1520 404 1520 c 0
 562 1520 722 1512 732 1466 c 1
 732 1348 730.575342466 1224.46575342 730.575342466 1106.46575342 c 1
 913.369863014 1175.01369863 l 1
 943.369863014 1175.01369863 964 1086 978 1052 c 2
 1024.31635389 932.90080429 l 1
 1024.31635389 922.90080429 1018 904 998 900 c 1
 717.451995784 799.083451721 l 1
 720 434 l 1
 742 434 l 1
 870 444 934 430 1136 430 c 0
 1212 430 1264 426 1264 392 c 2
 1264 8 l 1
 1254 -20 1036 -28 820 -28 c 2
 128 -28 l 1
 106 4 104 42 104 84 c 2
 104 572 l 1
 38 548 l 1
 22 554 8 556 -6 562 c 1
 -36 648 l 1
 -48 694 -78 756 -78 796 c 0
EndSplineSet
EndChar

StartChar: M
Encoding: 77 77 33
Width: 2192
VWidth: 0
Flags: HW
LayerCount: 2
Fore
SplineSet
2108 374 m 1
 2108 267.362653906 2145.92115276 -28 2044 -28 c 2
 1588 -28 l 1
 1546 4 1540 130 1540 248 c 0
 1540 410 1542 516 1542 632 c 2
 1542 702 l 2
 1542 728 1538 752 1540 776 c 1
 1470 520 1424 256 1362 0 c 1
 1354 -22 1310 -28 1270 -28 c 2
 916 -28 l 2
 884 -28 850 -24 840 6 c 1
 744 424 l 1
 715.811717113 567.811717113 680.278156491 704.278156491 648 844 c 1
 642 684 636 524 636 356 c 2
 636 180 l 2
 636 122 636 62 638 2 c 1
 634 -12 626 -20 616 -20 c 2
 522 -20 l 2
 404 -20 294 -22 176 -22 c 0
 150 -22 122 -20 122 -4 c 2
 122 1480 l 2
 122 1522 210 1514 246 1514 c 2
 364 1514 l 2
 860 1514 746 1498 944 1498 c 1
 968 1364 994 1232 1020 1100 c 2
 1096 702 l 1
 1255.5966412 1510.4485595 l 1
 1257.5966412 1510.4485595 1270 1506 1276 1506 c 0
 1490 1506 1694 1512 1908 1512 c 2
 2056 1512 l 1
 2074 1510 2084 1498 2084 1456 c 0
 2092 1106 2102 740 2108 374 c 1
EndSplineSet
EndChar

StartChar: N
Encoding: 78 78 34
Width: 1726
VWidth: 0
Flags: HW
LayerCount: 2
Fore
SplineSet
80 -4 m 1
 80 448 l 1
 78 766 88 1076 96 1394 c 1
 96 1476 l 2
 96 1486 100 1500 104 1502 c 1
 792 1502 l 2
 814 1502 914 1198 968 1066 c 1
 1108 700 l 1
 1108 1088 l 2
 1108 1216 1114 1346 1112 1480 c 0
 1112 1504 1186 1508 1272 1508 c 0
 1362 1508 1466 1504 1516 1504 c 2
 1592 1504 l 2
 1602 1504 1608 1500 1608 1498 c 0
 1614 1220 1614 966 1614 702 c 2
 1614 8 l 1
 1608 -14 1580 -18 1550 -18 c 2
 1524 -18 l 2
 1420 -18 1322 -22 1218 -22 c 2
 924 -22 l 1
 912 -18 890 38 866 104 c 0
 785.955027943 323.955027943 703.26119142 541.26119142 622 760 c 1
 622 642 620 526 620 408 c 0
 620 320 624 232 624 144 c 2
 624 18 l 2
 624 -4 614 -28 584 -28 c 2
 124 -28 l 1
 80 -4 l 1
1608 1496 m 2
 1608 1497.33333333 1608 1498.66666667 1608 1500 c 2
 1608 1496 l 2
EndSplineSet
EndChar

StartChar: O
Encoding: 79 79 37
Width: 1644
VWidth: 0
Flags: HW
LayerCount: 2
Fore
SplineSet
24 752 m 2
 24 862 l 1
 58 1342 452 1550 844 1550 c 0
 1002 1550 1272 1502 1408 1324 c 1
 1542 1160 1596 988 1596 776 c 1
 1598 566 1552 374 1448 232 c 2
 1404 172 l 2
 1280 2 1006 -56 804 -56 c 0
 184 -56 24 386 24 752 c 2
820 1148 m 0
 621.212897593 1148 620 834.518026684 620 672 c 0
 620 536 646 340 794 332 c 1
 1004 332 1012 572 1012 788 c 0
 1012 934 994 1148 820 1148 c 0
EndSplineSet
EndChar

StartChar: OE
Encoding: 265 338 38
Width: 1992
VWidth: 0
Flags: HW
LayerCount: 2
Fore
SplineSet
824 -8 m 2
 339.578787736 -8 32 269.422049443 32 716 c 0
 32 942 104 1284 332 1388 c 1
 428 1444 l 1
 568 1492 726 1494 864 1494 c 2
 1960 1494 l 1
 1960 1094 l 1
 1928 1056 l 1
 1790 1062 1646 1060 1508 1062 c 1
 1508 960 l 1
 1598 960 l 2
 1692 960 1790 966 1842 966 c 0
 1902 966 1910 956 1910 892 c 0
 1910 780 1908 658 1908 552 c 1
 1906 536 1896 526 1880 522 c 1
 1752 522 1628 524 1500 526 c 1
 1500 408 l 1
 1932 408 l 1
 1946 406 1954 398 1958 384 c 1
 1958 -8 l 1
 824 -8 l 2
606 740 m 1
 622 648 560 310 812 310 c 0
 860 310 894 320 932 338 c 1
 932 368 l 1
 924 556 938 732 934 926 c 1
 934 1124 l 2
 934 1134 864 1146 836 1156 c 1
 808 1156 l 2
 616 1156 606 884 606 740 c 1
862 380 m 1
 864 380 860 384 862 384 c 1
 862 380 l 1
EndSplineSet
EndChar

StartChar: Omega
Encoding: 266 937 43
Width: 1850
VWidth: 0
Flags: HW
LayerCount: 2
Fore
SplineSet
1300 -28 m 0
 1246.37176956 -28 968 -38.0741610107 968 4 c 2
 968 264 l 1
 1150 392 1248 526 1248 762 c 0
 1248 946 1160 1162 936 1162 c 0
 734 1162 600 1006 600 776 c 0
 600 602 668 434 810 320 c 1
 844 320 l 1
 868 306 886 270 888 258 c 1
 888 -16 l 1
 84 -16 l 1
 58 -10 52 10 52 48 c 0
 52 144 56 232 56 328 c 0
 56 350 66 362 84 368 c 1
 320 368 l 1
 164 508 84 652 84 844 c 0
 84 1269.24476997 471.88909533 1548 910 1548 c 0
 1319.26941099 1548 1756 1310.96330101 1756 874 c 0
 1756 676 1662 496 1480 352 c 1
 1568 352 1654 354 1744 354 c 0
 1774 354 1780 330 1780 306 c 0
 1780 288 1776 274 1776 264 c 0
 1776 240 1778 194 1778 146 c 0
 1778 70 1774 -12 1766 -12 c 0
 1760 -12 1756 -10 1752 -6 c 1
 1602 -22 1454 -28 1300 -28 c 0
EndSplineSet
EndChar

StartChar: Oslash
Encoding: 267 216 44
Width: 1644
VWidth: 0
Flags: HW
LayerCount: 2
Fore
SplineSet
288 -180 m 1
 288 -178 288 -176 288 -174 c 1
 272 -174 225.154639175 -154.597938144 209.154639175 -146.597938144 c 1
 341.808088818 62.8548770817 l 1
 89.8080888184 226.854877082 24 502 24 752 c 2
 24 862 l 1
 58 1342 452 1550 844 1550 c 0
 960 1550 1106 1524 1240 1460 c 1
 1352.40773286 1632.93497364 l 1
 1360.40773286 1632.93497364 1426 1602 1426 1586 c 0
 1426 1570 1390 1508 1358 1458 c 2
 1324 1406 l 1
 1524 1258 1596 1008 1596 776 c 1
 1598 566 1552 374 1448 232 c 2
 1404 172 l 2
 1280 2 1006 -56 804 -56 c 0
 670 -56 552 -40 438 8 c 1
 382 -80 l 2
 348 -134 314 -182 288 -180 c 1
820 1148 m 0
 621.212897593 1148 620 834.518026684 620 672 c 0
 620 622 624 570 632 516 c 1
 972 1044 l 1
 944 1104 892 1148 820 1148 c 0
684 392 m 1
 708 356 748 332 794 332 c 0
 1004 332 1012 572 1012 788 c 2
 1012 846 l 2
 1012 866 1010 886 1008 906 c 1
 684 392 l 1
EndSplineSet
EndChar

StartChar: P
Encoding: 80 80 46
Width: 1526
VWidth: 0
Flags: HW
LayerCount: 2
Fore
SplineSet
104 136 m 2
 104 1468 l 2
 104 1494 170 1490 212 1492 c 1
 1024 1492 l 2
 1288 1492 1520 1326 1520 1000 c 0
 1520 578 1172 492 932 476 c 1
 740 476 l 1
 734 358 732 242 732 124 c 2
 732 12 l 1
 730 -10 722 -24 698 -24 c 2
 130 -24 l 1
 108 34 104 78 104 136 c 2
668 836 m 1
 700 792 l 1
 830 792 972 840 972 1000 c 0
 972 1168 820 1172 702 1172 c 1
 672 1158 668 926 668 836 c 1
EndSplineSet
EndChar

StartChar: Q
Encoding: 81 81 47
Width: 1642
VWidth: 0
Flags: HW
LayerCount: 2
Fore
SplineSet
40 748 m 0
 40 1332 448 1550 856 1550 c 0
 1330 1550 1604 1216 1604 788 c 0
 1604 648 1562 498 1486 396 c 1
 1512 396 1538 398 1564 398 c 0
 1638 398 1648 364 1648 336 c 2
 1648 -4 l 1
 1646 -26 1634 -36 1608 -44 c 1
 1574 -38 1448 -30 1332 -30 c 0
 1132 -30 970 -68 792 -68 c 0
 500 -68 314 52 196 244 c 1
 196 244 l 1
 80 360 40 588 40 748 c 0
620 728 m 0
 620 584 622 320 806 320 c 1
 806 328 806 336 806 344 c 0
 806 346 812 348 816 348 c 0
 826 348 840 344 850 344 c 0
 1048 344 1012 762 1012 810 c 0
 1012 964 996 1168 824 1168 c 0
 648 1168 620 902 620 728 c 0
EndSplineSet
EndChar

StartChar: R
Encoding: 82 82 48
Width: 1560
VWidth: 0
Flags: HW
LayerCount: 2
Fore
SplineSet
1552 -4 m 1
 1503.82787774 -52.1721222623 1251.63613196 -22 1176 -22 c 0
 1142 -22 1108 -22 1078 -20 c 1
 978 -20 l 1
 930 -4 912 238 896 330 c 1
 890 466 858 492 762 492 c 2
 718 492 l 1
 718 4 l 1
 712 -40 530 -28 452 -28 c 2
 308 -28 l 2
 246 -28 186 -28 124 -30 c 1
 114 -26 106 -22 96 -16 c 1
 96 1476 l 2
 96 1500 134 1504 176 1504 c 2
 1048 1504 l 1
 1352 1496 1512 1354 1512 1108 c 0
 1512 934 1420 824 1268 754 c 1
 1516 676 1498 388 1522 192 c 1
 1522 104 l 1
 1528 74 1552 46 1560 16 c 1
 1560 2 1558 -4 1552 -4 c 1
712 1080 m 0
 712 1004 710 892 754 848 c 1
 856 848 982 886 982 1040 c 0
 982 1170 828 1172 760 1172 c 2
 736 1172 l 1
 714 1162 712 1130 712 1080 c 0
EndSplineSet
EndChar

StartChar: S
Encoding: 83 83 49
Width: 1484
VWidth: 0
Flags: HW
LayerCount: 2
Fore
SplineSet
728 -60 m 1
 356.244210422 -43.9760435527 70.7331507554 53.202190935 40 422 c 1
 40 436 46 442 60 444 c 1
 66 442 72 442 80 442 c 1
 80 442 l 1
 246 442 418 450 584 450 c 0
 662 450 610 318 756 318 c 0
 816 318 880 354 880 420 c 0
 880 530 562 564 508 578 c 0
 190 664 52 780 52 1010 c 0
 52 1424 444 1556 780 1556 c 0
 926 1556 1096 1534 1228 1452 c 1
 1367.36448405 1312.63551595 1412.23561258 1261.64279146 1424 1104 c 1
 1388 1068 l 1
 1234 1062 1088 1060 928 1060 c 0
 792 1060 880 1156 756 1156 c 0
 742 1156 632 1144 632 1092 c 0
 632 1028 764 1012 810 996 c 1
 1116.19978257 918.343456406 1464 860.839299 1464 486 c 0
 1464 30 1050 -44 728 -60 c 1
EndSplineSet
EndChar

StartChar: Scaron
Encoding: 269 352 50
Width: 1486
VWidth: 0
Flags: HW
LayerCount: 2
Fore
SplineSet
704 -56 m 0
 340.805504962 -56 71.4098843528 74.9633646365 42 422 c 1
 42 434 44 444 60 444 c 1
 66 442 72 442 80 442 c 1
 80 442 l 1
 246 442 412 450 584 450 c 0
 664 450 610 318 756 318 c 0
 814 318 880 352 880 420 c 0
 880 480 802 508 728 524 c 1
 654 524 l 1
 222 614 54 754 54 1014 c 0
 54 1422 444 1556 780 1556 c 0
 947.495954091 1556 1100.64155209 1515.67922395 1232 1450 c 1
 1396 1334 1414 1232 1424 1104 c 1
 1388 1068 l 1
 1276 1062 1162 1056 1040 1056 c 0
 990 1056 940 1062 890 1062 c 0
 810 1062 880 1156 756 1156 c 0
 736 1156 630 1140 630 1088 c 0
 630 1032 764 1006 836 992 c 1
 872 992 l 1
 1116 934 1464 840 1464 486 c 0
 1464 10 1004 -56 704 -56 c 0
264 2188 m 0
 264 2216 310 2222 356 2222 c 0
 386 2222 414 2220 432 2220 c 2
 520 2220 l 2
 612 2220 672 2212 704 2140 c 1
 744 2072 l 1
 774 2114 802 2170 832 2212 c 1
 1202 2212 l 1
 1212 2210 1218 2202 1220 2190 c 1
 1220 2174 1208 2154 1194 2130 c 1
 1148 2068 l 1
 1084 1974 1040 1838 934 1820 c 0
 822 1800 650 1812 520 1808 c 1
 472 1844 430 1910 396 1972 c 1
 360 2028 l 1
 354 2034 350 2042 344 2050 c 1
 334 2076 264 2154 264 2188 c 0
EndSplineSet
EndChar

StartChar: T
Encoding: 84 84 52
Width: 1318
VWidth: 0
Flags: HW
LayerCount: 2
Fore
SplineSet
-16 1198 m 0
 -16 1232 -12 1272 -12 1300 c 0
 -12 1316 -16 1350 -16 1390 c 0
 -16 1444 -14 1496 4 1496 c 0
 6 1496 12 1496 18 1494 c 1
 434 1494 842 1504 1252 1504 c 0
 1324 1504 1330 1492 1330 1460 c 2
 1330 1432 l 2
 1330 1328 1332 1230 1332 1124 c 0
 1332 1096 1328 1072 1304 1072 c 0
 1192 1072 1082 1076 970 1076 c 1
 970 4 l 1
 966 -14 958 -26 936 -28 c 1
 866 -28 802 -26 732 -26 c 1
 732 -26 730 -26 728 -28 c 1
 642 -28 566 -26 486 -26 c 2
 426 -26 l 1
 406 -28 386 -28 368 -28 c 1
 354.666666667 -12 341.333333333 4 328 20 c 1
 328 324 348 620 348 924 c 1
 346 974 354 1060 298 1060 c 2
 12 1060 l 1
 -10 1066 -16 1136 -16 1198 c 0
EndSplineSet
EndChar

StartChar: Thorn
Encoding: 271 222 53
Width: 1526
VWidth: 0
Flags: HW
LayerCount: 2
Fore
SplineSet
104 136 m 2
 104 312 l 2
 104 520 108 724 108 934 c 2
 108 1450 l 2
 108 1508 110 1562 132 1620 c 1
 700 1620 l 1
 754.735388406 1615.0240556 729.387891832 1513.63005519 732 1464 c 1
 732 1380 l 1
 812 1380 896 1378 976 1372 c 1
 1024 1372 l 2
 1288 1372 1520 1198 1520 868 c 0
 1520 442 1170 370 932 346 c 1
 740 346 l 1
 740 12 l 1
 738 -10 722 -24 698 -24 c 2
 130 -24 l 1
 108 34 104 78 104 136 c 2
706 1040 m 1
 706 708 l 1
 740 664 l 1
 850 664 972 704 972 872 c 0
 972 1042 822 1040 706 1040 c 1
EndSplineSet
EndChar

StartChar: U
Encoding: 85 85 54
Width: 1614
VWidth: 0
Flags: HW
LayerCount: 2
Fore
SplineSet
92 498 m 1
 94 744 96 982 96 1232 c 2
 96 1244 l 2
 96 1266 92 1314 92 1366 c 0
 92 1424 94 1488 112 1502 c 1
 122 1502 132 1500 142 1500 c 0
 268 1506 398 1508 532 1508 c 0
 577.333333333 1508 622.666666667 1508 668 1508 c 1
 684 1506 698 1496 708 1496 c 1
 712.014206253 1312.70983548 719.99275277 1135.31151315 718 946 c 1
 718 556 l 2
 718 482 720 380 806 380 c 0
 864 380 900 438 900 498 c 2
 900 864 l 1
 898 1014 906 1150 902 1300 c 1
 902 1372 l 2
 902 1394 898 1416 898 1440 c 2
 898 1488 l 1
 900 1504 914 1514 924 1516 c 1
 1122 1516 1308 1514 1500 1512 c 1
 1500 1496 l 1
 1544 1496 l 1
 1538 1336 1536 1160 1536 1000 c 2
 1536 776 l 2
 1536 686 1532 590 1532 500 c 0
 1532 52 1170 -60 820 -60 c 0
 488 -60 108 42 92 498 c 1
EndSplineSet
EndChar

StartChar: V
Encoding: 86 86 59
Width: 1554
VWidth: 0
Flags: HW
LayerCount: 2
Fore
SplineSet
-36.2278322554 1474.80826205 m 1
 -36.2278322554 1496.80826205 -20 1504 -2 1504 c 0
 190 1504 374 1508 560 1508 c 0
 576 1508 592 1502 608 1480 c 1
 780 484 l 1
 808 652 856 820 890 986 c 2
 990 1486 l 1
 996 1504 1220 1510 1400 1510 c 2
 1560 1510 l 1
 1576 1504 1582 1486 1584 1476 c 1
 1359.52557808 666.13149738 l 1
 1325.58073107 529.90103924 1235.75525232 3.25175077244 1142 -28 c 1
 1070 -28 1000 -22 928 -22 c 2
 856 -22 l 1
 700 -36 541.650239933 -30.0448988108 389.650239933 -36.0448988108 c 1
 -36.2278322554 1474.80826205 l 1
EndSplineSet
EndChar

StartChar: W
Encoding: 87 87 60
Width: 2130
VWidth: 0
Flags: HW
LayerCount: 2
Fore
SplineSet
1069.44755316 779.609319361 m 1
 1048.30997486 665.869017109 992.247142966 -32 914 -32 c 0
 828 -32 746 -28 660 -28 c 0
 538 -28 426 -30 304 -36 c 1
 254 -10 250 84 240 136 c 0
 169.520111165 471.520111165 101.213420255 809.213420255 26 1140 c 1
 -44 1476 l 1
 -44 1494 -38 1506 -16 1514 c 1
 8 1512 34 1512 60 1512 c 2
 140 1512 l 2
 186 1512 232 1516 274 1516 c 1
 308 1518 344 1514 378 1514 c 2
 436 1514 l 1
 446 1512 456 1512 466 1512 c 2
 496 1512 l 1
 558.315606475 1495.0048346 612.770613942 873.558343539 626.835871454 748.856254971 c 1
 754.237414946 1510.30268933 l 1
 776.237414946 1508.30268933 810 1506 830 1506 c 2
 892 1506 l 2
 1052 1506 1202 1508 1356 1508 c 0
 1372 1508 1380 1498 1382 1492 c 1
 1506.78664893 665.024072345 l 1
 1518.78664893 809.024072345 1534 948 1554 1082 c 2
 1614 1488 l 1
 1620 1510 1652 1512 1684 1512 c 2
 1732 1512 l 1
 1754 1514 1778 1510 1806 1510 c 2
 1894 1510 l 2
 1956 1510 2010 1508 2026 1508 c 0
 2065.33333333 1508 2104.66666667 1508 2144 1508 c 0
 2158 1508 2158.87780549 1479.55610973 2160.87780549 1449.55610973 c 1
 1839.31333828 -22.2197209679 l 1
 1779.31333828 -26.2197209679 1700 -22 1638 -22 c 0
 1556 -22 1472 -20 1388 -20 c 0
 1328 -20 1252.8049649 -24.3257706786 1192.8049649 -26.3257706786 c 1
 1069.44755316 779.609319361 l 1
EndSplineSet
EndChar

StartChar: X
Encoding: 88 88 61
Width: 1600
VWidth: 0
Flags: HW
LayerCount: 2
Fore
SplineSet
-36 0 m 0
 -36 22 -22 50 0 84 c 0
 144.39508713 304.938246203 285.17456359 529.492103076 428 752 c 1
 286.848759662 994.848759662 145.692950529 1237.69295053 0 1476 c 1
 0 1486 l 2
 0 1494 4 1500 12 1506 c 1
 140 1506 264 1500 392 1500 c 1
 422 1502 450 1498 480 1498 c 2
 550 1498 l 1
 572 1500 596 1500 620 1500 c 1
 638 1496 680 1422 714 1344 c 2
 814.890840652 1105.53074028 l 1
 849.038780674 1183.38280025 886.422254601 1259.5777454 922 1336 c 2
 960 1416 l 2
 982 1464 1002 1500 1012 1500 c 0
 1014 1500 1018 1498 1024 1496 c 1
 1214 1502 1400 1512 1592 1512 c 1
 1610 1508 1620 1494 1620 1468 c 2
 1620 1456 l 1
 1469.40387946 1217.92945387 1317.87662462 980.790042045 1170 740 c 1
 1369.54657293 433.005272408 l 2
 1457.65351317 297.112212639 1544.3359996 160.335999604 1632 24 c 1
 1632 4 l 2
 1632 -20 1610 -32 1570 -32 c 0
 1410 -32 1252 -36 1100 -36 c 2
 1052 -36 l 2
 1020 -36 994 -32 972 -16 c 1
 789.184205331 370.889239882 l 1
 744.048823484 273.272184218 653.645905478 10.7315135458 562 -30 c 1
 450 -28 346 -26 234 -26 c 0
 148 -26 74 -28 -12 -28 c 1
 -28 -22 -36 -14 -36 0 c 0
EndSplineSet
EndChar

StartChar: Y
Encoding: 89 89 62
Width: 1524
VWidth: 0
Flags: HW
LayerCount: 2
Fore
SplineSet
1568 1462 m 1
 1405.6638639 1139.44786436 1230.27908967 827.796997741 1072 500 c 1
 1072 0 l 1
 1066 -22 1058 -32 1032 -32 c 0
 842 -32 664 -36 468 -36 c 1
 438 -6 432 24 432 48 c 1
 442 96 436 168 436 224 c 2
 436 296 l 2
 436 468 400 604 336 726 c 1
 260.680938199 877.347604866 191.947474612 1032.743237 116.28876277 1183.75119183 c 1
 -55.0619750284 1471.01566402 l 1
 -55.0619750284 1489.01566402 -18 1506 8 1506 c 2
 260 1506 l 2
 364 1506 470 1504 572 1504 c 1
 638.868248073 1493.71257722 756.39139687 1026.97620569 786.792818671 922.447396768 c 1
 970 1508 l 1
 1534 1508 l 1
 1552 1506 1560 1496 1568 1462 c 1
EndSplineSet
EndChar

StartChar: Z
Encoding: 90 90 65
Width: 1394
VWidth: 0
Flags: HW
LayerCount: 2
Fore
SplineSet
14 16 m 1
 14 48 l 2
 14 138 18 368 24 368 c 1
 26 366 120 490 316 730 c 2
 608 1086 l 1
 426 1086 254 1080 72 1080 c 1
 50 1086 48 1104 48 1128 c 2
 48 1248 l 2
 48 1276 40 1356 40 1416 c 0
 40 1472 44 1496 60 1496 c 0
 385.808238637 1496 721.954000161 1499.95035583 1052 1504 c 1
 1264 1504 l 2
 1336 1504 1348 1506 1348 1428 c 0
 1348 1404 1344 1378 1344 1368 c 2
 1344 1362 l 2
 1344 1004.99027648 1232.84602884 965.129659253 1050 748 c 2
 760 404 l 1
 1336 404 l 2
 1368 404 1368 302 1368 216 c 2
 1368 124 l 2
 1368 104 1372 74 1372 48 c 0
 1372 -16 1350 -24 1296 -24 c 2
 1272 -24 l 2
 880 -24 494 -36 104 -36 c 0
 58 -36 48 -28 14 16 c 1
EndSplineSet
EndChar

StartChar: a
Encoding: 97 97 68
Width: 1482
VWidth: 0
Flags: HW
LayerCount: 2
Fore
SplineSet
552 248 m 1
 521.278875817 144.316205882 546.022569662 38 400 38 c 2
 -32 38 l 1
 -32 72 l 1
 76.7823631382 401.217636862 170.540307347 729.459692653 280 1058 c 1
 280 1056 l 1
 314.610521021 1156.05614565 347.280484571 1258.05284876 380 1360 c 1
 388.293197124 1373.82199521 390.23069203 1378.18668489 400.014488836 1387.9704817 c 1
 940 1384 l 2
 1018 1384 1080 1380 1092 1360 c 1
 1092 1334 l 1
 1094 1322 1104 1306 1114 1288 c 1
 1161.26091785 1143.92758452 1208.50741112 999.840744453 1256 856 c 1
 1256 844 l 1
 1264.22292383 778.216609372 1312.84993468 698.038112867 1334.98462639 632.270289596 c 1
 1374.68716482 487.639613872 l 1
 1407.03567688 382.654792604 1442.48686569 279.820199027 1478 178 c 1
 1478 180 l 1
 1478 160 l 1
 1484 134 1502 110 1508 88 c 1
 1508 50 1494 44 1452 44 c 2
 988 44 l 1
 958 48 934 50 930 72 c 1
 892 224 l 2
 886 250 886 248 860 248 c 2
 552 248 l 1
600 604 m 1
 600 600 l 1
 600 604 l 1
820 724 m 1
 799.668172225 818.759175486 785.939725105 920.180824686 756 1010 c 1
 756 1058 l 1
 750 1074 742 1082 728 1088 c 1
 728 1086 l 1
 710.221036041 1082.04911912 690.117994645 1005.90448701 680 952 c 1
 680 904 l 1
 676 892 664 888 664 884 c 0
 646.131890522 805.201442811 628.213086682 726.453579985 610 648 c 1
 610 630 600 594 600 584 c 1
 848 584 l 1
 848 606 838 648 830 678 c 1
 830 700 l 1
 828 708 820 716 820 724 c 1
EndSplineSet
EndChar

StartChar: acute
Encoding: 180 180 71
Width: 640
VWidth: 0
Flags: HW
LayerCount: 2
Fore
SplineSet
28 1402 m 1
 243.556735139 1768.95968006 l 1
 436 1764 l 1
 480.08952886 1761.18577475 754.708603726 1760.14832935 754.708603726 1730.02658572 c 1
 484 1426 l 2
 416 1350 384 1364 268 1358 c 1
 52 1358 l 1
 28 1402 l 1
EndSplineSet
EndChar

StartChar: ae
Encoding: 276 230 73
Width: 2100
VWidth: 0
Flags: HW
LayerCount: 2
Fore
SplineSet
1808 548 m 1
 1808 548.666666667 1808 549.333333333 1808 550 c 1
 1728 550 1640 540 1538 540 c 2
 1384 540 l 1
 1413.49357326 426.23907455 l 1
 1509.49357326 426.23907455 1626 436 1716 436 c 2
 1846 436 l 2
 1874 436 1910.40569395 437.501779359 1926.40569395 411.501779359 c 1
 2034.16370107 48 l 1
 1026 48 l 2
 986 48 936 44 930 72 c 2
 892 224 l 2
 886 250 886 248 860 248 c 2
 552 248 l 1
 521.278875817 144.316205882 546.022569662 38 400 38 c 2
 -39.5593759029 39.7731869402 l 1
 46.7174227102 407.58480208 l 1
 398.561640554 1387.98116441 l 1
 1581.96529167 1379.27966697 l 1
 1601.96529167 1377.27966697 1614 1372 1616 1358 c 1
 1721.7031347 1018.53031739 l 1
 1721.7031347 1008.53031739 1714 1002 1700 992 c 1
 1236 992 l 1
 1236 976 1248 970 1248 960 c 2
 1248 890 l 1
 1256 890 1278 888 1284 888 c 2
 1310 888 l 2
 1428 888 1546 896 1668 896 c 0
 1730 896 1726 852 1736 820 c 1
 1736 782 l 1
 1742 772 1754 760 1760 744 c 1
 1760 696 l 1
 1770 654 1802 624 1812 594 c 1
 1812 568 l 2
 1812 554 1818 548 1808 548 c 1
820 724 m 1
 799.668172225 818.759175486 785.939725105 920.180824686 756 1010 c 1
 756 1058 l 1
 750 1074 742 1082 728 1088 c 1
 728 1086 l 1
 710.221036041 1082.04911912 690.117994645 1005.90448701 680 952 c 1
 680 892 l 1
 678 890 664 886 664 884 c 0
 646.131890522 805.201442811 628.213086682 726.453579985 610 648 c 1
 610 630 600 594 600 584 c 1
 848 584 l 1
 848 605.509653903 838.033802872 646.842987237 832 676 c 1
 832 700 l 1
 830 708 820 716 820 724 c 1
EndSplineSet
EndChar

StartChar: ampersand
Encoding: 38 38 75
Width: 1814
VWidth: 0
Flags: HW
LayerCount: 2
Fore
SplineSet
1476 -32 m 2
 1321.6485945 -32 1256.74555899 -18.2625718081 1172 40 c 1
 1132 40 l 1
 1026 -8 906 -58 784 -68 c 1
 696 -68 l 2
 296 -68 16 122 16 376 c 0
 16 596 172 728 376 804 c 1
 260 878 164 1010 164 1148 c 0
 164 1414.62710994 416.695313418 1532 748 1532 c 0
 1042 1532 1372 1444 1372 1164 c 0
 1372 1002 1258 880 1088 764 c 1
 1139.3467604 718.013427064 1189.67833598 671.011669312 1240 624 c 1
 1286.53828419 687.990140763 1245.63223985 800 1362 800 c 2
 1480 800 l 2
 1530 800 1582 798 1636 798 c 2
 1682 798 l 1
 1696 800 1712 800 1726 800 c 1
 1748 796 1756 788 1760 764 c 1
 1760 724 l 1
 1746 580 1682 428 1568 312 c 1
 1684 196 l 1
 1718.836149 155.016295299 1848 56.6230163245 1848 0 c 0
 1848 -18 1836 -30 1810 -32 c 1
 1476 -32 l 2
520 400 m 0
 520 284 646 232 740 232 c 0
 820 232 890 258 960 296 c 1
 891.046569608 371.848773431 813.015413892 434.802910598 740 506 c 1
 686 556 l 2
 668 572 650 588 644 588 c 1
 584 560 520 476 520 400 c 0
610 1144 m 1
 620.652297108 1069.43392024 706.210833671 996.170937373 776 970 c 1
 782 970 782 972 788 972 c 1
 836 1010 l 2
 882 1046 928 1102 928 1156 c 0
 928 1246 826 1276 760 1276 c 0
 686 1276 610 1228 610 1144 c 1
EndSplineSet
EndChar

StartChar: approxequal
Encoding: 278 8776 77
Width: 1322
VWidth: 0
Flags: HW
LayerCount: 2
Fore
SplineSet
38.8777366117 348.138093634 m 1
 134.877736612 480.138093634 292 612 460 612 c 0
 618 612 760 464 880 464 c 0
 950 464 1012 534 1076 614 c 1
 1128 614 l 1
 1285.58704595 441.091991247 l 1
 1285.58704595 433.091991247 1278 422 1272 420 c 1
 1186 290 1060 170 906 170 c 1
 808 172 732 206 658 248 c 2
 586 288 l 2
 540 314 488 328 440 328 c 1
 396 330 342 310 296 262 c 2
 262 226 l 2
 240 202 224.990906029 185.233411923 214.990906029 185.233411923 c 1
 38.8777366117 348.138093634 l 1
41.8686426406 801.371505557 m 1
 143.868642641 967.371505557 284 1072 460 1072 c 0
 520 1072 594 1060 656 1024 c 2
 736 978 l 2
 788 948 832 920 876 920 c 0
 940 920 1006 974 1076 1070 c 1
 1128 1070 l 1
 1284.59133479 898.184507659 l 1
 1284.59133479 892.184507659 1276 882 1272 872 c 1
 1174 742 1056 624 894 624 c 0
 884 624 874 624 864 626 c 1
 832 626 l 1
 692 648 568 790 444 790 c 0
 402 790 338 768 296 718 c 1
 218.790165039 637.719097339 l 1
 41.8686426406 801.371505557 l 1
EndSplineSet
EndChar

StartChar: asciicircum
Encoding: 94 94 79
Width: 1274
VWidth: 0
Flags: HW
LayerCount: 2
Fore
SplineSet
138.439970471 758.748477779 m 1
 503.299760815 1519.21467001 l 1
 765.83220689 1519.624914 l 1
 1146 776 l 1
 1146 734 1086 728 980 728 c 2
 860 728 l 2
 844 728 834 746 824 754 c 1
 636 1144 l 1
 440.504059301 736.008471585 l 1
 352.504059301 736.008471585 250 740 164 740 c 1
 148 742 138.439970471 752.748477779 138.439970471 758.748477779 c 1
EndSplineSet
EndChar

StartChar: asciitilde
Encoding: 126 126 80
Width: 1302
VWidth: 0
Flags: HW
LayerCount: 2
Fore
SplineSet
424 762 m 0
 577.604148559 762 653.385502097 612 864 612 c 0
 922 612 960 646 996 694 c 2
 1028 736 l 1
 1028 770 l 1
 1028 748 l 1
 1032 750 1048 752 1050 752 c 0
 1074 752 1144 552 1144 498 c 2
 1144 490 l 1
 1142 488 1140 484 1140 480 c 1
 1064 378 990 304 868 304 c 0
 830 304 796 310 766 320 c 1
 650 370 l 1
 586 402 528 436 444 436 c 0
 364 436 322 382 282 312 c 1
 248 312 l 1
 234 314 222 322 212 324 c 1
 172 438 l 1
 156 480 142 526 144 560 c 1
 216 690 300 762 424 762 c 0
EndSplineSet
EndChar

StartChar: asterisk
Encoding: 42 42 81
Width: 930
VWidth: 0
Flags: HW
LayerCount: 2
Fore
SplineSet
372 740 m 0
 348.108980302 740 178 834.539913196 178 852 c 0
 178 858 180 866 188 882 c 2
 234 970 l 1
 256 1008 l 1
 234 1008 202 1006 180 1006 c 2
 146 1006 l 1
 76 1016 76 1036 76 1140 c 0
 76 1190 86 1234 108 1248 c 1
 156 1248 220 1246 268 1244 c 1
 236 1296 l 1
 236 1294 l 1
 202 1354 l 1
 192 1376 184 1392 182 1408 c 1
 182 1424 210 1440 228 1444 c 1
 280 1478 l 2
 312 1498 346 1518 368 1518 c 1
 378 1516 400 1484 420 1448 c 1
 420 1410 l 1
 420 1412 l 1
 472 1348 l 1
 472 1376 l 1
 478 1386 494 1396 496 1404 c 1
 496 1426 l 1
 508 1450 554 1512 568 1520 c 1
 628 1492 l 2
 678 1468 748 1428 748 1412 c 0
 748 1390 736 1374 722 1352 c 2
 694 1308 l 2
 684 1292 672 1270 658 1240 c 1
 684 1240 l 1
 700 1244 718 1248 738 1248 c 2
 788 1248 l 2
 828 1248 856 1270 856 1162 c 0
 856 1144 854 1126 850 1104 c 1
 850 1052 l 2
 850 1034 786 1032 726 1028 c 1
 668 1028 l 1
 702 970 l 1
 708 962 712 954 714 944 c 1
 714 912 l 1
 722 904 758.910665727 867.780642562 758.910665727 853.780642562 c 1
 568.098280142 737.169533097 l 1
 474 894 l 1
 432 814 l 2
 406 766 396 740 372 740 c 0
EndSplineSet
EndChar

StartChar: at
Encoding: 64 64 82
Width: 1670
VWidth: 0
Flags: HW
LayerCount: 2
Fore
SplineSet
72 724 m 0
 72 1210 460 1502 856 1502 c 0
 1232 1502 1592 1280 1592 904 c 0
 1592 600 1408 316 1214 316 c 0
 1136 316 1070 370 1028 480 c 1
 1028 480 l 1
 958 394 882 336 732 336 c 0
 570 336 424 472 424 640 c 2
 424 676 l 2
 424 880 576 1096 832 1096 c 1
 832 1096 l 1
 912 1096 990 1070 1044 1016 c 1
 1092 944 l 1
 1106 990 1118 1038 1130 1086 c 1
 1252 1086 l 1
 1160.24289764 579.042009476 l 1
 1160.24289764 517.042009476 1182 468 1248 468 c 1
 1386 526 1424 688 1424 816 c 0
 1424 1212 1160 1340 874 1340 c 0
 554 1340 262 1124 262 708 c 0
 262 372 554 152 872 152 c 0
 954 152 1034 164 1108 186 c 1
 1156 40 l 1
 1046 -2 940 -12 812 -12 c 0
 422 -12 72 304 72 724 c 0
632 692 m 1
 632 574 690 508 764 508 c 0
 920 508 1014 626 1014 748 c 0
 1014 856 936 912 858 912 c 0
 722 912 648 810 632 692 c 1
EndSplineSet
EndChar

StartChar: b
Encoding: 98 98 84
Width: 1408
VWidth: 0
Flags: HW
LayerCount: 2
Fore
SplineSet
1142 748 m 1
 1284.28380767 748 1360 553.787921344 1360 436 c 1
 1354 272 1260 146 1116 94 c 1
 1032 44 l 1
 88 44 l 1
 88 1388 l 1
 848 1388 l 2
 976 1388 1104 1366 1206 1292 c 1
 1206 1292 l 1
 1288 1238 1324 1130 1324 1030 c 0
 1324 884.345697484 1253.41563057 814.849378344 1142 748 c 1
 1142 748 l 1
624.417780541 619.932856699 m 1
 584.333229717 370.517873795 l 2
 584.333229717 364.517873795 612 356 622 354 c 1
 700 354 l 1
 774 360 844 384 844 478 c 0
 844 620.134286602 710.417780541 619.932856699 624.417780541 619.932856699 c 1
604 1060 m 1
 610 1026 612 994 612 956 c 2
 612 936 l 2
 612 930 610 922 610 916 c 0
 610 906 612 892 612 876 c 2
 612 844 l 2
 612 838 614 832 620 830 c 1
 692 830 826 830 826 968 c 0
 826 1064 726 1086 642 1086 c 1
 642 1086 l 1
 638 1084 622 1084 620 1084 c 1
 620 1086 l 1
 604 1080 604 1070 604 1060 c 1
EndSplineSet
EndChar

StartChar: backslash
Encoding: 92 92 85
Width: 808
VWidth: 0
Flags: HW
LayerCount: 2
Fore
SplineSet
-35.9909274251 1524.00301657 m 1
 -35.9909274251 1534.00301657 -30 1542 -18 1548 c 1
 50 1544 118 1542 188 1542 c 0
 214 1542 244.781215176 1545.03156474 270.781215176 1545.03156474 c 1
 855.912595997 -32.5488012225 l 1
 855.912595997 -54.5488012225 838 -68 816 -70 c 1
 776 -70 l 2
 750 -70 720 -72 694 -72 c 0
 660 -72 622 -70 584 -70 c 0
 552 -70 522 -70 496 -76 c 1
 -35.9909274251 1524.00301657 l 1
EndSplineSet
EndChar

StartChar: bar
Encoding: 124 124 86
Width: 492
VWidth: 0
Flags: HW
LayerCount: 2
Fore
SplineSet
70 -40 m 1
 70 450 88 988 88 1480 c 2
 88 1508 l 2
 88 1562 138 1546 172 1550 c 1
 310 1550 l 1
 344 1546 396 1564 396 1516 c 2
 396 1134 l 1
 400 852 404 570 412 288 c 1
 412 -40 l 1
 404 -70 360 -80 308 -80 c 2
 248 -80 l 2
 196 -80 148 -82 102 -74 c 1
 70 -40 l 1
EndSplineSet
EndChar

StartChar: braceleft
Encoding: 123 123 87
Width: 1032
VWidth: 0
Flags: HW
LayerCount: 2
Fore
SplineSet
704 -312 m 2
 473.594177401 -312 240.399580187 -271.156118597 244 -24 c 1
 228 338 270 384 144 400 c 1
 96 410 48 404 48 432 c 0
 48 526 42 608 42 706 c 0
 42 742 46 776 68 786 c 1
 140 786 228 794 236 874 c 1
 236 1162 l 2
 236 1484 468 1508 672 1512 c 1
 888 1512 l 1
 924 1478 l 1
 924 1366 922 1262 922 1150 c 1
 918 1128 906 1118 884 1118 c 0
 862 1118 838 1120 820 1120 c 0
 764 1120 730 1106 728 1024 c 1
 728 788 l 2
 728 678 640 624 564 592 c 1
 598 592 l 1
 702 544 722 462 722 304 c 2
 722 268 l 2
 722 242 720 222 720 196 c 0
 720 100 730 62 852 62 c 1
 852 62 l 1
 876 62 904 62 912 40 c 1
 912 -104 l 2
 912 -196 908 -304 884 -312 c 1
 704 -312 l 2
EndSplineSet
EndChar

StartChar: braceright
Encoding: 125 125 88
Width: 1034
VWidth: 0
Flags: HW
LayerCount: 2
Fore
SplineSet
86 -276 m 1
 88 -172 92 -70 92 36 c 0
 92 54 102 66 122 68 c 1
 178 68 l 2
 238 68 284 84 284 172 c 0
 284 198 282 254 282 312 c 1
 288 496 322 558 452 596 c 1
 322 634 290 692 290 852 c 1
 288 884 292 914 292 944 c 2
 292 1020 l 2
 292 1100 264 1124 150 1124 c 0
 118 1124 100 1126 100 1148 c 0
 100 1206 102 1270 102 1328 c 0
 102 1338 102 1348 100 1362 c 1
 100 1404 l 2
 100 1444 102 1482 120 1496 c 1
 140 1494 162 1492 182 1492 c 0
 190 1492 198 1494 208 1494 c 1
 208 1494 l 1
 216 1494 244 1492 252 1492 c 1
 252 1492 l 1
 252 1494 262 1494 264 1494 c 2
 336 1494 l 2
 528 1494 776 1502 776 1104 c 2
 776 1060 l 2
 776 990 770 928 770 880 c 0
 770 790 858 784 924 784 c 1
 924 784 l 1
 946 778 966 766 966 750 c 0
 966 700 964 650 964 596 c 0
 964 540 966 486 966 430 c 1
 958 368 776 442 776 322 c 0
 776 306 776 286 778 268 c 1
 778 204 l 2
 778 166 784 126 784 84 c 0
 784 -250 622 -320 438 -320 c 2
 120 -320 l 1
 86 -276 l 1
EndSplineSet
EndChar

StartChar: bracketleft
Encoding: 91 91 89
Width: 1034
VWidth: 0
Flags: HW
LayerCount: 2
Fore
SplineSet
160 -62 m 2
 160 -36 l 2
 160 468 158 978 182 1484 c 1
 182 1506 208 1510 234 1510 c 2
 854 1510 l 2
 962 1510 980 1474 980 1368 c 0
 980 1314 978 1148 958 1148 c 1
 958 1148 l 1
 932 1148 896 1146 866 1146 c 0
 794 1146 726 1150 652 1156 c 1
 652 64 l 1
 740 64 822 68 912 68 c 2
 950 68 l 1
 980 64 984 -14 984 -88 c 2
 984 -166 l 2
 984 -178 984 -188 982 -198 c 1
 982 -212 984 -232 984 -250 c 0
 984 -280 982 -310 944 -318 c 1
 698 -318 450 -326 204 -326 c 1
 160 -276 l 1
 160 -262 160 -248 158 -232 c 1
 158 -162 l 2
 158 -130 160 -96 160 -62 c 2
EndSplineSet
EndChar

StartChar: bracketright
Encoding: 93 93 90
Width: 1036
VWidth: 0
Flags: HW
LayerCount: 2
Fore
SplineSet
852 -262 m 2
 852 -337.454529552 726.51469855 -318 648 -318 c 2
 624 -318 l 1
 534 -316 444 -318 356 -316 c 1
 92 -316 l 1
 48 -306 58 -112 58 -16 c 0
 58 54 70 60 104 60 c 2
 388 60 l 1
 388 154 l 2
 388 484 382 798 376 1128 c 1
 252 1128 l 2
 196 1128 140 1124 84 1124 c 1
 74 1134 62 1148 50 1164 c 1
 50 1212 l 2
 50 1282 52 1342 52 1412 c 0
 52 1426 50 1440 50 1454 c 0
 50 1484 54 1512 76 1528 c 1
 102 1528 l 2
 182 1528 264 1524 344 1524 c 0
 434 1524 526 1528 616 1528 c 0
 696 1528 776 1516 856 1516 c 0
 862 1516 866 1518 872 1520 c 1
 872 1504 872 1490 874 1476 c 1
 874 1428 l 2
 874 1364 872 1308 872 1244 c 2
 872 1214 l 1
 874 750 852 284 852 -186 c 2
 852 -262 l 2
EndSplineSet
EndChar

StartChar: breve
Encoding: 162 728 91
Width: 682
VWidth: 0
Flags: HW
LayerCount: 2
Fore
SplineSet
194 1752 m 2
 311.818061174 1752 242.655725058 1620 348 1620 c 0
 432 1620 410 1718 452 1740 c 1
 510 1736 566 1738 624 1736 c 1
 738 1736 l 2
 760 1736 778 1730 778 1704 c 1
 734 1446 548 1334 340 1334 c 0
 86.5217440196 1334 -48.4892869972 1482.64063061 -100 1708 c 1
 -100 1730 l 1
 -94 1736 -74 1744 -68 1752 c 1
 194 1752 l 2
EndSplineSet
EndChar

StartChar: brokenbar
Encoding: 281 166 92
Width: 494
VWidth: 0
Flags: HW
LayerCount: 2
Fore
SplineSet
80 -320 m 1
 80 42 90 370 90 442 c 0
 90 452 88 462 88 468 c 0
 88 484 94 502 104 512 c 1
 396 512 l 1
 396 -320 l 1
 388 -350 354 -360 302 -360 c 2
 112 -360 l 1
 80 -320 l 1
80 778 m 1
 80 1110 90 1416 90 1480 c 0
 90 1490 88 1498 88 1508 c 0
 88 1562 136 1546 172 1550 c 1
 312 1550 l 1
 346 1546 396 1564 396 1516 c 2
 396 780 l 1
 388 748 354 740 302 740 c 2
 112 740 l 1
 80 778 l 1
EndSplineSet
EndChar

StartChar: bullet
Encoding: 282 8226 93
Width: 1142
VWidth: 0
Flags: HW
LayerCount: 2
Fore
SplineSet
156 730 m 1
 156 734 l 1
 178 930 302 1136 566 1136 c 0
 780 1136 978 966 978 734 c 0
 978 502 788 332 574 332 c 0
 316 332 178 540 156 730 c 1
EndSplineSet
EndChar

StartChar: c
Encoding: 99 99 94
Width: 1390
VWidth: 0
Flags: HW
LayerCount: 2
Fore
SplineSet
728 8 m 0
 270.569411458 8 36 329.931035786 36 746 c 2
 36 760 l 1
 46 868 50 960 104 1068 c 1
 104 1066 l 1
 232 1332 484 1414 732 1414 c 0
 1160 1414 1308 1198 1340 970 c 1
 1340 884 l 1
 1334 854 1302 852 1260 852 c 2
 832 852 l 1
 832 938 l 1
 826 978 794 1028 744 1028 c 0
 602 1028 616 832 616 716 c 2
 616 604 l 2
 616 564 620 412 724 412 c 0
 810 412 796 538 840 582 c 1
 920 582 1000 580 1080 580 c 0
 1136 580 1190 582 1246 582 c 2
 1320 582 l 2
 1346 582 1354 566 1356 542 c 1
 1356 504 l 1
 1326 228 1134 70 896 28 c 1
 896 22 l 1
 848 12 778 8 728 8 c 0
EndSplineSet
EndChar

StartChar: caron
Encoding: 284 711 96
Width: 710
VWidth: 0
Flags: HW
LayerCount: 2
Fore
SplineSet
-138.998356164 1718.08438356 m 1
 -138.998356164 1732.08438356 -126 1744 -108 1752 c 1
 2 1752 98 1744 212 1744 c 0
 264 1744 282 1740 322 1670 c 2
 360 1604 l 1
 392 1646 420 1702 452 1744 c 1
 538 1744 616 1742 698 1742 c 2
 826 1742 l 2
 838 1742 844 1734 844 1720 c 0
 844 1696 814 1658 792 1626 c 0
 753.957344489 1571.37598884 715.713052558 1516.95361411 680 1460 c 1
 636 1394 628 1344 500 1344 c 2
 100 1344 l 1
 -138.998356164 1718.08438356 l 1
EndSplineSet
EndChar

StartChar: cedilla
Encoding: 184 184 98
Width: 604
VWidth: 0
Flags: HW
LayerCount: 2
Fore
SplineSet
-10 -432 m 0
 -10 -418 -2 -398 6 -380 c 1
 6 -352 l 1
 20 -324 40 -282 72 -280 c 1
 136 -304 l 1
 170 -318 206 -326 240 -324 c 0
 252 -324 324 -324 324 -284 c 1
 322 -266 298 -260 280 -260 c 0
 272 -260 264 -262 260 -264 c 1
 228 -264 l 1
 228 -276 l 1
 216 -276 198 -274 188 -268 c 1
 144 -236 l 1
 128 -228 102.681455806 -206.845060659 94.6814558059 -180.845060659 c 1
 220.86932409 38 l 1
 400 38 l 1
 422 36 432 22 432 4 c 0
 432 -16 398 -56 388 -76 c 1
 536 -76 616 -158 616 -270 c 0
 616 -430 458 -516 286 -516 c 0
 170 -516 -10 -480 -10 -432 c 0
EndSplineSet
EndChar

StartChar: cent
Encoding: 285 162 99
Width: 1496
VWidth: 0
Flags: HW
LayerCount: 2
Fore
SplineSet
1360 380 m 1
 1341.50480974 114.902272891 1173.38916251 16.1707717427 952 -48 c 1
 954 -104 956 -164 956 -220 c 0
 956 -256 948 -276 916 -276 c 2
 846 -276 l 2
 774 -276 702 -272 630 -272 c 1
 592 -230 l 1
 592 -54 l 1
 526 -54 l 1
 258 18 132 240 132 536 c 0
 132 870 370 1014 600 1082 c 1
 600 1154 598 1220 598 1286 c 1
 600 1304 606 1314 620 1316 c 1
 932 1316 l 1
 930 1280 930 1226 930 1192 c 2
 930 1160 l 2
 930 1136 930 1108 928 1082 c 1
 1156 1072 1312 940 1344 662 c 1
 1344 644 1270 640 1216 640 c 0
 1182 640 1146 642 1128 642 c 0
 1058 642 992 640 920 640 c 0
 876 640 856 644 856 674 c 0
 856 720 852 800 782 800 c 0
 680 800 664 636 664 548 c 2
 664 504 l 2
 664 484 664 466 666 448 c 1
 666 392 l 2
 666 338 680 252 760 252 c 0
 884 252 870 390 884 412 c 1
 1034 410 1180 410 1330 410 c 1
 1344 408 1354 398 1360 380 c 1
EndSplineSet
EndChar

StartChar: circumflex
Encoding: 286 710 100
Width: 710
VWidth: 0
Flags: HW
LayerCount: 2
Fore
SplineSet
-138.625103834 1388.73991169 m 1
 44 1644 l 1
 96 1708 74 1738 240 1744 c 1
 594.567567568 1754.40540541 l 1
 858.621621622 1384.72972973 l 1
 858.621621622 1366.72972973 836 1352 804 1352 c 2
 736 1352 l 2
 634 1352 544 1350 448 1344 c 1
 396 1370 380 1430 354 1472 c 1
 340 1458 292 1352 256 1352 c 2
 -58 1352 l 2
 -96 1352 -138.625103834 1362.73991169 -138.625103834 1388.73991169 c 1
EndSplineSet
EndChar

StartChar: colon
Encoding: 58 58 101
Width: 770
VWidth: 0
Flags: HW
LayerCount: 2
Fore
SplineSet
106 52 m 0
 106 164 110 294 116 414 c 1
 116 440 244 444 328 444 c 2
 412 444 l 1
 426 442 438 442 448 442 c 2
 528 442 l 2
 582 442 638 438 648 414 c 1
 648 4 l 1
 636 -30 446 -32 316 -32 c 2
 138 -32 l 1
 108 10 l 1
 108 26 106 36 106 52 c 0
110 680 m 1
 110 708 l 2
 110 734 112 764 112 796 c 2
 112 852 l 2
 112 940 114 1076 144 1076 c 2
 528 1076 l 2
 584 1076 648 1074 648 1046 c 2
 648 668 l 2
 648 642 650 616 624 616 c 2
 144 616 l 1
 112 648 l 1
 112 658 112 670 110 680 c 1
EndSplineSet
EndChar

StartChar: comma
Encoding: 44 44 102
Width: 734
VWidth: 0
Flags: HW
LayerCount: 2
Fore
SplineSet
-7.86251916325 -206.029672123 m 1
 72 164 l 2
 102 306 144 444 164 444 c 2
 520 444 l 2
 596 444 669.463233657 440.777027528 669.463233657 416.777027528 c 1
 475.544408993 -216.310900052 l 1
 465.544408993 -238.310900052 352 -240 254 -240 c 2
 24 -240 l 1
 -7.86251916325 -206.029672123 l 1
EndSplineSet
EndChar

StartChar: copyright
Encoding: 287 169 103
Width: 1646
VWidth: 0
Flags: HW
LayerCount: 2
Fore
SplineSet
8 734 m 1
 8 1241.64573565 386.048907452 1538 812 1538 c 0
 1244 1538 1628 1200 1628 724 c 0
 1628 308 1250 -64 828 -64 c 0
 682 -64 534 -26 388 60 c 0
 98 230 28 512 8 734 c 1
828 1304 m 1
 501.876974354 1304 293.479747498 1038.50011954 250 746 c 1
 250 444 502 176 806 176 c 0
 1112 176 1376 430 1376 768 c 0
 1376 1070 1120 1298 828 1304 c 1
 828 1304 l 1
822 536 m 0
 950.69344771 536 879.553227966 664 1038 664 c 2
 1154 664 l 2
 1190 664 1224 660 1224 624 c 1
 1192 416 1042 282 852 282 c 0
 524 282 392 522 392 748 c 0
 392 1024 620 1194 844 1194 c 0
 1060 1194 1174 1054 1216 872 c 1
 1216 846 1190 840 1148 840 c 2
 978 840 l 1
 909.332768431 869.42881353 941.292882493 958 834 958 c 0
 706 958 672 830 672 738 c 0
 672 638 714 536 822 536 c 0
EndSplineSet
EndChar

StartChar: currency
Encoding: 164 164 104
Width: 1478
VWidth: 0
Flags: HW
LayerCount: 2
Fore
SplineSet
344 252 m 1
 282.302835019 338.376030974 236 478.006000366 236 618 c 0
 236 716 256 904 364 1018 c 1
 330.666666667 1052.66666667 198.127594158 1190.50730208 198.127594158 1190.50730208 c 1
 198.127594158 1210.50730208 278.377281947 1256.06085193 282.377281947 1256.06085193 c 1
 442 1084 l 1
 528 1142 620 1176 746 1176 c 0
 883.219846619 1176 1014.20923983 1143.79076017 1102 1056 c 1
 1288.7429056 1255.05562465 l 1
 1306.7429056 1255.05562465 1352 1214 1356 1210 c 1
 1356 1212 l 1
 1362 1206 1362 1206 1362 1200 c 0
 1362 1184 1336 1154 1306 1122 c 0
 1262.48203 1076.18463667 1217.88715276 1031.44618058 1176 984 c 1
 1262 876 1280 698 1280 584 c 0
 1280 474 1254 370 1198 284 c 1
 1272 206 l 2
 1310 166 1342 124 1368 74 c 1
 1368 58 l 1
 1360 52 1332 50 1324 48 c 1
 1324 40 l 1
 1318 38 1291.16429433 23.9835946924 1285.16429433 23.9835946924 c 1
 1126 194 l 1
 1026 94 916 68 798 58 c 1
 752 58 l 1
 634.27854832 87.43036292 538.105463894 74.4069908763 420 168 c 1
 356 100 l 2
 322 64 290 34 268 34 c 0
 264 34 260 36 256 40 c 1
 224 40 l 1
 224 74 l 1
 250 128 262 166 300 206 c 2
 344 252 l 1
494 630 m 0
 494 438.702240986 579.110105684 328 720 328 c 2
 752 328 l 2
 840 328 1004 340 1004 608 c 0
 1004 896 866 908 756 908 c 2
 720 908 l 2
 628 908 494 864 494 630 c 0
EndSplineSet
EndChar

StartChar: d
Encoding: 100 100 105
Width: 1456
VWidth: 0
Flags: HW
LayerCount: 2
Fore
SplineSet
642 1388 m 2
 1073.24384602 1388 1412 1254.5132416 1412 720 c 0
 1412 248 1064 60 788 44 c 1
 102 44 l 1
 102 1372 l 1
 108 1372 118 1370 124 1370 c 0
 210.118370676 1370 298.779626856 1388 386 1388 c 2
 642 1388 l 2
654 356 m 2
 864.7552804 356 880 579.464384582 880 724 c 2
 880 796 l 1
 870 848 880 896 852 968 c 1
 852 968 l 1
 798 1076 722 1086 636 1086 c 1
 636 1078.66666667 636 1071.33333333 636 1064 c 1
 606 1064 l 1
 606 356 l 1
 654 356 l 2
EndSplineSet
EndChar

StartChar: dagger
Encoding: 288 8224 106
Width: 1516
VWidth: 0
Flags: HW
LayerCount: 2
Fore
SplineSet
188 1048 m 0
 188 1136 194 1204 228 1204 c 1
 228 1204 l 1
 314 1204 404 1198 486 1198 c 1
 486 1198 l 1
 492 1198 518 1198 526 1200 c 1
 526 1274 530 1350 530 1424 c 0
 530 1434 528 1450 528 1460 c 0
 528 1482 532 1498 548 1504 c 1
 926 1504 l 2
 958 1504 986 1494 986 1416 c 2
 986 1352 l 2
 986 1310 984 1270 984 1228 c 2
 984 1198 l 1
 1078 1198 1174 1204 1264 1204 c 0
 1318 1204 1312 1188 1312 1164 c 0
 1312 1058 1316 954 1316 852 c 1
 1312 830 1278 824 1248 824 c 2
 998 824 l 1
 998 558 994 276 994 4 c 1
 992 -14 982 -28 958 -28 c 2
 548 -28 l 1
 522 -2 516 4 516 56 c 0
 516 302 522 542 522 792 c 2
 522 820 l 1
 256 820 l 2
 228 820 194 818 194 856 c 0
 194 900 188 978 188 1048 c 0
EndSplineSet
EndChar

StartChar: daggerdbl
Encoding: 289 8225 107
Width: 1516
VWidth: 0
Flags: HW
LayerCount: 2
Fore
SplineSet
190 338 m 0
 190 418 174 576 220 592 c 1
 326 592 430 588 536 588 c 1
 536 906 l 1
 506 908 482 904 456 904 c 2
 380 904 l 2
 378 904 376 906 376 908 c 1
 360 908 336 906 312 906 c 0
 260 906 204 912 204 940 c 2
 204 1264 l 1
 544 1264 l 1
 544 1456 l 2
 544 1494 550 1500 590 1500 c 1
 638 1506 682 1508 720 1508 c 0
 794 1508 858 1502 928 1502 c 0
 968 1502 978 1488 976 1440 c 1
 976 1264 l 1
 1312 1264 l 1
 1314 1162 1316 1038 1316 932 c 1
 1314 908 1296 908 1266 908 c 2
 974 908 l 1
 980 802 982 698 982 594 c 1
 1024 592 1070 590 1112 590 c 0
 1168 590 1222 592 1276 592 c 0
 1302 592 1320 586 1320 544 c 2
 1320 448 l 2
 1320 416 1322 388 1322 362 c 2
 1322 348 l 2
 1322 340 1322 332 1324 324 c 1
 1324 296 l 2
 1324 258 1318 230 1292 224 c 1
 984 224 l 1
 984 136 l 1
 986 110 986 82 986 52 c 0
 986 -34 954 -32 826 -32 c 2
 564 -32 l 1
 536 8 528 26 528 66 c 2
 528 216 l 1
 426 216 326 220 222 220 c 1
 194 224 190 284 190 338 c 0
EndSplineSet
EndChar

StartChar: degree
Encoding: 176 176 108
Width: 878
VWidth: 0
Flags: HW
LayerCount: 2
Fore
SplineSet
108 1244 m 1
 134 1402 234 1548 436 1548 c 0
 596 1548 748 1420 748 1236 c 2
 748 1224 l 2
 748 1072 610 916 450 916 c 0
 298 916 108 1016 108 1244 c 1
EndSplineSet
EndChar

StartChar: dieresis
Encoding: 168 168 109
Width: 658
VWidth: 0
Flags: HW
LayerCount: 2
Fore
SplineSet
-116 1432 m 1
 -116 1494 l 2
 -116 1612 -104 1784 -80 1784 c 2
 248 1784 l 1
 266 1778 272 1758 272 1736 c 2
 272 1416 l 1
 266 1394 220 1388 176 1388 c 0
 150 1388 124 1390 106 1390 c 0
 42 1390 -20 1384 -84 1382 c 1
 -94.2792127224 1399.05412061 -104.905382961 1415.76128371 -116 1432 c 1
432 1428 m 2
 432 1522 434 1768 464 1784 c 1
 500 1782 536 1780 570 1780 c 0
 624 1780 668 1784 734 1784 c 0
 766 1784 812 1782 816 1760 c 1
 818 1646 820 1534 820 1420 c 1
 816 1402 808 1396 800 1396 c 0
 798 1396 796 1396 796 1398 c 1
 684 1388 576 1390 464 1382 c 1
 432 1422 l 1
 432 1428 l 2
EndSplineSet
EndChar

StartChar: divide
Encoding: 247 247 110
Width: 1282
VWidth: 0
Flags: HW
LayerCount: 2
Fore
SplineSet
92 428 m 0
 92 520 98 678 144 688 c 1
 204 688 l 2
 452 688 710 676 956 676 c 0
 1026 676 1094 678 1164 680 c 0
 1180 680 1182 666 1182 644 c 0
 1182 574 1176 522 1176 464 c 2
 1176 384 l 1
 118 384 l 1
 96 408 92 402 92 428 c 0
484 128 m 0
 484 226 554 298 642 298 c 0
 730 298 808 232 808 136 c 0
 808 40 728 -24 646 -24 c 0
 578 -24 484 26 484 128 c 0
648 1080 m 0
 730 1080 812 1024 812 928 c 0
 812 906 810 888 804 874 c 1
 776 828 l 1
 746 788 692 764 644 764 c 0
 562 764 488 826 488 922 c 0
 488 1018 570 1080 648 1080 c 0
EndSplineSet
EndChar

StartChar: dollar
Encoding: 36 36 111
Width: 1444
VWidth: 0
Flags: HW
LayerCount: 2
Fore
SplineSet
22 452 m 1
 22 484 56 488 90 488 c 2
 596 488 l 2
 658 488 594 332 742 332 c 0
 806 332 868 362 868 432 c 0
 868 496 776 502 668 530 c 2
 576 554 l 1
 196 646 56 772 56 1022 c 0
 56 1392 330 1484 548 1530 c 1
 546 1548 546 1568 546 1590 c 2
 546 1664 l 2
 546 1694 544 1728 568 1732 c 1
 648 1732 l 2
 718 1732 778 1734 848 1734 c 0
 880 1734 888 1684 888 1634 c 0
 888 1596 884 1554 884 1528 c 1
 1182.33911955 1504.13287044 1351.75566293 1394.88080145 1404 1064 c 1
 1402 1054 1396 1048 1388 1048 c 1
 1388 1048 l 1
 1230 1048 1078 1038 920 1038 c 0
 798 1038 874 1164 740 1164 c 1
 690 1154 624 1150 624 1096 c 0
 624 1014 782 1014 860 988 c 1
 966 962 l 2
 1072 936 1176 900 1272 848 c 1
 1400 752 1464 610 1464 456 c 0
 1464 116 1174 0 908 -54 c 1
 908 -156 l 2
 908 -166 910 -178 912 -188 c 1
 912 -224 l 1
 910 -248 894 -260 868 -260 c 2
 720 -260 l 1
 672 -258 622 -256 572 -252 c 1
 556 -242 548 -226 534 -216 c 1
 536 -206 536 -194 536 -184 c 2
 536 -150 l 2
 536 -26 500 -50 420 -28 c 0
 144 46 38 208 22 452 c 1
EndSplineSet
EndChar

StartChar: dotaccent
Encoding: 255 729 112
Width: 654
VWidth: 0
Flags: HW
LayerCount: 2
Fore
SplineSet
142 1140 m 1
 144 1242 138 1338 138 1440 c 0
 138 1464 140 1492 166 1492 c 2
 500 1492 l 1
 518 1486 522 1466 522 1442 c 0
 522 1432 520 1418 520 1404 c 2
 520 1318 l 2
 520 1276 526 1234 526 1192 c 2
 526 1160 l 1
 524 1150 524 1138 524 1126 c 1
 518 1100 472 1096 424 1096 c 2
 142 1096 l 1
 142 1140 l 1
EndSplineSet
EndChar

StartChar: dotlessi
Encoding: 185 305 113
Width: 668
VWidth: 0
Flags: HW
LayerCount: 2
Fore
SplineSet
46 84 m 0
 44 190 48 294 50 396 c 1
 50 604 l 2
 50 730 58 868 60 998 c 1
 60 1024 l 2
 60 1038 64 1048 76 1048 c 2
 572 1048 l 2
 582 1048 596 1042 596 1020 c 2
 596 168 l 2
 596 82 610 -24 572 -24 c 2
 48 -24 l 1
 48 6 46 54 46 84 c 0
EndSplineSet
EndChar

StartChar: e
Encoding: 101 101 114
Width: 1166
VWidth: 0
Flags: HW
LayerCount: 2
Fore
SplineSet
84 1292 m 2
 84 1348 80 1376 118 1376 c 2
 142 1376 l 2
 152 1376 158 1376 164 1374 c 1
 216 1374 l 2
 418 1374 624 1384 828 1384 c 2
 1094 1384 l 1
 1112 1382 1120 1372 1120 1358 c 2
 1120 1024 l 1
 1118 1008 1110 1006 1092 992 c 1
 628 992 l 1
 628 868 l 1
 672 868 l 2
 790 868 906 876 1032 876 c 0
 1072 876 1080 858 1080 834 c 0
 1080 824 1076 810 1076 800 c 2
 1076 762 l 2
 1076 752 1078 740 1078 724 c 2
 1078 696 l 2
 1078 654 1082 648 1082 614 c 2
 1082 588 l 1
 1076 574 1074 568 1064 568 c 1
 1064 570 l 1
 984 570 894 560 792 560 c 2
 632 560 l 1
 632 432 l 1
 648 432 664 430 680 430 c 0
 768 430 860 436 940 436 c 2
 1068 436 l 2
 1096 436 1132 438 1142 412 c 1
 1142 92 l 2
 1142 66 1136 50 1104 48 c 1
 114 48 l 1
 84 74 l 1
 84 1292 l 2
EndSplineSet
EndChar

StartChar: eight
Encoding: 56 56 119
Width: 1450
VWidth: 0
Flags: HW
LayerCount: 2
Fore
SplineSet
708 1548 m 0
 1057.04648569 1548 1366 1405.95465513 1366 1066 c 0
 1366 912 1294 812 1160 764 c 1
 1296 696 1408 602 1408 396 c 0
 1408 108 1176 -56 688 -56 c 0
 156 -56 56 180 28 396 c 1
 38 554 96 676 264 754 c 1
 136 812 74 924 74 1068 c 0
 74 1428 428 1548 708 1548 c 0
558 440 m 1
 568 342 622 272 720 272 c 0
 822 272 876 342 876 432 c 0
 876 550 828 620 718 620 c 0
 622 620 558 538 558 440 c 1
584 1048 m 0
 584 968 612 888 722 888 c 0
 818 888 854 968 854 1052 c 0
 854 1146 820 1212 714 1212 c 0
 622 1212 584 1116 584 1048 c 0
EndSplineSet
EndChar

StartChar: ellipsis
Encoding: 290 8230 120
Width: 2074
VWidth: 0
Flags: HW
LayerCount: 2
Fore
SplineSet
80 28 m 2
 80 44 l 2
 80 76 84 106 84 144 c 2
 84 196 l 2
 84 288 86 440 116 440 c 2
 524 440 l 2
 572 440 622 436 622 412 c 2
 622 -18 l 1
 620 -18 602 -16 600 -16 c 0
 474 -24 350 -26 222 -32 c 1
 114 -32 l 1
 82 14 l 2
 80 18 80 22 80 28 c 2
758 40 m 1
 758 72 l 2
 758 184 762 300 768 414 c 1
 768 440 930 444 1038 444 c 2
 1180 444 l 2
 1232 444 1294 438 1300 416 c 1
 1300 6 l 1
 1290 -24 1092 -32 972 -32 c 2
 790 -32 l 1
 760 12 l 1
 760 20 760 30 758 40 c 1
1434 88 m 0
 1434 194 1438 304 1444 416 c 1
 1444 444 1556 446 1608 446 c 0
 1674 446 1734 444 1804 444 c 1
 1854 438 1966 446 1976 418 c 1
 1976 348 1978 282 1978 210 c 0
 1978 188 1976 170 1976 148 c 2
 1976 76 l 1
 1978 52 1980 28 1980 4 c 1
 1970 -26 1818 -32 1700 -32 c 0
 1626 -32 1570 -30 1564 -30 c 2
 1468 -30 l 1
 1436 12 l 1
 1436 36 1434 62 1434 88 c 0
EndSplineSet
EndChar

StartChar: emdash
Encoding: 291 8212 121
Width: 2046
VWidth: 0
Flags: HW
LayerCount: 2
Fore
SplineSet
-4 740 m 2
 2036 740 l 1
 2060 734 2060 722 2060 704 c 0
 2058 638 2058 584 2056 526 c 1
 2056 386 l 1
 2054 376 2040 370 2024 368 c 1
 1794 374 1578 374 1342 374 c 1
 944 372 554 366 160 350 c 1
 12 350 l 1
 -18 392 l 1
 -18 472 -20 552 -20 640 c 0
 -20 680 -18 740 -4 740 c 2
EndSplineSet
EndChar

StartChar: endash
Encoding: 292 8211 122
Width: 1054
VWidth: 0
Flags: HW
LayerCount: 2
Fore
SplineSet
12 344 m 1
 -9.42218677427 365.422186774 -24 370.817921124 -24 420 c 2
 -24 572 l 2
 -24 652 -22 748 10 748 c 0
 152 748 290 744 428 744 c 2
 664 744 l 1
 742 746 820 744 900 748 c 1
 944 748 l 2
 960 748 978 752 1000 752 c 0
 1105.87600227 752 1068 507.275947199 1068 408 c 0
 1068 384 1062 364 1036 364 c 2
 838 364 l 2
 566 364 290 344 12 344 c 1
EndSplineSet
EndChar

StartChar: equal
Encoding: 61 61 124
Width: 1272
VWidth: 0
Flags: HW
LayerCount: 2
Fore
SplineSet
106 456 m 1
 358.075037855 456 605.870447745 423.702794225 868 428 c 1
 904 428 l 2
 990 428 1068 432 1148 436 c 1
 1172 436 1172 354 1172 286 c 2
 1172 220 l 2
 1172 206 1174 190 1174 174 c 0
 1174 148 1168 120 1142 120 c 2
 84 120 l 1
 82 142 80 182 80 206 c 0
 80 216 82 228 82 238 c 0
 82 260 84 286 84 308 c 2
 84 360 l 2
 84 394 88 430 106 456 c 1
84 636 m 1
 84 860 l 2
 84 904 88 936 116 936 c 2
 212 936 l 2
 526 936 834 932 1148 932 c 0
 1168 932 1172 842 1172 776 c 2
 1171.54257608 637.036581617 l 1
 116 600 l 1
 84 636 l 1
EndSplineSet
EndChar

StartChar: eth
Encoding: 294 240 125
Width: 1452
VWidth: 0
Flags: HW
LayerCount: 2
Fore
SplineSet
418 1390 m 0
 851.630954502 1390 1408 1375.27901736 1408 720 c 0
 1408 248 1060 56 784 40 c 1
 784 44 l 1
 740 44 l 2
 718 44 680 40 654 40 c 0
 634 40 614 40 592 44 c 1
 522 44 l 2
 416 44 310 42 204 40 c 1
 96 40 l 1
 96 252 l 2
 96 374 98 484 98 618 c 1
 80 616 66 616 52 616 c 2
 8 616 l 1
 8 628 l 1
 0 630 -26 634 -32 640 c 1
 -32 700 l 1
 -30 722 -28 742 -28 760 c 0
 -28 776 -32 792 -32 810 c 0
 -32 842 -26 876 4 876 c 2
 96 876 l 1
 96 1372 l 1
 102 1372 114 1370 120 1370 c 0
 218.256420875 1370 318.620661999 1390 418 1390 c 0
650 356 m 2
 860.7552804 356 876 579.307395005 876 724 c 2
 876 796 l 1
 866 848 876 896 848 968 c 1
 848 968 l 1
 794 1076 718 1086 632 1086 c 1
 632 1078.66666667 632 1071.33333333 632 1064 c 1
 600 1064 l 1
 600 1046 604 1008 604 992 c 2
 604 936 l 2
 604 914 600 894 600 876 c 1
 700 876 l 2
 728 876 732 786 732 734 c 2
 732 678 l 2
 732 656 728 630 700 630 c 2
 652 630 l 1
 636 628 620 628 604 628 c 1
 604 540 l 2
 604 456 606 362 620 356 c 1
 650 356 l 2
EndSplineSet
EndChar

StartChar: exclam
Encoding: 33 33 126
Width: 792
VWidth: 0
Flags: HW
LayerCount: 2
Fore
SplineSet
89.7133429741 1461.83445017 m 1
 89.7133429741 1501.83445017 272 1496 260 1496 c 2
 380 1496 l 1
 454 1502 530 1508 616 1508 c 0
 664 1508 706 1500 706 1468 c 1
 634.107364074 557.359944942 l 2
 632.107364074 527.359944942 574 522 516 522 c 0
 490 522 464 524 438 524 c 0
 384 524 334 520 280 520 c 2
 194 520 l 1
 148 536 147.312951912 606.239851722 147.312951912 666.239851722 c 1
 89.7133429741 1461.83445017 l 1
120.683482506 0.0390561432059 m 1
 112 152 l 1
 112 252 126 356 148 356 c 2
 344 356 l 2
 622 356 656 346 656 320 c 2
 656 4 l 1
 646 -44 208 -32 146 -32 c 1
 146 -16 l 1
 140 -10 122.683482506 -5.96094385679 120.683482506 0.0390561432059 c 1
EndSplineSet
EndChar

StartChar: exclamdown
Encoding: 295 161 127
Width: 784
VWidth: 0
Flags: HW
LayerCount: 2
Fore
SplineSet
60 -390 m 1
 86 -174 102 -30 120 270 c 1
 120 416 l 1
 136 604 162 706 186 706 c 1
 186 706 l 1
 304 706 392 708 454 708 c 0
 638 708 610 690 624 548 c 1
 624 490 l 1
 646 256 678 14 692 -220 c 1
 692 -352 l 1
 682 -392 626 -384 586 -390 c 1
 60 -390 l 1
112 876 m 1
 112 1012 l 1
 114 1068 110 1216 144 1216 c 2
 636 1216 l 2
 660 1216 660 1092 660 988 c 2
 660 868 l 1
 650 838 580 836 496 836 c 2
 376 836 l 2
 298 836 222 832 148 830 c 1
 134 844 122 860 112 876 c 1
EndSplineSet
EndChar

StartChar: f
Encoding: 102 102 128
Width: 1126
VWidth: 0
Flags: HW
LayerCount: 2
Fore
SplineSet
88 84 m 1
 88 1352 l 2
 88 1386 116 1384 148 1384 c 2
 1092 1384 l 2
 1124 1384 1118 1356 1118 1344 c 2
 1118 1004 l 1
 650 1004 l 1
 650 968 l 2
 650 946 652 930 654 904 c 1
 748 904 l 1
 782 906 818 916 856 916 c 2
 938 916 l 2
 952 916 966 916 980 918 c 1
 1036 918 1088 902 1092 886 c 1
 1092 828 l 2
 1092 790 1088 750 1088 710 c 2
 1088 620 l 1
 1090 612 1090 602 1090 592 c 2
 1090 552 l 1
 1086 522 1056 520 1028 520 c 2
 964 520 l 2
 896 520 838 516 768 516 c 0
 730.666666667 516 693.333333333 516 656 516 c 1
 656 40 l 1
 114 40 l 1
 88 84 l 1
EndSplineSet
EndChar

StartChar: figuredash
Encoding: 296 8210 129
Width: 858
VWidth: 0
Flags: HW
LayerCount: 2
Fore
SplineSet
36 360 m 1
 36 642 l 2
 36 694 44 744 68 744 c 0
 260 744 446 744 640 746 c 0
 664 746 688 746 712 744 c 1
 780 744 l 1
 804 740 808 676 808 610 c 2
 808 396 l 1
 806 378 802 360 780 360 c 0
 540 360 306 340 72 340 c 1
 72 360 l 1
 36 360 l 1
EndSplineSet
EndChar

StartChar: five
Encoding: 53 53 130
Width: 1468
VWidth: 0
Flags: HW
LayerCount: 2
Fore
SplineSet
68 400 m 1
 68 432 122 436 188 436 c 2
 352 436 l 2
 442 436 522 430 616 430 c 1
 668 424 632 324 708 324 c 0
 798 324 808 434 808 492 c 0
 808 572 800 670 712 670 c 0
 604 670 672 554 596 554 c 2
 152 554 l 1
 124 594 122 632 122 676 c 2
 122 1422 l 2
 122 1460 122 1492 146 1518 c 1
 1246 1518 l 2
 1272 1518 1302 1506 1308 1484 c 1
 1308 1290 l 2
 1308 1128 1310 1118 1266 1118 c 1
 1266 1118 l 1
 1058 1118 842 1116 634 1114 c 1
 628 1052 626 990 620 932 c 1
 690 982 806 1008 902 1008 c 0
 1202 1008 1392 804 1392 524 c 0
 1392 90 1040 -58 720 -58 c 0
 432 -58 108 10 68 400 c 1
EndSplineSet
EndChar

StartChar: florin
Encoding: 297 402 131
Width: 1496
VWidth: 0
Flags: HW
LayerCount: 2
Fore
SplineSet
1126 1152 m 1
 1126 1154.66666667 1126 1157.33333333 1126 1160 c 1
 1091.55781976 1160 1040.56776441 1100 1032 1100 c 1
 1032 916 l 1
 1092 902 1126 908 1180 896 c 1
 1180 896 l 1
 1196 896 1222 894 1228 880 c 1
 1228 580 l 2
 1228 492.201124456 1030.89369594 524.737919993 954 516 c 1
 910 276 l 1
 854.216856222 -84.0548371138 812.39654266 -432 410 -432 c 0
 394 -432 88 -420 88 -356 c 0
 88 -334 94 -330 100 -286 c 1
 100 -226 l 1
 112 -140 142 -28 166 -28 c 0
 172 -28 184 -32 186 -34 c 1
 192 -26 194 -18 202 -10 c 1
 202 -38 l 1
 224 -48 236 -52 252 -52 c 0
 304 -52 326 -2 340 56 c 1
 366 200 386 350 412 504 c 1
 388 504 l 2
 336 504 284 510 232 512 c 1
 202 556 l 1
 202 586 200 648 200 714 c 0
 200 798 204 898 242 908 c 1
 322 916 402 926 476 936 c 1
 476 980 l 1
 540 1460 708 1540 982 1540 c 0
 1040 1540 1280 1538 1302 1480 c 1
 1248.56667535 1133.75205627 l 1
 1242.56667535 1133.75205627 1208 1136 1200 1138 c 1
 1148 1138 l 1
 1140 1140 1132 1152 1126 1152 c 1
EndSplineSet
EndChar

StartChar: four
Encoding: 52 52 132
Width: 1432
VWidth: 0
Flags: HW
LayerCount: 2
Fore
SplineSet
-8 248 m 1
 -8 548 l 2
 -8 658 78 788 128 874 c 1
 253.973083269 1075.36025006 380.934610877 1295.73205579 508 1496 c 1
 1260 1496 l 1
 1260 1432 l 2
 1260 1246 1252 1064 1252 878 c 2
 1252 832 l 2
 1252 816 1252 800 1254 784 c 1
 1254 776 l 2
 1254 766 1254 754 1252 744 c 1
 1252 708 l 2
 1252 672 1258 634 1296 634 c 0
 1322 634 1354 636 1380 636 c 0
 1422 636 1432 630 1432 576 c 0
 1432 574 1430 572 1428 572 c 1
 1428 554 1434 442 1434 336 c 0
 1434 248 1430 212 1400 212 c 2
 1260 212 l 1
 1262 150 1264 90 1264 32 c 0
 1264 -4 1264 -24 1224 -28 c 1
 1030 -28 l 2
 922 -28 818 -26 706 -34 c 1
 672 8 l 1
 672 226 l 1
 56 226 l 2
 28 226 8 216 -8 248 c 1
406 628 m 1
 406 602 l 1
 408 592 424 584 430 576 c 1
 430 576 l 1
 520 576 626 582 714 582 c 1
 732 590 738 600 744 618 c 1
 744 656 l 1
 742 666 742 678 742 692 c 0
 742 698 744 770 744 854 c 0
 744 978 738 1140 704 1140 c 1
 704 1124 l 1
 610.671510231 959.328489769 497.989244321 794.010755679 406 628 c 1
EndSplineSet
EndChar

StartChar: fraction
Encoding: 298 8260 133
Width: 550
VWidth: 0
Flags: HW
LayerCount: 2
Fore
SplineSet
-252 2 m 1
 -79.7829133447 318.449580011 87.029497071 640.303836262 256 960 c 2
 569.336834651 1550.71698336 l 1
 641.336834651 1550.71698336 720 1542 792 1542 c 1
 792 1544 l 1
 808 1544 814 1534 820 1532 c 1
 609.936397973 1138.06360203 407.915895173 736.084104827 204 336 c 1
 0 -60 l 2
 -8 -76 -20 -80 -36 -82 c 1
 -46 -82 -56 -80 -70 -80 c 0
 -124 -80 -176 -82 -224 -82 c 1
 -224 -40 l 1
 -252 2 l 1
EndSplineSet
EndChar

StartChar: g
Encoding: 103 103 134
Width: 1502
VWidth: 0
Flags: HW
LayerCount: 2
Fore
SplineSet
1420 132 m 1
 1401.70767983 49.6845592339 945.825770705 12 830 12 c 0
 664 12 448 20 268 162 c 1
 226 198 l 1
 212 208 202 220 192 234 c 2
 160 276 l 1
 80 402 40 540 40 716 c 0
 40 870 78 1018 166 1140 c 1
 194 1174 l 1
 194 1188 l 1
 194 1186 l 1
 344 1378 600 1416 788 1416 c 0
 932.407075451 1416 1213.94405784 1369.27831902 1332 1204 c 1
 1378.6455971 1141.80587054 1377.80678076 1060.77287696 1400 972 c 1
 1400 942 1354 938 1336 938 c 2
 1254 938 l 2
 1190 938 1096 944 1002 944 c 2
 892 944 l 1
 867.560334596 952.146555135 866.797115193 986.270513077 852 1006 c 1
 852 1004 l 1
 842 1026 820 1044 772 1044 c 0
 628 1044 614 892 614 776 c 0
 614 750 616 722 616 704 c 2
 616 628 l 2
 616 528 628 396 792 396 c 0
 850 396 896 398 946 414 c 1
 946 458 l 2
 946 474 944 484 944 500 c 0
 944 506 946 514 946 524 c 1
 908 524 l 2
 894 524 882 522 872 522 c 2
 788 522 l 1
 754 560 l 1
 752 570 752 580 752 590 c 2
 752 652 l 2
 752 678 754 700 754 730 c 2
 754 758 l 2
 754 764 756 770 756 780 c 2
 756 788 l 2
 756 812 764 824 790 840 c 1
 884 840 l 2
 894 840 904 838 914 836 c 1
 1004 836 l 1
 1054 834 1110 832 1152 832 c 2
 1248 832 l 2
 1326 832 1406 826 1428 804 c 1
 1428 612 1420 412 1420 220 c 2
 1420 132 l 1
EndSplineSet
EndChar

StartChar: germandbls
Encoding: 223 223 135
Width: 1558
VWidth: 0
Flags: HW
LayerCount: 2
Fore
SplineSet
720 1544 m 0
 1017.68692829 1544 1424 1494.62667868 1424 1164 c 1
 1426 1070 1380 990 1314 928 c 2
 1268 884 l 1
 1234 858 1214 834 1214 812 c 0
 1214 770 1326 734 1380 692 c 1
 1504 614 1580 520 1580 340 c 0
 1580 36 1282 -64 1070 -64 c 0
 948 -64 796 -52 700 34 c 1
 700 32 l 1
 640 86 618 148 606 212 c 1
 606 196 608 154 608 112 c 0
 608 48 602 -18 592 -18 c 1
 590 -16 588 -16 586 -16 c 0
 538 -22 492 -22 446 -22 c 0
 344 -22 244 -18 148 -18 c 2
 116 -18 l 2
 106 -18 96 -18 88 -20 c 1
 78 -18 72 -12 72 -4 c 2
 72 0 l 2
 72 230 68 466 68 712 c 2
 68 852 l 2
 68 1010 46 1244 170 1364 c 0
 300 1490 498 1544 720 1544 c 0
606 988 m 2
 606 384 l 1
 980 384 l 1
 1044 378 992 282 1040 280 c 0
 1048 280 1054 284 1060 284 c 1
 1060 284 l 1
 1066 298 1072 310 1072 320 c 0
 1072 464 664 528 664 790 c 0
 664 874 706 956 772 1010 c 0
 814 1044 900 1088 900 1152 c 0
 900 1216 844 1236 788 1236 c 0
 636 1236 606 1098 606 988 c 2
1046 276 m 1
 1046 276 l 1
 1046 276 l 1
EndSplineSet
EndChar

StartChar: grave
Encoding: 96 96 136
Width: 632
VWidth: 0
Flags: HW
LayerCount: 2
Fore
SplineSet
-128 1756 m 0
 -128 1766 -120 1780 -104 1788 c 1
 40 1778 180 1772 324 1772 c 2
 364 1772 l 1
 374 1770 392 1746 416 1708 c 0
 460.031469217 1635.36480255 504.417426116 1563.08409278 550 1492 c 1
 550 1470 l 1
 564 1450 596 1422 596 1408 c 0
 596 1374 556 1376 516 1376 c 2
 192 1376 l 1
 125.527130045 1456.19379671 57.3212274538 1530.65456079 -12 1608 c 1
 -54 1652 l 1
 -96 1694 -128 1734 -128 1756 c 0
EndSplineSet
EndChar

StartChar: greater
Encoding: 62 62 137
Width: 1268
VWidth: 0
Flags: HW
LayerCount: 2
Fore
SplineSet
1184 456 m 0
 1184 413.861376934 1180.43455621 376 1154 376 c 1
 812.131307102 235.314666131 476.082554765 76.0275182549 122 -42 c 1
 78 4 l 1
 78 46 78 88 80 128 c 1
 80 252 l 1
 82 278 216 338 362 392 c 2
 732.191281957 531.492367114 l 1
 524.628793328 616.646208603 320.037315105 711.987561632 104 784 c 1
 94 790 92 810 92 832 c 2
 92 860 l 2
 92 876 90 914 90 956 c 0
 90 1020 94.2032396965 1082.52934181 110.203239697 1082.52934181 c 1
 1163.57075251 678.091055977 l 2
 1187.57075251 668.091055977 1184 530 1184 456 c 0
EndSplineSet
EndChar

StartChar: greaterequal
Encoding: 299 8805 138
Width: 1354
VWidth: 0
Flags: HW
LayerCount: 2
Fore
SplineSet
116 -52 m 1
 116 230 l 1
 1212 230 l 1
 1230 228 1242 226 1244 208 c 1
 1244 -32 l 1
 1208 -84 l 1
 116 -52 l 1
104 1484 m 1
 160 1536 l 1
 1253.89504756 1020.50956943 l 1
 1247.77151581 747.825478913 l 1
 120 260.402615651 l 1
 120 540 l 1
 370 676 654 788 920 884 c 1
 104 1200 l 1
 104 1484 l 1
EndSplineSet
EndChar

StartChar: guillemotleft
Encoding: 300 171 139
Width: 1334
VWidth: 0
Flags: HW
LayerCount: 2
Fore
SplineSet
-20.4664707223 506.671962608 m 1
 332.897023393 1044 l 1
 756 1044 l 1
 756 1020 742 964 724 932 c 2
 696 880 l 1
 627.933910311 771.094256497 583.708360386 637.522546245 530 520 c 1
 756 12 l 1
 756 -18 666 -20 594 -20 c 2
 536 -20 l 1
 470 -22 412 -24 350 -24 c 0
 334 -24 326 -22 320 2 c 1
 210.76501678 165.431683447 86.2036886225 340.675455286 -20.4664707223 506.671962608 c 1
587.329861735 504.044532232 m 1
 920 1028 l 2
 930 1042 960 1044 990 1044 c 2
 1012 1044 l 2
 1082 1044 1150 1046 1220 1046 c 0
 1262 1046 1358 1058 1364 1014 c 1
 1252 770 l 2
 1212 684 1176 602 1136 524 c 1
 1136 510.666666667 1136 497.333333333 1136 484 c 1
 1168 406 1216 328 1254 246 c 2
 1360 12 l 1
 1360 -20 1322 -24 1284 -24 c 2
 916 -24 l 1
 811.952938288 145.286271621 693.945946862 337.327284027 587.329861735 504.044532232 c 1
EndSplineSet
EndChar

StartChar: guillemotright
Encoding: 301 187 140
Width: 1332
VWidth: 0
Flags: HW
LayerCount: 2
Fore
SplineSet
755.664390107 521.389151768 m 1
 442 0 l 1
 418 -12 346 -16 300 -16 c 2
 260 -16 l 1
 196 -22 136 -24 72 -24 c 0
 38 -24 0 -18 0 4 c 0
 0 30 26 88 48 130 c 1
 107.835062791 250.831603875 156.635125366 382.698207968 212 508 c 1
 -2.99550929041 1022.74886359 l 1
 -2.99550929041 1040.74886359 24 1050 60 1050 c 0
 148 1050 422 1064 436 1028 c 1
 755.664390107 521.389151768 l 1
570 0 m 1
 637.100497601 174.899502399 725.486710802 351.685513779 795.895580886 523.276643695 c 1
 569.111898618 1018.67789137 l 1
 569.111898618 1040.67789137 610 1044 650 1044 c 2
 700 1044 l 2
 772 1044 842 1046 912 1046 c 2
 952 1046 l 1
 1014 1034 1004 1046 1050 972 c 0
 1106.3974714 881.064138071 1162.39687258 789.730205909 1218 698 c 0
 1244 654 1338.8716763 541.465895954 1338.8716763 501.465895954 c 1
 1104.56647399 170.682080925 l 1
 1012 -4 l 1
 996 -20 946 -20 892 -20 c 2
 792 -20 l 1
 770 -22 752 -24 732 -24 c 0
 726 -24 718 -22 710 -22 c 2
 628 -22 l 2
 602 -22 570 -22 570 0 c 1
EndSplineSet
EndChar

StartChar: guilsinglleft
Encoding: 302 8249 141
Width: 734
VWidth: 0
Flags: HW
LayerCount: 2
Fore
SplineSet
-5.61140315406 512.334411646 m 1
 226 916 l 1
 266 978 300 1032 328 1042 c 1
 658 1042 l 2
 696 1042 738 1038 742 1016 c 1
 514.139529107 490.004333545 l 1
 764.310054315 16.619401631 l 1
 764.310054315 -1.38059836897 738 -24 716 -24 c 0
 698 -24 682 -22 660 -22 c 0
 602 -22 546 -24 492 -26 c 1
 324 -26 l 1
 300 -16 274 14 252 56 c 2
 116.972749483 302.906972374 l 1
 50 380 l 1
 14 430 -5.61140315406 480.334411646 -5.61140315406 512.334411646 c 1
EndSplineSet
EndChar

StartChar: guilsinglright
Encoding: 303 8250 142
Width: 730
VWidth: 0
Flags: HW
LayerCount: 2
Fore
SplineSet
-16.6888600011 1017.96303623 m 1
 -16.6888600011 1039.96303623 22 1044 60 1044 c 2
 370 1044 l 1
 394 1040 418 1052 438 1018 c 0
 511.758269094 893.091602428 587.142078279 769.808744945 664 648 c 2
 747.884598309 516.124309342 l 1
 413.407289623 -23.0761796593 l 1
 260 -16 l 1
 202 -22 166 -24 80 -24 c 0
 34 -24 -14.1182652233 -19.1442208498 -14.1182652233 0.855779150218 c 1
 190.880546556 540.161760758 l 1
 -16.6888600011 1017.96303623 l 1
EndSplineSet
EndChar

StartChar: h
Encoding: 104 104 143
Width: 1484
VWidth: 0
Flags: HW
LayerCount: 2
Fore
SplineSet
1380 1334 m 2
 1380 104 l 2
 1380 70 1378 36 1350 36 c 2
 840 36 l 1
 840 58 l 1
 834 64 814 70 808 80 c 1
 808 484 l 2
 808 514 808 512 776 512 c 2
 708 512 l 2
 690 512 668 510 652 508 c 1
 652 76 l 1
 646 50 628 48 602 48 c 2
 556 48 l 2
 460 48 358 44 256 44 c 2
 124 44 l 2
 104 44 80.6852133656 52.0060869752 80.6852133656 92.0060869752 c 2
 86.5187217352 1352.04389481 l 2
 86.5187217352 1362.04389481 102 1370 112 1378 c 1
 650 1378 l 1
 650 948 l 1
 824 948 l 1
 824 1388 l 1
 1334 1388 l 2
 1364 1388 1380 1380 1380 1334 c 2
EndSplineSet
EndChar

StartChar: hungarumlaut
Encoding: 304 733 144
Width: 774
VWidth: 0
Flags: HW
LayerCount: 2
Fore
SplineSet
-246 1400 m 1
 -29.3534596234 1767.15887369 l 1
 190 1764 l 2
 238.154738073 1762.88012237 469.678872281 1762.00026829 469.678872281 1727.00581445 c 1
 212 1434 l 1
 136 1350 118 1362 0 1358 c 1
 -218 1358 l 1
 -224 1366 -240 1392 -246 1400 c 1
340.032627602 1351.75433335 m 1
 334.422528401 1360.16948215 316.638086661 1371.06718332 312.935257732 1382.1756701 c 1
 527.559587629 1760 l 1
 1006 1760 l 1
 1020 1758 1026 1744 1026 1734 c 1
 1024 1732 1024 1730 1024 1728 c 1
 929.257077241 1617.40958943 835.398940475 1505.93439286 740 1396 c 1
 708 1366 l 1
 702 1366 698.195765609 1372.52600012 692.195765609 1398.52600012 c 1
 340.032627602 1351.75433335 l 1
EndSplineSet
EndChar

StartChar: hyphen
Encoding: 45 45 145
Width: 858
VWidth: 0
Flags: HW
LayerCount: 2
Fore
SplineSet
36 360 m 1
 36 642 l 2
 36 694 44 744 68 744 c 0
 260 744 446 744 640 746 c 0
 664 746 688 746 712 744 c 1
 780 744 l 1
 804 740 808 676 808 610 c 2
 808 396 l 1
 806 378 802 360 780 360 c 0
 540 360 306 340 72 340 c 1
 72 360 l 1
 36 360 l 1
EndSplineSet
EndChar

StartChar: i
Encoding: 105 105 146
Width: 744
VWidth: 0
Flags: HW
LayerCount: 2
Fore
SplineSet
72 38 m 1
 72 1352 l 1
 74 1366 96 1366 106 1376 c 1
 644 1376 l 1
 644 74 l 1
 638 48 634 38 620 38 c 2
 72 38 l 1
EndSplineSet
EndChar

StartChar: infinity
Encoding: 305 8734 151
Width: 1810
VWidth: 0
Flags: HW
LayerCount: 2
Fore
SplineSet
100 606 m 0
 100 828 254 1042 520 1042 c 0
 700 1042 816 924 916 756 c 1
 1012 926 1172 1048 1320 1048 c 0
 1582 1048 1704 818 1720 624 c 1
 1720 620 l 2
 1720 346 1536 168 1292 168 c 0
 1114 168 990 288 904 442 c 1
 818 314 686 184 564 184 c 2
 516 184 l 2
 272 184 100 376 100 606 c 0
512 376 m 2
 540 376 l 2
 624 376 720 494 804 632 c 1
 722 760 634 838 514 844 c 1
 372 844 284 726 284 604 c 0
 284 480 378 376 512 376 c 2
980 628 m 1
 1066 476 1180 376 1320 376 c 0
 1468 376 1580 474 1580 626 c 1
 1564 740 1490 860 1336 860 c 0
 1218 860 1078 770 980 628 c 1
EndSplineSet
EndChar

StartChar: integral
Encoding: 306 8747 152
Width: 986
VWidth: 0
Flags: HW
LayerCount: 2
Fore
SplineSet
988 1840 m 1
 981.631943507 1786.31685178 973.702277872 1532 926 1532 c 1
 926 1532 l 1
 926 1528 918 1528 916 1528 c 0
 908.144762876 1528 899.806850668 1530.69885822 892 1532 c 1
 886 1530 880 1528 878 1526 c 1
 878 1532 880 1534 880 1540 c 1
 858 1546 838 1552 816 1552 c 0
 682 1552 680 1388 680 1212 c 0
 680 854 724 526 724 216 c 0
 724 -106.674716199 595.413874284 -416 240 -416 c 0
 182 -416 20 -400 20 -360 c 1
 62.64 -61.52 l 1
 88.64 -61.52 142 -80 180 -80 c 0
 318 -80 328 92 328 228 c 0
 328 304 322 324 322 436 c 2
 322 456 l 1
 320 530 316 604 310 674 c 1
 310 880 l 1
 300 1018 274 1150 274 1292 c 0
 274 1674 446 1900 798 1900 c 0
 866 1900 946 1894 988 1840 c 1
EndSplineSet
EndChar

StartChar: j
Encoding: 106 106 153
Width: 1228
VWidth: 0
Flags: HW
LayerCount: 2
Fore
SplineSet
1136 480 m 2
 1136 175.404846509 819.880481313 20 580 20 c 2
 548 20 l 2
 532 20 516 18 500 18 c 0
 296 18 172 76 86 168 c 1
 86 166 l 1
 12 246 -24 332 -24 444 c 2
 -24 480 l 2
 -24 506 -22 524 4 524 c 2
 76 524 l 2
 186 524 296 528 406 528 c 0
 510 528 432 412 512 412 c 0
 574 412 558 490 566 532 c 1
 566 598 l 2
 566 780 570 958 570 1144 c 2
 570 1208 l 2
 570 1230 568 1246 568 1268 c 2
 568 1328 l 2
 568 1358 572 1372 600 1384 c 1
 1070 1384 l 2
 1104 1384 1130 1380 1136 1356 c 1
 1136 480 l 2
572 530 m 1
 568 530 l 1
 568 536 578 536 572 536 c 1
 572 530 l 1
EndSplineSet
EndChar

StartChar: k
Encoding: 107 107 154
Width: 1470
VWidth: 0
Flags: HW
LayerCount: 2
Fore
SplineSet
112 36 m 1
 105.016078779 47.6398687022 95.7475889497 62.5048221006 88 78 c 1
 88 1392 l 1
 530 1392 l 2
 564 1392 634 1400 644 1350 c 1
 644 906 l 1
 705.037271433 1028.96272857 763.276221128 1152.72377887 824 1276 c 1
 873.37541775 1381.48384701 l 1
 968 1384 l 1
 1008 1384 1050 1380 1088 1380 c 2
 1164 1380 l 2
 1180 1380 1196 1382 1210 1382 c 2
 1268 1382 l 1
 1268 1382 1272 1382 1282 1384 c 1
 1326 1384 1444 1384 1444 1360 c 0
 1444 1358 1438 1338 1426 1322 c 1
 1312.08561225 1141.65248439 1215.40367364 939.854229226 1094.83807243 764.486082011 c 1
 1485.89105058 90.2568093385 l 1
 1485.89105058 72.2568093385 1488 56 1472 44 c 1
 1378 50 1288 50 1192 50 c 0
 1142 50 1088 48 1038 48 c 2
 902 48 l 1
 902 76 l 1
 858 150 798 226 756 306 c 2
 644 520 l 1
 644 76 l 1
 632 42 584 36 534 36 c 2
 112 36 l 1
EndSplineSet
EndChar

StartChar: l
Encoding: 108 108 155
Width: 1126
VWidth: 0
Flags: HW
LayerCount: 2
Fore
SplineSet
106 40 m 1
 96.6949520545 52.406730594 96.7482670924 44.4027726521 82 68 c 1
 82 500 l 2
 82 672 96 848 96 1028 c 0
 96 1074 88 1146 88 1216 c 0
 88 1296 98 1366 122 1388 c 1
 226 1386 326 1384 432 1384 c 2
 528 1384 l 2
 544 1384 562 1384 580 1382 c 1
 582 1384 586 1384 590 1384 c 1
 590 1384 l 1
 596 1384 616 1380 632 1380 c 1
 632 1380 l 1
 648 1378 660 1370 674 1338 c 1
 674 1324 l 2
 674 1302 672 1282 672 1260 c 2
 672 1216 l 1
 670 1204 648 1192 648 1178 c 2
 648 448 l 1
 1072 448 l 2
 1096 448 1120 448 1120 414 c 2
 1120 80 l 1
 1114 48 1072 40 1024 40 c 2
 106 40 l 1
EndSplineSet
EndChar

StartChar: less
Encoding: 60 60 156
Width: 1270
VWidth: 0
Flags: HW
LayerCount: 2
Fore
SplineSet
78 454 m 0
 78 480 80 506 80 532 c 0
 80 550 78 572 78 590 c 0
 78 632 84 668 116 700 c 1
 1144.885396 1090.93349075 l 1
 1174.885396 1090.93349075 1180 1050 1180 1000 c 0
 1180 928 1186 798 1160 780 c 1
 512 524 l 1
 713.925041394 444.591708061 917.895195689 367.228529022 1124 292 c 0
 1174 274 1184 266 1184 148 c 0
 1184 52 1186 -36 1146 -36 c 0
 1142 -36 1138 -36 1132 -34 c 0
 829.930739604 87.264072937 525.926488885 206.593155552 220 324 c 1
 158 344 78 358 78 454 c 0
EndSplineSet
EndChar

StartChar: lessequal
Encoding: 307 8804 157
Width: 1352
VWidth: 0
Flags: HW
LayerCount: 2
Fore
SplineSet
112 736 m 1
 112.526564454 1020.77437584 l 1
 1234.73555978 1502.90861087 l 1
 1242.95890154 1196.2402338 l 1
 444 884 l 1
 1263.03897891 555.552896781 l 1
 1249.85989848 265.16142132 l 1
 112 736 l 1
116 -72 m 1
 116 236 l 1
 292 226 480 220 656 220 c 0
 848 220 1038 226 1226 238 c 1
 1246 236 1258 226 1260 208 c 1
 1260 -32 l 1
 1232 -72 l 1
 116 -72 l 1
EndSplineSet
EndChar

StartChar: logicalnot
Encoding: 308 172 158
Width: 1282
VWidth: 0
Flags: HW
LayerCount: 2
Fore
SplineSet
96 634 m 0
 96 690 100 742 100 800 c 0
 100 832 98 860 98 892 c 0
 98 906 102 914 108 916 c 1
 116 916 120 916 122 914 c 1
 474 914 816 926 1158 926 c 1
 1176 924 1186 918 1194 908 c 1
 1194 256 l 1
 1188 230 1188 220 1156 220 c 2
 1096 220 l 2
 1024 220 954 216 880 216 c 1
 844 260 l 1
 844 592 l 1
 116 592 l 1
 102 598 96 612 96 634 c 0
EndSplineSet
EndChar

StartChar: lozenge
Encoding: 309 9674 159
Width: 1592
VWidth: 0
Flags: HW
LayerCount: 2
Fore
SplineSet
156 752 m 1
 328 1012 488 1288 632 1564 c 1
 750 1570 850 1572 952 1572 c 1
 1422 732 l 1
 946 -74 l 1
 634 -74 l 1
 156 752 l 1
493.147102526 757.468053492 m 1
 793.093610698 182.570579495 l 1
 821.093610698 186.570579495 862 286 884 328 c 0
 957.846086468 462.820580199 1038.47500903 603.25045575 1115.8298542 734.562277251 c 1
 960 1002 l 2
 904 1098 846 1198 816 1284 c 1
 814 1306 802.730811628 1309.7669089 792.730811628 1311.7669089 c 1
 493.147102526 757.468053492 l 1
760 1268 m 1
 760 1272 l 1
 760 1268 l 1
EndSplineSet
EndChar

StartChar: lslash
Encoding: 310 322 160
Width: 1128
VWidth: 0
Flags: HW
LayerCount: 2
Fore
SplineSet
-131.954722997 718.62128338 m 1
 96 816 l 1
 96 1216 l 2
 96 1296 98 1366 124 1388 c 1
 228 1386 328 1384 432 1384 c 2
 528 1384 l 2
 544 1384 562 1384 580 1382 c 1
 582 1384 586 1384 592 1384 c 1
 592 1384 l 1
 598 1384 616 1380 632 1380 c 1
 632 1380 l 1
 648 1378 660 1370 676 1338 c 1
 676 1324 l 2
 676 1302 674 1282 672 1260 c 1
 672 1216 l 1
 668 1192 672 1162 668 1136 c 1
 668 1068 l 1
 744 1104 l 1
 774 1114 822 1146 840 1146 c 0
 864 1146 878 1106 906 1052 c 1
 938 972 l 1
 945.437372425 943.38986825 l 1
 652 812 l 1
 652 762 l 1
 650 720 650 676 650 634 c 2
 650 576 l 2
 650 534 648 486 646 448 c 1
 1072 448 l 2
 1096 448 1122 448 1122 414 c 2
 1122 80 l 1
 1116 48 1074 40 1026 40 c 2
 108 40 l 1
 84 68 l 1
 84 558 l 1
 -12 512 l 1
 -42 516 -56 506 -70 550 c 1
 -82.7528504697 580.580482864 -95.8125035725 610.854163094 -108 642 c 1
 -118 664 -131.954722997 702.62128338 -131.954722997 718.62128338 c 1
EndSplineSet
EndChar

StartChar: m
Encoding: 109 109 161
Width: 1972
VWidth: 0
Flags: HW
LayerCount: 2
Fore
SplineSet
820 1372 m 1
 831.978080145 1375.99269338 850.331634276 1375.73331236 862.363238512 1378.40700219 c 1
 980.993586358 769.078397344 l 1
 1136.76887765 1380.31375548 l 1
 1839.99336352 1379.58612392 l 2
 1863.99336352 1379.58612392 1868 1322 1868 1262 c 2
 1868 84 l 1
 1862 38 1824 40 1792 40 c 1
 1792 40 l 1
 1666 40 1536 36 1408 36 c 1
 1366 62 1358 164 1358 266 c 0
 1358 362 1362 434 1362 516 c 2
 1362 604 l 2
 1362 618 1360 634 1360 650 c 0
 1360 686 1362 722 1364 760 c 1
 1364 684 l 1
 1336 566 1284 442 1256 324 c 2
 1196 68 l 1
 1182 44 1138 40 1096 40 c 0
 1016 40 960 44 890 44 c 1
 890 44 l 1
 872 44 840 42 826 42 c 0
 786 42 768 48 760 82 c 0
 715.898343041 277.898343041 671.454185542 473.454185542 630 672 c 2
 594 844 l 1
 584 636 580 442 580 228 c 2
 580 52 l 1
 108 52 l 1
 108 62 114 94 114 100 c 0
 108 244 106 412 106 574 c 0
 106 734 104 878 104 996 c 2
 104 1350 l 2
 104 1366 106 1372 128 1388 c 1
 220 1388 l 2
 242 1388 270 1388 292 1390 c 1
 472 1390 624 1372 718 1372 c 2
 820 1372 l 1
842 1376 m 1
 842 1376 l 1
 842 1376 l 1
1364 766 m 1
 1364 768 l 1
 1364 766 l 1
EndSplineSet
EndChar

StartChar: middot
Encoding: 183 183 162
Width: 790
VWidth: 0
Flags: HW
LayerCount: 2
Fore
SplineSet
112 504 m 1
 154 592 144 788 384 788 c 2
 428 788 l 2
 550 788 664 648 664 520 c 0
 664 360 544 234 396 234 c 0
 230 234 122 368 112 504 c 1
EndSplineSet
EndChar

StartChar: minus
Encoding: 311 8722 163
Width: 1272
VWidth: 0
Flags: HW
LayerCount: 2
Fore
SplineSet
82 456 m 0
 82 466 82 478 84 492 c 1
 84 580 l 2
 84 614 88 648 106 674 c 1
 106 674 l 1
 112 672 136 672 142 672 c 0
 386 656 620 646 868 646 c 2
 904 646 l 1
 946 650 988 648 1028 650 c 1
 1148 650 l 2
 1164 650 1172 608 1172 556 c 2
 1172 392 l 2
 1172 366 1168 340 1142 340 c 2
 868 340 l 1
 614 336 372 320 118 320 c 1
 84 356 l 1
 82 378 80 402 80 426 c 0
 80 436 82 446 82 456 c 0
EndSplineSet
EndChar

StartChar: multiply
Encoding: 215 215 164
Width: 1282
VWidth: 0
Flags: HW
LayerCount: 2
Fore
SplineSet
145.115311469 270.824296526 m 1
 404 532 l 1
 146.744825617 796.896417186 l 1
 146.744825617 806.896417186 164 828 178 844 c 1
 214.151722325 880.204542374 318.427819553 1028.03075015 384.094730316 1028.03075015 c 1
 644 764 l 1
 915.648694308 1036.98046655 l 1
 1129.96771753 807.708953342 l 1
 1129.96771753 801.708953342 1118 790 1108 782 c 0
 1052.50245459 730.830878744 1000.16225354 676.504413131 946 624 c 1
 862 538 l 1
 1139.92930273 267.929302732 l 1
 916.405469679 44.3757431629 l 1
 651.873047859 296.002015113 l 1
 397.001511335 49.0952141058 l 1
 373.001511335 49.0952141058 326 74 300 104 c 1
 270.188023246 132.763983843 145.115311469 231.357137617 145.115311469 270.824296526 c 1
EndSplineSet
EndChar

StartChar: n
Encoding: 110 110 165
Width: 1548
VWidth: 0
Flags: HW
LayerCount: 2
Fore
SplineSet
1416 1376 m 1
 1457.42304882 1360.46635669 1438 1093.7266786 1438 1036 c 1
 1436 996 1436 958 1436 924 c 2
 1436 818 l 2
 1436 682 1440 566 1440 446 c 2
 1440 82 l 1
 1436 50 1406 48 1384 48 c 2
 824 48 l 1
 814 50 794 86 778 132 c 0
 711.535853867 318.677944191 638.118606612 504.208598181 580 696 c 1
 580 702 l 1
 580 696 l 1
 574 562 574 432 568 304 c 1
 568 100 l 2
 568 64 566 50 524 40 c 1
 112 40 l 1
 68 84 l 1
 78 416 74 788 84 1128 c 1
 84 1344 l 1
 88 1358 92 1380 108 1380 c 1
 108 1376 l 1
 246 1376 396 1384 540 1384 c 2
 708 1384 l 1
 724 1378 732 1376 732 1360 c 1
 812.852009897 1144.8520099 887.153369488 923.153369488 964 704 c 1
 964 852 l 1
 974 1028 984 1186 984 1352 c 0
 984 1376 1028 1376 1074 1376 c 2
 1416 1376 l 1
EndSplineSet
EndChar

StartChar: nine
Encoding: 57 57 167
Width: 1456
VWidth: 0
Flags: HW
LayerCount: 2
Fore
SplineSet
628 388 m 1
 635.230311832 351.848440838 642.150929489 326 700 326 c 0
 828 326 836 488 842 588 c 1
 772 546 676 524 592 524 c 0
 328 524 42 656 42 984 c 0
 42 1384 398 1540 712 1540 c 0
 1152.11847516 1540 1408 1225.77045621 1408 782 c 0
 1408 574 1378 364 1254 192 c 1
 1106 -30 806 -68 612 -68 c 0
 480 -68 354 -40 248 52 c 1
 144 130 104 266 104 390 c 1
 140 434 l 1
 592 434 l 2
 616 434 628 410 628 388 c 1
520 988 m 1
 530 870 576 796 692 796 c 0
 824 796 852 902 852 996 c 0
 852 1104 826 1212 692 1212 c 0
 560 1212 520 1094 520 988 c 1
EndSplineSet
EndChar

StartChar: notequal
Encoding: 313 8800 168
Width: 1350
VWidth: 0
Flags: HW
LayerCount: 2
Fore
SplineSet
104 1004 m 1
 178 998 266 998 340 998 c 0
 466 998 574 1004 700 1004 c 1
 800 1232 l 1
 810 1248 822 1250 838 1250 c 1
 1028 1168 l 1
 1052 1124 l 1
 998 1004 l 1
 1080 1004 l 1
 1106 1006 1134 1002 1162 1002 c 2
 1192 1002 l 1
 1202 1004 1212 1004 1220 1004 c 0
 1242 1002 1250 992 1256 968 c 1
 1256 736 l 1
 1250 714 1242 710 1220 710 c 2
 868 710 l 1
 777.557219892 501.588376273 l 1
 1222 504 l 2
 1236 504 1246 492 1248 478 c 1
 1248 398 1246 324 1246 246 c 1
 1244 224 1208 220 1176 220 c 0
 1034 220 896 228 752 228 c 0
 718 228 682 228 648 226 c 1
 534.930959827 -30.5797450084 l 1
 313.440795386 69.4807971526 l 1
 384 228 l 1
 336 228 l 1
 322 226 308 226 292 226 c 0
 250 226 210 228 168 228 c 0
 162 228 154 226 144 226 c 0
 128 226 112 228 112 244 c 0
 112 318 110 396 110 474 c 0
 110 500 150 506 194 506 c 0
 302 506 392 500 496 498 c 1
 588 716 l 1
 104 716 l 1
 104 1004 l 1
EndSplineSet
EndChar

StartChar: numbersign
Encoding: 35 35 170
Width: 1548
VWidth: 0
Flags: HW
LayerCount: 2
Fore
SplineSet
224 440 m 0
 224 490 226 562 226 632 c 0
 226 664 258 668 296 668 c 2
 412 668 l 1
 412 812 l 1
 356 812 288 812 288 848 c 0
 288 922 292 1000 292 1078 c 0
 292 1110 352 1114 406 1114 c 0
 436 1114 467.481913652 1111.24387398 475.481913652 1111.24387398 c 1
 521.745624271 1446.65577596 l 1
 527.745624271 1508.65577596 558 1510 680 1510 c 2
 748 1510 l 2
 790 1510 818 1506 826 1480 c 1
 804 1354 794 1228 772 1102 c 1
 870 1102 l 1
 870 1252 l 1
 880 1362 912 1478 936 1502 c 1
 1176 1502 l 2
 1198 1502 1210 1502 1210 1478 c 1
 1162 1104 l 1
 1284 1104 l 1
 1306 1102 1308 1066 1308 1032 c 2
 1308 860 l 2
 1308 826 1248 818 1196 818 c 0
 1162 818 1132 822 1126 822 c 1
 1118 768 1114 718 1106 664 c 1
 1254 664 l 1
 1254 400 l 1
 1252 386 1246 378 1232 378 c 0
 1180 378 1130 382 1074 382 c 1
 1052 200 l 2
 1044 134 1076 -28 932 -28 c 0
 916 -28 886 -30 848 -30 c 0
 786 -30 724 -24 718 8 c 1
 734 122 744 240 764 368 c 1
 750 366 738 366 724 366 c 2
 684 366 l 1
 652 84 l 1
 642 28 648 -34 572 -34 c 0
 498 -34 422 -32 350 -30 c 1
 320 16 l 1
 368 364 l 1
 344 364 l 2
 238 364 224 364 224 440 c 0
668 648 m 1
 668 632 672 620 688 620 c 2
 844 620 l 1
 880 840 l 1
 878 858 868 868 852 868 c 2
 804 868 l 1
 788 870 774 872 760 872 c 2
 716 872 l 1
 716 846 l 1
 703.955557143 780.711109524 678.567266288 714.766067045 668 648 c 1
EndSplineSet
EndChar

StartChar: o
Encoding: 111 111 171
Width: 1454
VWidth: 0
Flags: HW
LayerCount: 2
Fore
SplineSet
20 724 m 1
 18 746 l 1
 36 902 48 1078 194 1224 c 2
 218 1248 l 1
 258 1294 306 1320 364 1344 c 1
 402 1344 l 1
 495.546162348 1382.70875683 603.773866953 1401.01692636 724 1420 c 1
 852 1420 1108 1388 1238 1220 c 1
 1238 1192 l 1
 1334 1072 1402 930 1402 732 c 0
 1402 536 1362 390 1270 264 c 1
 1230 214 l 2
 1102 54 852 14 682 14 c 0
 344 14 46 220 20 664 c 1
 20 724 l 1
570 716 m 2
 570 598 576 364 704 364 c 0
 856 364 864 558 864 716 c 2
 864 752 l 2
 864 874 840 1056 720 1056 c 0
 594 1056 570 896 570 760 c 2
 570 716 l 2
EndSplineSet
EndChar

StartChar: oe
Encoding: 314 339 175
Width: 1942
VWidth: 0
Flags: HW
LayerCount: 2
Fore
SplineSet
32 476 m 0
 32 803.67988002 256.962273236 1088 594 1088 c 2
 632 1088 l 1
 644 1090 656 1090 668 1090 c 0
 780 1090 894 1054 994 994 c 1
 1096 1068 1230 1102 1368 1102 c 0
 1840 1102 1922 758 1922 508 c 0
 1922 482 1920 454 1920 428 c 1
 1890 394 l 1
 1216 394 l 1
 1216 330 1234 256 1322 256 c 0
 1354 256 1372 268 1388 284 c 1
 1388 306 l 1
 1394 312 1422 316 1432 318 c 1
 1456 318 1480 316 1504 316 c 0
 1614 316 1720 322 1828 322 c 0
 1854 322 1884 318 1884 292 c 0
 1884 274 1880 254 1872 232 c 1
 1850 184 l 1
 1754 8 1548 -52 1368 -52 c 0
 1246 -52 1074 -34 976 64 c 1
 882 -20 732 -42 616 -42 c 0
 252 -42 32 172 32 476 c 0
504 516 m 0
 504 416 516 230 642 230 c 0
 790 230 800 404 800 508 c 2
 800 568 l 2
 800 674 778 812 658 812 c 0
 522 812 504 606 504 516 c 0
1204 656 m 1
 1204 636 1214 632 1232 632 c 2
 1256 632 l 2
 1298 632 1360 628 1408 628 c 0
 1470 628 1496 632 1496 664 c 2
 1496 696 l 2
 1496 750 1440 836 1344 836 c 0
 1262 836 1210 754 1204 656 c 1
EndSplineSet
EndChar

StartChar: ogonek
Encoding: 315 731 176
Width: 632
VWidth: 0
Flags: HW
PickledData: "(dp1
S'com.typemytype.robofont.layerData'
p2
(dp3
s."
LayerCount: 2
Fore
SplineSet
112 -288 m 0
 112 -128 274 14 410 44 c 1
 422 42 610 44 610 44 c 1
 610 44 l 1
 610 42 646 22 646 4 c 1
 556 -62 l 1
 486 -106 418 -170 418 -228 c 0
 418 -276 462 -292 512 -292 c 1
 612 -274 618 -272 624 -272 c 0
 644 -272 662 -326 672 -380 c 1
 672 -424 l 2
 672 -466 484 -488 396 -488 c 0
 246 -488 112 -438 112 -288 c 0
EndSplineSet
EndChar

StartChar: one
Encoding: 49 49 178
Width: 1578
VWidth: 0
Flags: HW
LayerCount: 2
Fore
SplineSet
196 960 m 2
 196 1261.04194657 190.313854518 1210.75077401 336 1294 c 1
 384 1314 584 1402 648 1504 c 1
 768 1502 882 1500 1008 1500 c 0
 1034 1500 1060 1500 1086 1504 c 1
 1108 1502 1108 1480 1108 1430 c 2
 1108 896 l 2
 1108 598 1120 304 1120 4 c 1
 1116 -24 1044 -32 976 -32 c 0
 938 -32 902 -30 876 -30 c 0
 822 -30 772 -32 722 -32 c 0
 660 -32 598 -30 536 -28 c 1
 510 6 l 1
 502 14 500 26 500 48 c 0
 500 202 502 344 504 488 c 1
 504 924 l 1
 416 866 334 820 230 788 c 1
 208 788 198 794 196 816 c 1
 196 960 l 2
EndSplineSet
EndChar

StartChar: ordfeminine
Encoding: 317 170 181
Width: 844
VWidth: 0
Flags: HW
LayerCount: 2
Fore
SplineSet
50 1056 m 0
 50 1190 184 1244 376 1244 c 0
 422 1244 466 1242 508 1240 c 1
 508 1280 l 2
 508 1354 490 1400 416 1400 c 0
 374 1400 330 1382 320 1344 c 1
 76 1344 l 1
 96 1484 316 1494 428 1494 c 0
 538 1494 790 1510 790 1296 c 0
 790 1158 788 1032 788 904 c 1
 780 904 772 904 764 902 c 1
 736 902 l 2
 664 902 594 906 520 906 c 1
 520 944 l 2
 520 950 514 954 514 960 c 2
 514 964 l 1
 450 918 378 888 274 888 c 0
 146 888 50 938 50 1056 c 0
312 1082 m 0
 312 1026 356 1004 408 1004 c 0
 466 1004 498 1020 508 1084 c 1
 508 1188 l 1
 432 1182 312 1186 312 1082 c 0
EndSplineSet
EndChar

StartChar: ordmasculine
Encoding: 318 186 182
Width: 938
VWidth: 0
Flags: HW
LayerCount: 2
Fore
SplineSet
-28 1186 m 1
 -28 1200 l 1
 -2 1462 216 1540 418 1540 c 0
 678 1540 952 1480 952 1196 c 1
 942 908 688 836 420 836 c 0
 216 836 -2 896 -28 1186 c 1
EndSplineSet
EndChar

StartChar: oslash
Encoding: 319 248 183
Width: 1454
VWidth: 0
Flags: HW
LayerCount: 2
Fore
SplineSet
210 -144 m 1
 224.689357547 -33.8298183957 266.345390137 33.4313587088 308 114 c 1
 124.545924929 266.878395892 33.485225197 425.761021519 20 664 c 1
 20 724 l 1
 18 746 l 1
 36 902 48 1078 194 1224 c 2
 218 1248 l 2
 266 1296 302 1318 364 1344 c 1
 402 1344 l 1
 474 1374 570 1416 664 1416 c 0
 686 1416 706 1418 724 1420 c 1
 806 1420 888 1412 988 1380 c 1
 1122.21107675 1625.35462468 l 1
 1128.21107675 1625.35462468 1146 1618 1154 1616 c 1
 1202 1594 l 1
 1212 1588 1232 1588 1232 1570 c 1
 1230 1548 1212 1504 1188 1458 c 1
 1148 1386 l 2
 1134 1362 1124 1342 1116 1324 c 1
 1162 1296 1208 1262 1238 1220 c 1
 1238 1192 l 1
 1334 1072 1402 930 1402 732 c 0
 1402 536 1362 390 1270 264 c 1
 1230 214 l 2
 1102 54 852 14 682 14 c 0
 602 14 526 32 448 52 c 1
 412 -20 l 2
 378 -88 342 -154 304 -154 c 0
 298 -154 296 -152 290 -152 c 2
 268 -152 l 2
 262 -152 258 -146 256 -144 c 1
 210 -144 l 1
526 716 m 2
 526 658 530 602 538 544 c 1
 800 1028 l 1
 778 1046 750 1056 712 1056 c 0
 558 1056 526 896 526 764 c 2
 526 716 l 2
624 382 m 1
 642 372 670 364 696 364 c 0
 886 364 896 560 896 716 c 2
 896 752 l 2
 896 792 894 838 884 884 c 1
 797.68569475 716.31430525 711.027384489 548.972615511 624 382 c 1
EndSplineSet
EndChar

StartChar: overscore
Encoding: 321 175 185
Width: 678
VWidth: 0
Flags: HW
LayerCount: 2
Fore
SplineSet
-124 1184 m 1
 -124 1344 l 2
 -124 1392 -122 1438 -100 1464 c 1
 6 1464 l 1
 192 1452 374 1438 560 1438 c 2
 624 1438 l 2
 674 1438 726 1442 776 1442 c 1
 792 1440 796 1418 796 1394 c 0
 796 1378 794 1364 794 1348 c 2
 794 1312 l 2
 794 1274 796 1242 796 1204 c 0
 796 1166 776 1156 744 1156 c 2
 -94 1156 l 1
 -104 1166 -114 1174 -124 1184 c 1
EndSplineSet
EndChar

StartChar: p
Encoding: 112 112 186
Width: 1366
VWidth: 0
Flags: HW
LayerCount: 2
Fore
SplineSet
104.008316008 39.7422037422 m 1
 82.5301455301 705.565488565 l 1
 82.5301455301 913.565488565 98 1122 98 1340 c 0
 98 1384 142 1362 192 1372 c 1
 908 1372 l 2
 1106 1372 1352 1244 1352 936 c 0
 1352 774 1280 658 1152 554 c 1
 1056 504 960 486 856 480 c 1
 824 480 l 1
 804 476 774 472 744 472 c 2
 664 472 l 2
 662 472 658 472 654 470 c 1
 654 336 654 208 662 74 c 1
 656 48 638 40 584 40 c 2
 104.008316008 39.7422037422 l 1
604 804 m 2
 604 786 l 1
 606.465302951 782.918371312 630 776.402986338 630 772 c 2
 630 770 l 1
 628 770 628 772 628 774 c 1
 630 772 634 772 640 772 c 0
 746 772 852 816 852 936 c 0
 852 1068 744 1076 634 1076 c 1
 634 1076 l 1
 632 1074 622 1066 616 1060 c 1
 616 1025.33333333 616 990.666666667 616 956 c 1
 610 908 604 852 604 804 c 2
EndSplineSet
EndChar

StartChar: paragraph
Encoding: 322 182 187
Width: 1322
VWidth: 0
Flags: HW
LayerCount: 2
Fore
SplineSet
804 156 m 2
 804 117.293326494 813.190386221 -28 780 -28 c 1
 780 -28 l 1
 708 -28 624 -32 552 -32 c 0
 520 -32 476 -30 476 -4 c 2
 476 188 l 2
 476 388 480 570 480 768 c 1
 286 776 24 816 24 1132 c 0
 24 1500 404 1492 592 1492 c 2
 1196 1492 l 2
 1220 1492 1244 1490 1244 1440 c 2
 1244 -8 l 1
 1240 -48 1182 -48 1096 -48 c 2
 1008 -48 l 2
 978 -48 954 -44 932 -46 c 1
 914 -46 896 -12 884 0 c 1
 884 64 l 2
 884 444 900 852 900 1236 c 1
 868 1236 836 1236 804 1236 c 1
 804 156 l 2
EndSplineSet
EndChar

StartChar: parenleft
Encoding: 40 40 188
Width: 832
VWidth: 0
Flags: HW
LayerCount: 2
Fore
SplineSet
124 614 m 1
 144 886 324 1500 380 1500 c 1
 382 1502 386 1504 392 1504 c 0
 518 1510 640 1510 766 1512 c 1
 784 1510 790 1502 796 1480 c 1
 742 1276 l 1
 674 1048 620 812 620 602 c 1
 628 386 676 156 748 -76 c 1
 804 -276 l 1
 799.142609003 -284.500434245 794.984590584 -295.507704708 786 -300 c 1
 786 -324 l 1
 712 -324 l 2
 600 -324 496 -316 384 -316 c 1
 362 -308 332 -240 304 -166 c 1
 283.334735099 -101.331931568 262.696400016 -36.6369333172 242 28 c 1
 172 214 130 398 124 614 c 1
EndSplineSet
EndChar

StartChar: parenright
Encoding: 41 41 189
Width: 834
VWidth: 0
Flags: HW
LayerCount: 2
Fore
SplineSet
210 590 m 1
 213.937326279 897.111449795 98.656297194 1224.24456673 24 1484 c 1
 24 1524 l 1
 432 1524 l 2
 450 1524 464 1514 476 1492 c 1
 554 1278 l 1
 638 1060 710 828 710 592 c 0
 710 486 688 374 660 268 c 1
 626.399839671 160.266826996 592.893351903 52.4399814308 558 -54 c 1
 512 -182 466 -304 448 -308 c 1
 44 -308 l 1
 44 -294 54 -262 60 -248 c 1
 124 -30 210 302 210 590 c 1
EndSplineSet
EndChar

StartChar: partialdiff
Encoding: 323 8706 190
Width: 1456
VWidth: 0
Flags: HW
LayerCount: 2
Fore
SplineSet
1408 690 m 0
 1408 245.114209366 1151.9540716 -68 712 -68 c 0
 392 -68 50 88 42 488 c 1
 42 816 328 948 592 948 c 1
 676 942 770 928 842 884 c 1
 830.186676574 1082.46383355 713.70210263 1210.37779236 438 1244 c 1
 518 1532 l 1
 550 1538 584 1538 616 1538 c 0
 812 1538 1102 1500 1254 1280 c 1
 1374 1102 1408 898 1408 690 c 0
520 484 m 1
 520 378 560 260 692 260 c 0
 824 260 852 362 852 476 c 0
 852 570 824 676 692 676 c 0
 578 676 530 602 520 484 c 1
EndSplineSet
EndChar

StartChar: percent
Encoding: 37 37 191
Width: 2152
VWidth: 0
Flags: HW
LayerCount: 2
Fore
SplineSet
18 1020 m 0
 18 1299.27375926 186.623966359 1532 480 1532 c 0
 824 1532 912 1282 912 1056 c 0
 912 776 804 520 452 520 c 0
 94 520 18 780 18 1020 c 0
366 1020 m 0
 366 946 362 752 474 752 c 0
 564 752 564 884 564 944 c 2
 564 1108 l 2
 564 1192 558 1296 472 1296 c 1
 364 1290 366 1106 366 1020 c 0
528 -14 m 1
 795.368252583 473.298414084 1061.72695225 961.60638108 1330 1448 c 1
 1376 1530 l 1
 1382 1536 1386 1542 1392 1544 c 1
 1456 1544 l 2
 1534 1544 1620 1538 1620 1536 c 0
 1526.92919862 1357.07080138 1435.74920588 1176.25079412 1344 996 c 1
 1153.17383084 656.159502494 978.918539953 299.748126713 808 -60 c 0
 798 -82 744 -88 680 -88 c 0
 632 -88 588 -84 556 -84 c 1
 528 -14 l 1
1236 460 m 1
 1257.05419252 733.704502748 1393.63754234 958 1688 958 c 0
 1896 958 2136 846 2136 456 c 0
 2136 112 1932 -60 1670 -60 c 0
 1306 -60 1236 212 1236 434 c 2
 1236 460 l 1
1582 412 m 2
 1582 324 1590 174 1692 174 c 0
 1774 174 1786 280 1786 356 c 0
 1786 394 1784 434 1784 472 c 2
 1784 498 l 1
 1786 508 1786 518 1786 532 c 0
 1786 608 1770 716 1686 716 c 1
 1686 716 l 1
 1582 716 1582 524 1582 446 c 2
 1582 412 l 2
EndSplineSet
EndChar

StartChar: period
Encoding: 46 46 192
Width: 774
VWidth: 0
Flags: HW
LayerCount: 2
Fore
SplineSet
112 14 m 1
 112 44 l 2
 112 76 114 106 114 144 c 2
 114 196 l 2
 114 288 118 440 146 440 c 2
 556 440 l 2
 602 440 652 436 652 412 c 0
 654 316 656 214 656 118 c 2
 656 84 l 2
 656 70 658 56 658 40 c 0
 658 10 652 -16 636 -16 c 2
 144 -16 l 1
 112 14 l 1
EndSplineSet
EndChar

StartChar: perthousand
Encoding: 324 8240 193
Width: 2656
VWidth: 0
Flags: HW
LayerCount: 2
Fore
SplineSet
36 964 m 1
 34 988 l 1
 34 1220 130 1440 396 1440 c 0
 670 1440 744 1204 744 992 c 0
 744 682 594 534 386 534 c 0
 112 534 52 750 36 930 c 1
 36 964 l 1
298 988 m 0
 298 986 300 982 300 980 c 2
 300 920 l 2
 300 832 316 732 394 732 c 1
 394 732 l 1
 466 732 478 830 478 896 c 0
 478 926 476 954 476 980 c 0
 476 996 480 1042 480 1084 c 0
 480 1154 468 1236 398 1236 c 0
 294 1236 298 1072 298 988 c 0
400 -16 m 1
 601.212895423 349.453771244 802.686302697 714.647030636 1004 1080 c 1
 1196 1432 l 2
 1202 1442 1232 1444 1264 1444 c 2
 1334 1444 l 2
 1350 1444 1366 1448 1388 1448 c 0
 1412 1448 1432 1440 1444 1392 c 1
 1284.49950897 1097.50049103 1124.67876981 803.321230187 964 510 c 1
 862.774618847 319.892047819 761.760822248 129.572511086 660 -60 c 1
 650 -82 610 -88 568 -88 c 0
 520 -88 478 -86 424 -84 c 1
 414 -62 408 -38 400 -16 c 1
1090 364 m 2
 1090 376 l 1
 1092 382 1092 386 1092 388 c 0
 1108 630 1188 840 1448 840 c 0
 1746 840 1800 588 1800 388 c 0
 1800 92 1654 -62 1452 -62 c 0
 1184 -62 1090 140 1090 364 c 2
1352 352 m 2
 1352 264 1358 136 1452 136 c 0
 1526 136 1536 230 1536 300 c 2
 1536 472 l 2
 1536 532 1530 640 1452 640 c 0
 1364 640 1352 518 1352 430 c 2
 1352 352 l 2
1908 376 m 0
 1908 380 1908 384 1908 388 c 0
 1918 688 2046 840 2294 840 c 0
 2578.48844495 840 2614 560.564430399 2614 370 c 0
 2614 110 2486 -60 2258 -60 c 0
 1994 -60 1908 174 1908 376 c 0
2172 392 m 1
 2172 324 l 2
 2172 244 2186 134 2268 134 c 1
 2268 136 l 1
 2350 136 2352 258 2352 312 c 0
 2352 338 2350 362 2350 388 c 0
 2350 420 2352 452 2352 484 c 0
 2352 558 2334 640 2268 640 c 1
 2268 638 l 1
 2172 638 2178 476 2172 392 c 1
EndSplineSet
EndChar

StartChar: pi
Encoding: 325 960 194
Width: 1586
VWidth: 0
Flags: HW
LayerCount: 2
Fore
SplineSet
-18 1060 m 1
 -18 1162 320 1176 460 1176 c 1
 548 1182 634 1184 724 1184 c 0
 884 1184 1044 1180 1204 1180 c 0
 1324 1180 1438 1182 1556 1190 c 1
 1578 1186 1590 1174 1594 1156 c 1
 1563.16441043 814.436546281 l 1
 1522 780 l 1
 1478 780 l 2
 1456 780 1434 780 1410 776 c 1
 1408 632 1404 488 1404 342 c 0
 1404 236 1406 128 1430 14 c 1
 1430 -10 1422 -22 1396 -32 c 1
 964 -32 l 1
 898 -16 898 184 898 280 c 2
 898 790 l 1
 726 790 l 1
 714 546 650 -20 576 -20 c 0
 502 -20 426 -18 352 -16 c 1
 132 -16 l 1
 124 -10 120 2 120 12 c 0
 120 18 120 24 122 26 c 1
 122 24 l 1
 186 266 236 518 238 768 c 1
 236 782 234 788 228 790 c 1
 170 790 110 784 52 772 c 1
 10 772 -10 990 -18 1060 c 1
EndSplineSet
EndChar

StartChar: plus
Encoding: 43 43 195
Width: 1270
VWidth: 0
Flags: HW
LayerCount: 2
Fore
SplineSet
84 448 m 2
 84 476 l 1
 86 484 86 492 86 500 c 0
 86 542 84 582 84 624 c 0
 84 678 88 696 140 696 c 2
 462 696 l 1
 462 1016 l 1
 464 1060 468 1076 522 1076 c 2
 702 1076 l 2
 748 1076 792 1072 798 1048 c 1
 798 926 796 810 796 688 c 1
 1148 688 l 1
 1170 686 1176 672 1176 642 c 0
 1176 584 1174 526 1174 468 c 2
 1174 434 l 2
 1174 408 1170 376 1160 376 c 2
 790 376 l 1
 792 320 794 264 794 208 c 2
 794 40 l 2
 794 -4 778 -12 720 -12 c 2
 476 -12 l 1
 476 358 l 1
 460 358 444 356 428 356 c 0
 402 356 374 358 344 358 c 0
 318 358 294 356 268 356 c 0
 218 356 168 358 118 358 c 1
 88 364 84 406 84 448 c 2
EndSplineSet
EndChar

StartChar: plusminus
Encoding: 326 177 196
Width: 1266
VWidth: 0
Flags: HW
LayerCount: 2
Fore
SplineSet
80 14 m 2
 80 68 82 110 82 164 c 0
 82 182 80 202 80 224 c 0
 80 262 86 300 120 316 c 1
 148 316 l 1
 270 306 388 302 500 302 c 0
 606 302 718 304 824 304 c 0
 930 304 1038 302 1150 296 c 1
 1176 296 1172 220 1172 162 c 2
 1172 0 l 1
 1170 -22 1146 -24 1124 -24 c 2
 112 -24 l 1
 80 4 l 1
 80 14 l 2
84 672 m 2
 84 940 l 1
 88 994 274 976 308 976 c 2
 458 976 l 1
 458 1008 l 2
 458 1120 442 1196 512 1196 c 2
 744 1196 l 2
 768 1196 800 1196 800 1168 c 2
 800 968 l 1
 1148 968 l 1
 1168 964 1176 954 1176 924 c 2
 1176 688 l 2
 1176 670 1170 650 1148 650 c 2
 792 650 l 1
 792 436 l 1
 720 436 l 2
 646 436 578 432 508 432 c 0
 490 432 472 434 472 456 c 2
 472 460 l 1
 466 522 468 582 468 640 c 1
 444 642 420 644 398 644 c 2
 326 644 l 2
 280 644 238 640 192 640 c 2
 148 640 l 2
 126 640 84 642 84 672 c 2
EndSplineSet
EndChar

StartChar: product
Encoding: 327 8719 197
Width: 1818
VWidth: 0
Flags: HW
LayerCount: 2
Fore
SplineSet
18 1492 m 0
 18 1508 24 1518 46 1524 c 1
 1772 1524 l 2
 1796 1524 1808 1520 1808 1498 c 2
 1808 1128 l 1
 1774 1090 l 1
 1752 1090 1734 1092 1712 1092 c 0
 1664 1092 1618 1088 1564 1072 c 1
 1564 -208 l 1
 1560 -230 1548 -236 1536 -240 c 1
 1070 -240 l 1
 1078 80 1076 404 1076 732 c 0
 1076 856 1076 980 1072 1106 c 1
 728 1106 l 1
 742 834 746 556 746 286 c 2
 746 194 l 2
 746 16 742 -216 726 -216 c 2
 280 -216 l 1
 252 -200 260 -48 260 28 c 0
 260 334 262 646 262 944 c 2
 262 1024 l 2
 262 1050 262 1076 260 1100 c 1
 40 1100 l 1
 26 1102 20 1114 20 1128 c 0
 20 1254 18 1364 18 1492 c 0
EndSplineSet
EndChar

StartChar: q
Encoding: 113 113 198
Width: 1454
VWidth: 0
Flags: HW
LayerCount: 2
Fore
SplineSet
36 724 m 0
 36 978 132 1148 270 1276 c 1
 328 1322 l 2
 350 1340 372 1352 396 1360 c 2
 472 1384 l 1
 472 1384 l 1
 506 1396 628 1420 712 1420 c 2
 752 1420 l 2
 1172 1420 1412 1132 1412 756 c 2
 1412 732 l 1
 1406 612 1376 506 1310 420 c 1
 1420 420 l 1
 1460 386 l 1
 1460 68 l 1
 1454 48 1444 36 1426 32 c 1
 1388 32 1292 44 1202 44 c 0
 1020 44 868 8 688 8 c 0
 582 8 489.2 32.4 407.2 70.4 c 1
 255.2 146.4 l 1
 226 192 l 1
 226 212 l 1
 226 210 l 1
 196 244 l 1
 188 258 178 272 168 282 c 1
 168 308 l 1
 84 450 36 576 36 724 c 0
564 722 m 0
 564 596 562 360 714 360 c 1
 714 360 l 1
 856 360 876 536 876 652 c 2
 876 780 l 2
 876 900 860 1074 710 1074 c 0
 584 1074 564 874 564 722 c 0
EndSplineSet
EndChar

StartChar: question
Encoding: 63 63 199
Width: 1120
VWidth: 0
Flags: HW
LayerCount: 2
Fore
SplineSet
176 536 m 0
 176 793.161021198 437.100477927 835.133600027 470 1030 c 1
 460 1088 412 1096 362 1096 c 1
 362 1096 l 1
 264 1092 180 1072 88 1036 c 1
 42 1074 l 1
 42 1200 44 1314 44 1442 c 0
 44 1530 336 1548 466 1548 c 1
 618 1546 750 1532 858 1476 c 2
 900 1454 l 1
 950 1422 998 1380 1030 1332 c 1
 1030 1304 l 1
 1064 1236 1074 1170 1092 1120 c 1
 1088 1056 1080 970 1032 908 c 1
 892 732 716 708 710 588 c 1
 716 558 714 524 720 492 c 1
 720 482 714 468 708 468 c 2
 558 468 l 2
 438 468 322 462 204 456 c 1
 178 456 176 508 176 536 c 0
170 34 m 1
 170 60 l 2
 170 72 170 84 172 96 c 1
 172 196 l 1
 170 208 170 222 170 238 c 0
 170 290 178 352 200 368 c 1
 306 366 408 360 518 360 c 1
 692 354 712 350 712 286 c 2
 712 186 l 2
 712 144 714 106 714 64 c 2
 714 4 l 1
 712 -10 706 -16 692 -16 c 0
 690 -16 688 -14 688 -12 c 1
 576 -14 464 -22 352 -28 c 1
 202 -28 l 1
 172 8 l 1
 172 18 172 28 170 34 c 1
EndSplineSet
EndChar

StartChar: questiondown
Encoding: 328 191 200
Width: 1120
VWidth: 0
Flags: HW
LayerCount: 2
Fore
SplineSet
416 930 m 1
 416 950.10304515 441.071149211 956 460 956 c 2
 576 956 l 2
 696 956 812 964 930 964 c 1
 954 960 960 898 960 848 c 2
 960 814 l 2
 960 594 702 526 664 342 c 1
 674 284 726 276 772 276 c 1
 772 276 l 1
 868 278 958 298 1046 336 c 1
 1092 298 l 1
 1092 -70 l 2
 1092 -158 796 -176 668 -176 c 1
 516 -174 386 -162 276 -104 c 2
 234 -82 l 1
 184 -50 136 -8 104 40 c 1
 104 68 l 1
 68 126 62 202 42 252 c 1
 46 414 154 544 248 620 c 1
 314 672 l 2
 374 718 424 766 424 834 c 1
 418 860 418 898 416 930 c 1
420 1378 m 2
 420 1438 l 1
 422 1450 430 1456 444 1456 c 0
 446 1456 448 1456 448 1454 c 1
 560 1458 672 1466 784 1470 c 1
 932 1470 l 1
 964 1436 l 1
 964 1208 l 2
 964 1152 960 1090 934 1074 c 1
 776 1074 l 1
 444 1086 426 1072 424 1156 c 1
 424 1256 l 1
 422 1298 420 1336 420 1378 c 2
EndSplineSet
EndChar

StartChar: quotedbl
Encoding: 34 34 201
Width: 1284
VWidth: 0
Flags: HW
LayerCount: 2
Fore
SplineSet
380 1508 m 1
 402.8762477 1510.28762477 425.977203049 1512 452 1512 c 0
 516 1512 600 1504 600 1476 c 2
 600 1466 l 1
 606 1282 612 1086 612 900 c 0
 612 846 594 842 536 842 c 2
 180 842 l 1
 180 1440 l 2
 180 1472 196 1504 214 1510 c 1
 270 1510 326 1508 380 1508 c 1
700 922 m 2
 700 1444 l 2
 700 1476 714 1512 734 1512 c 2
 1116 1512 l 1
 1116 1480 l 1
 1126 1282 1128 1098 1128 896 c 0
 1128 870 1126 850 1104 850 c 2
 988 850 l 2
 902 850 818 840 732 838 c 1
 732 856 l 1
 720 874 700 888 700 922 c 2
EndSplineSet
EndChar

StartChar: quotedblbase
Encoding: 329 8222 202
Width: 1216
VWidth: 0
Flags: HW
LayerCount: 2
Fore
SplineSet
-16 -190 m 1
 157.080072623 449.871783635 l 1
 232 448 l 1
 232 448 655.077309917 452.940832866 655.077309917 422.940832866 c 1
 504 -16 l 2
 482 -82 440 -214 412 -214 c 2
 16 -214 l 1
 4.8353213468 -201.83134532 -5.79051190235 -203.123845236 -16 -190 c 1
562.415138772 -222.649957948 m 1
 594 -38 l 1
 612 28 620 86 636 148 c 1
 636 208 l 1
 650 298 692 412 724 456 c 1
 796 456 l 1
 890 450 1223.20144025 470.84067446 1223.20144025 410.84067446 c 1
 1002 -200 l 1
 990 -222 906.002452958 -227.874362646 830.002452958 -227.874362646 c 1
 562.415138772 -222.649957948 l 1
EndSplineSet
EndChar

StartChar: quotedblleft
Encoding: 330 8220 203
Width: 1212
VWidth: 0
Flags: HW
LayerCount: 2
Fore
SplineSet
-12 890 m 1
 132 1284 l 1
 132 1344 l 1
 154 1412 216 1504 234 1508 c 1
 388 1508 l 2
 506 1508 649.447038584 1507.71442615 649.447038584 1485.71442615 c 1
 555.192922094 1096.13074465 l 1
 564 1008 l 1
 546 922 502 848 488 848 c 2
 12 848 l 1
 -12 890 l 1
638 882 m 1
 870.559195277 1522.33422261 l 1
 966.559195277 1516.33422261 1078 1504 1174 1504 c 0
 1208 1504 1244 1504 1280 1506 c 0
 1298 1506 1292 1494 1298 1464 c 1
 1229.64721311 1175.39934426 l 1
 1205.64721311 1045.39934426 1170 850 1128 848 c 0
 1026 844 930 840 828 840 c 0
 772 840 722 842 668 842 c 1
 638 882 l 1
EndSplineSet
EndChar

StartChar: quotedblright
Encoding: 331 8221 204
Width: 1216
VWidth: 0
Flags: HW
LayerCount: 2
Fore
SplineSet
-16 884 m 1
 8.30025176271 982.975412851 112.582922123 1510 168 1510 c 2
 652.826635619 1509.72801022 l 1
 433.035904755 852 l 1
 16 852 l 1
 -16 884 l 1
1308 1476 m 2
 1308 1468 l 1
 1242.66573906 1283.33426094 1177.52243243 1098.47756757 1112 914 c 1
 1112 860 l 1
 1100 838 956 832 848 832 c 0
 792 832 742 834 704 834 c 2
 676 834 l 1
 660 844 650 856 640 872 c 1
 688 1056 l 2
 720 1180 746 1414 820 1514 c 1
 878 1512 938 1512 998 1512 c 2
 1060 1512 l 2
 1160 1512 1308 1506 1308 1476 c 2
EndSplineSet
EndChar

StartChar: quoteleft
Encoding: 332 8216 205
Width: 726
VWidth: 0
Flags: HW
LayerCount: 2
Fore
SplineSet
22 900 m 1
 245.553324719 1500.40035782 l 1
 257.553324719 1512.40035782 302 1514 432 1514 c 0
 544 1514 691.380689655 1505.23172414 691.380689655 1477.23172414 c 1
 589.773793103 1059.51448276 l 1
 569.773793103 957.514482759 544 846 512 846 c 1
 422 840 334 840 248 840 c 2
 52 840 l 1
 42 860 32 880 22 900 c 1
EndSplineSet
EndChar

StartChar: quoteright
Encoding: 333 8217 206
Width: 724
VWidth: 0
Flags: HW
LayerCount: 2
Fore
SplineSet
20 856 m 1
 117.853932584 1280.03370787 l 1
 152.58321707 1421.43150898 168.114709238 1508 234 1508 c 2
 520 1508 l 2
 606 1508 688 1504 688 1480 c 2
 688 1472 l 1
 686 1472 686 1470 686 1468 c 0
 632.890492681 1317.10950732 578.689657146 1167.31034285 528 1014 c 1
 472 866 l 1
 460 842 354 840 268 840 c 2
 180 840 l 2
 164 840 148 838 130 838 c 0
 116 838 104 838 90 840 c 1
 52 840 l 1
 52 856 l 1
 20 856 l 1
EndSplineSet
EndChar

StartChar: quotesinglbase
Encoding: 334 8218 207
Width: 728
VWidth: 0
Flags: HW
LayerCount: 2
Fore
SplineSet
32.3773584906 -224 m 1
 96 132 l 1
 114 208 166 446 196 446 c 1
 228 448 264 444 300 444 c 2
 400 444 l 2
 426 444 472 446 520 446 c 0
 602 446 688 440 688 416 c 2
 688 404 l 1
 635.233192958 251.433473708 583.746030434 97.5873028988 528 -52 c 1
 470 -198 l 1
 452 -222 352 -224 252 -224 c 2
 32.3773584906 -224 l 1
EndSplineSet
EndChar

StartChar: quotesingle
Encoding: 39 39 208
Width: 802
VWidth: 0
Flags: HW
LayerCount: 2
Fore
SplineSet
282 1508 m 2
 339.901711622 1508 604 1529.72527253 604 1476 c 0
 606 1292 612 1092 612 902 c 0
 612 844 512 836 388 836 c 2
 216 836 l 1
 200 846 188 858 178 872 c 1
 178 1440 l 2
 178 1468 194 1504 216 1508 c 1
 282 1508 l 2
EndSplineSet
EndChar

StartChar: r
Encoding: 114 114 209
Width: 1402
VWidth: 0
Flags: HW
LayerCount: 2
Fore
SplineSet
92 1376 m 1
 278 1376 l 2
 452 1376 650 1384 836 1384 c 0
 1089.02334295 1384 1352 1315.35060805 1352 1044 c 0
 1352 897.321568006 1283.85859633 797.929298165 1144 728 c 1
 1296 662 1310 528 1332 398 c 1
 1341.99509344 302.047102982 1396 190.568618644 1396 88 c 0
 1396 70 1392 52 1374 52 c 0
 1254 52 1130 50 1012 50 c 1
 988 52 964 52 940 52 c 2
 872 52 l 1
 844 60 816 150 806 240 c 1
 784 418 l 1
 772 462 764 496 698 496 c 2
 652 496 l 1
 652 96 l 2
 652 64 656 40 618 40 c 2
 92 40 l 1
 92 1376 l 1
658 848 m 1
 664.215820958 840.54101485 669.992342001 827.335886 680 824 c 1
 680 824 l 1
 750 824 872 850 872 972 c 0
 872 1074 732 1076 672 1076 c 1
 672 1076 l 1
 664 1074 652 1068 652 1060 c 2
 652 1022 l 2
 652 964 658 906 658 848 c 1
EndSplineSet
EndChar

StartChar: radical
Encoding: 335 8730 210
Width: 1558
VWidth: 0
Flags: HW
LayerCount: 2
Fore
SplineSet
68 736 m 2
 68 750 54 754 62 764 c 1
 557.580445473 963.044605149 l 1
 567.580445473 961.044605149 576 954 584 940 c 1
 669.532581034 701.370280276 765.679258034 471.956829597 838 224 c 1
 866 366 896 500 928 630 c 1
 1030.85703388 1024.25226009 1136.50552964 1392.16950266 1236 1796 c 1
 1242 1814 1252 1822 1268 1828 c 1
 1536 1828 l 2
 1598 1828 1590 1824 1644 1740 c 1
 1028.29724955 -300.089710449 l 1
 1018.29724955 -322.089710449 934 -320 890 -320 c 0
 810 -320 733.766140759 -318.465526351 653.766140759 -318.465526351 c 1
 300 576 l 1
 140 512 l 1
 116 512 92 602 68 676 c 1
 68 736 l 2
EndSplineSet
EndChar

StartChar: registered
Encoding: 336 174 211
Width: 1710
VWidth: 0
Flags: HW
LayerCount: 2
Fore
SplineSet
50 736 m 1
 50 1262.63346638 492.916495853 1538 852 1538 c 0
 1288 1538 1668 1208 1668 724 c 0
 1668 288 1300 -64 868 -64 c 0
 714 -64 540 -16 392 80 c 0
 118 258 66 536 50 736 c 1
858 1300 m 0
 548.807196092 1300 308 1079.93164686 308 752 c 0
 308 456 512 192 844 192 c 0
 1172 192 1402 440 1402 776 c 0
 1402 1102 1148 1300 858 1300 c 0
588 1114 m 1
 676 1116 772 1120 866 1120 c 0
 1020 1120 1148 1060 1148 918 c 0
 1148 726 1022 700 976 700 c 1
 1128.88404361 414.616451933 l 1
 1124 378 l 1
 1118 378 1054 372 1000 372 c 1
 839.005805515 684.518142235 l 1
 736 684 l 1
 736 612 l 2
 736 564 736 494 732 440 c 1
 732 384 l 2
 732 378 722 376 684 376 c 0
 662 376 630 378 588 378 c 1
 588 1114 l 1
736 816 m 1
 770 816 826 812 884 812 c 0
 948 812 1004 824 1004 896 c 0
 1004 986 944 992 840 992 c 0
 822 992 804 992 788 990 c 1
 736 990 l 1
 736 816 l 1
EndSplineSet
EndChar

StartChar: ring
Encoding: 337 730 212
Width: 598
VWidth: 0
Flags: HW
LayerCount: 2
Fore
SplineSet
-2 1644 m 1
 62.3240483037 1772.64809661 68.1279842308 1940 292 1940 c 0
 450 1940 592 1818 592 1648 c 0
 592 1480 454 1356 302 1356 c 0
 116 1356 14 1504 -2 1644 c 1
180 1658 m 1
 186 1578 246 1540 302 1540 c 0
 360 1540 404 1578 404 1648 c 0
 404 1722 348 1758 296 1758 c 0
 244 1758 190 1724 180 1658 c 1
EndSplineSet
EndChar

StartChar: s
Encoding: 115 115 213
Width: 1314
VWidth: 0
Flags: HW
PickledData: "(dp1
S'com.typemytype.robofont.layerData'
p2
(dp3
s."
LayerCount: 2
Fore
SplineSet
864 988 m 1
 764.934024912 988 812.510017778 1068 662 1068 c 0
 648 1068 568 1062 568 1024 c 0
 568 968 679.493619879 967.935527199 723.493619879 945.935527199 c 1
 870 910 l 1
 1060 858 1286 760 1286 496 c 0
 1286 432 1278 380 1262 332 c 1
 1262 334 l 1
 1174 68 878 28 636 12 c 1
 516 18 316 32 214 112 c 1
 214 124 l 1
 88 218 38 324 28 452 c 1
 28 468 36 476 50 476 c 0
 62 476 74 474 86 474 c 2
 188 474 l 1
 202 476 214 476 228 476 c 2
 254 476 l 2
 258 476 262 476 268 474 c 1
 326 476 402 476 466 476 c 2
 512 476 l 2
 586 476 534 358 664 358 c 1
 664 358 l 1
 710 358 766 382 766 438 c 0
 766 502 594 532 508 556 c 1
 448 556 l 1
 154 642 40 770 40 968 c 0
 40 1312.50888666 376.163274426 1428 668 1428 c 0
 889.7849709 1428 1088.11321261 1344.66414487 1182 1232 c 1
 1238 1176 1246 1098 1256 1024 c 1
 1228 984 l 1
 1058 984 l 2
 1000 984 934 988 864 988 c 1
 864 988 l 1
EndSplineSet
EndChar

StartChar: section
Encoding: 167 167 217
Width: 1818
VWidth: 0
Flags: HW
LayerCount: 2
Fore
SplineSet
276 324 m 1
 358.204034865 282.897982567 497.06900412 256 584 256 c 0
 606 256 644 264 644 296 c 0
 644 326 560 354 538 364 c 1
 416 412 l 2
 262 472 188 572 188 708 c 0
 188 826 258 938 386 986 c 1
 300 1028 248 1108 248 1218 c 1
 268 1436 460 1540 756 1540 c 0
 870 1540 1210 1518 1218 1478 c 1
 1218 1392 1220 1318 1220 1232 c 0
 1220 1212 1218 1192 1196 1192 c 1
 1108 1210 1018 1232 928 1232 c 0
 898 1232 868 1224 868 1208 c 0
 868 1174 978 1150 1034 1128 c 1
 1080 1128 l 1
 1258 1058 1338 936 1344 810 c 1
 1344 666 1284 544 1146 476 c 1
 1218 428 1264 346 1264 258 c 0
 1264 -12 966 -66 810 -66 c 0
 620 -66 438 -52 252 -20 c 1
 222 20 l 1
 220 94 220 156 220 238 c 0
 220 282 224 328 258 328 c 0
 264 328 270 324 276 324 c 1
680 848 m 1
 657.707665647 848 628 789.497909514 628 772 c 0
 628 670 840 632 858 632 c 0
 868 632 928 650 928 688 c 0
 928 764 714 830 680 848 c 1
 680 848 l 1
EndSplineSet
EndChar

StartChar: semicolon
Encoding: 59 59 218
Width: 732
VWidth: 0
Flags: HW
LayerCount: 2
Fore
SplineSet
-8 -180 m 1
 -8 -96 l 1
 4 -30 26 12 60 138 c 1
 60 224 l 1
 88 344 144 460 164 460 c 2
 524 460 l 2
 606 460 673.558666421 450.83072389 673.558666421 430.83072389 c 1
 470.613004237 -186.829987106 l 1
 460.613004237 -208.829987106 342 -212 234 -212 c 0
 164 -212 96 -208 48 -208 c 2
 26 -208 l 1
 14 -200 2 -190 -8 -180 c 1
126 664 m 0
 126 666 126 670 128 672 c 1
 128 772 l 2
 128 794 128 1056 160 1056 c 2
 202 1056 l 2
 298 1056 390 1060 492 1060 c 0
 574 1060 666 1056 666 1036 c 0
 672 900 672 778 672 644 c 0
 672 610.607378867 672.12609187 584.825218374 648 580 c 1
 164 580 l 1
 130 614 l 1
 128 630 126 646 126 664 c 0
EndSplineSet
EndChar

StartChar: seven
Encoding: 55 55 219
Width: 1462
VWidth: 0
Flags: HW
LayerCount: 2
Fore
SplineSet
68 1448 m 2
 68 1480 70 1528 108 1528 c 0
 314 1530 518 1524 722 1520 c 1
 1332 1520 l 2
 1368 1520 1374 1432 1374 1362 c 0
 1372 1100 1372 1056 1308 944 c 0
 1236.20666135 817.793338655 1164.64107928 691.358920719 1094 564 c 1
 993.486298349 378.513701651 898.395298511 187.604701489 804 -4 c 1
 798 -20 794 -30 772 -30 c 0
 708 -30 644 -28 580 -28 c 2
 432 -28 l 2
 316 -28 180 -24 180 8 c 0
 180 18 182 30 188 44 c 1
 336.129968629 326.536698038 475.256455724 618.07687761 620 904 c 2
 704 1070 l 1
 588 1070 478 1070 364 1066 c 1
 134 1066 l 2
 108 1066 94 1070 68 1112 c 1
 68 1448 l 2
EndSplineSet
EndChar

StartChar: six
Encoding: 54 54 220
Width: 1456
VWidth: 0
Flags: HW
LayerCount: 2
Fore
SplineSet
788 -52 m 1
 281.509587999 -52 44 243.128791224 44 752 c 0
 44 1226 318 1550 772 1556 c 1
 1240 1556 1332 1336 1348 1118 c 1
 1348 1065.63996649 862.361197247 1076 862 1076 c 0
 844 1076 822 1080 822 1092 c 2
 822 1144 l 1
 816 1156 798 1162 774 1162 c 0
 638 1162 612 1018 612 900 c 2
 612 884 l 1
 682 966 800 990 900 990 c 0
 1194 990 1412 790 1412 512 c 0
 1412 104 1078 -40 788 -52 c 1
596 466 m 0
 596 367.3011303 646.129253464 264 756 264 c 0
 896 264 928 390 928 490 c 1
 922 610 886 692 764 692 c 0
 624 692 596 584 596 466 c 0
EndSplineSet
EndChar

StartChar: slash
Encoding: 47 47 221
Width: 804
VWidth: 0
Flags: HW
LayerCount: 2
Fore
SplineSet
-48 8 m 1
 -44 22 -40 36 -34 50 c 0
 147.248448601 546.751551399 331.525269814 1040.47473019 518 1532 c 0
 522 1542 566 1548 612 1548 c 0
 666 1548 722 1544 746 1544 c 2
 780 1544 l 2
 820 1544 840 1538 840 1510 c 0
 840 1462 796 1370 776 1310 c 0
 673.392453106 1005.27421356 570.928990694 700.404342639 468 396 c 1
 356 90 l 2
 326 8 336 -62 192 -68 c 1
 152 -68 l 1
 128 -72 108 -72 88 -72 c 2
 -14 -72 l 1
 -28 -46 -38 -18 -48 8 c 1
EndSplineSet
EndChar

StartChar: sterling
Encoding: 163 163 223
Width: 1440
VWidth: 0
Flags: HW
LayerCount: 2
Fore
SplineSet
824 1546 m 0
 1146.19689872 1546 1418 1415.12787408 1418 1072 c 0
 1418 1034 1412 1034 1396 1028 c 1
 1254 1028 1118 1030 976 1032 c 1
 828.544157148 1038.80565429 934.383011263 1142 820 1142 c 1
 756 1136 740 1072 740 1008 c 0
 740 966 744 932 744 900 c 1
 1038 900 l 1
 1038 814 1040 722 1040 636 c 0
 1040 614 1036 596 1006 596 c 2
 840 596 l 2
 708.994921045 596 744 551.053057654 744 412 c 1
 850 414 950 416 1052 416 c 2
 1104 416 l 2
 1192 416 1280 424 1368 424 c 1
 1398 418 1400 394 1400 354 c 2
 1400 326 l 2
 1400 230 1404 130 1404 34 c 0
 1404 -22 1364 -28 1324 -28 c 2
 72 -28 l 1
 44 0 l 1
 44 24 42 46 40 68 c 1
 40 132 l 2
 40 174 36 222 36 280 c 0
 36 336 46 382 70 392 c 1
 190 392 l 1
 190 586 l 1
 164 586 142 588 116 588 c 1
 116 588 l 1
 108 586 78 584 68 584 c 0
 38 584 6 596 6 624 c 0
 6 678 8 724 8 774 c 0
 8 792 6 818 6 840 c 0
 6 870 8 904 36 908 c 1
 198 908 l 1
 198 940 196 978 196 1012 c 0
 196 1385.73015293 478.819546802 1546 824 1546 c 0
EndSplineSet
EndChar

StartChar: summation
Encoding: 341 8721 224
Width: 1422
VWidth: 0
Flags: HW
LayerCount: 2
Fore
SplineSet
22 -200 m 2
 22 54 l 1
 548 632 l 1
 386.666666667 821.333333333 225.333333333 1010.66666667 64 1200 c 0
 58 1208 56 1244 56 1290 c 0
 56 1394 56 1508 64 1508 c 2
 1336 1508 l 1
 1358 1506 1360 1470 1360 1416 c 2
 1360 1122 l 1
 736 1122 l 1
 1124.32880392 682.909072428 l 1
 694 192 l 1
 1388 192 l 1
 1410 190 1422 182 1424 164 c 1
 1424 -208 l 1
 1390 -230 l 1
 48 -230 l 1
 30 -224 22 -222 22 -200 c 2
EndSplineSet
EndChar

StartChar: t
Encoding: 116 116 225
Width: 1168
VWidth: 0
Flags: HW
LayerCount: 2
Fore
SplineSet
-12 1012 m 2
 -12 1372 l 1
 1152 1372 l 1
 1176 1368 1176 1350 1176 1332 c 2
 1176 1012 l 1
 1174 990 1158 988 1148 988 c 2
 864 988 l 1
 864 68 l 1
 860 50 860 40 832 36 c 1
 768 36 l 2
 716 36 640 38 640 44 c 1
 624 44 608 42 592 42 c 2
 512 42 l 2
 466 42 428 40 380 40 c 2
 324 40 l 1
 284 68 l 1
 284 284 l 1
 288 466 300 640 300 832 c 0
 300 840.666666667 300 849.333333333 300 858 c 0
 300 874 302 892 302 908 c 0
 302 926 300 964 300 980 c 1
 50 980 l 2
 28 980 -12 986 -12 1012 c 2
EndSplineSet
EndChar

StartChar: thorn
Encoding: 342 254 226
Width: 1366
VWidth: 0
Flags: HW
LayerCount: 2
Fore
SplineSet
98 1696 m 1
 104 1722 114 1732 170 1732 c 2
 640 1732 l 1
 640 1386 l 1
 714 1386 790 1376 864 1376 c 2
 908 1376 l 2
 1106 1376 1352 1244 1352 936 c 0
 1352 774 1280 658 1152 554 c 1
 1056 504 960 486 856 480 c 1
 824 480 l 1
 804 476 774 472 744 472 c 2
 664 472 l 2
 662 472 658 472 654 470 c 1
 654 336 654 208 662 74 c 1
 656 48 638 40 584 40 c 2
 112 40 l 1
 108 50 104 62 102 72 c 1
 102 102 l 2
 102 205.333333333 96 308.666666667 96 412 c 2
 96 706 l 1
 94 914 100 1122 98 1340 c 1
 98 1696 l 1
604 804 m 2
 604 786 l 1
 606.465302951 782.918371312 630 776.402986338 630 772 c 2
 630 770 l 1
 628 770 628 772 628 774 c 1
 630 772 634 772 640 772 c 0
 746 772 852 816 852 936 c 0
 852 1068 744 1076 634 1076 c 1
 634 1076 l 1
 632 1074 622 1066 616 1060 c 1
 616 1025.33333333 616 990.666666667 616 956 c 1
 610 908 604 852 604 804 c 2
EndSplineSet
EndChar

StartChar: three
Encoding: 51 51 227
Width: 1454
VWidth: 0
Flags: HW
LayerCount: 2
Fore
SplineSet
692 -58 m 0
 318.500977154 -58 34.4164665865 61.2542016838 16 448 c 0
 16 466 26 480 48 480 c 2
 524 480 l 2
 546 480 558 478 560 458 c 1
 560 456 l 1
 570 378 598 324 682 324 c 1
 682 324 l 1
 754 324 796 372 796 436 c 0
 796 574 680 584 590 584 c 2
 546 584 l 2
 492 584 478 618 478 678 c 2
 478 742 l 2
 478 842 486 904 532 904 c 2
 612 904 l 2
 704 904 780 928 780 1060 c 0
 780 1116 746 1162 688 1162 c 0
 622 1162 600 1126 592 1088 c 1
 592 1048 l 1
 586 1022 572 1002 548 992 c 1
 422 992 296 994 170 1000 c 0
 154 1000 136 998 118 998 c 0
 76 998 40 1004 40 1036 c 1
 58.7636156253 1211.12707917 57.3327140102 1336.02080029 248 1448 c 0
 400 1538 604 1544 776 1544 c 0
 1018 1544 1354 1410 1354 1112 c 0
 1354 898 1228 828 1100 788 c 1
 1314 722 1388 606 1388 440 c 0
 1388 -6 926 -58 692 -58 c 0
EndSplineSet
EndChar

StartChar: tilde
Encoding: 344 732 229
Width: 698
VWidth: 0
Flags: HW
LayerCount: 2
Fore
SplineSet
508 1350 m 0
 392.669875711 1350 287.338694348 1420 184 1420 c 0
 150 1420 170 1368 148 1368 c 1
 148 1368 l 1
 104 1364 56 1366 14 1364 c 1
 -114 1364 l 1
 -130 1370 -134 1382 -134 1398 c 0
 -134 1638 -18 1746 170 1746 c 1
 216 1748 266 1734 308 1722 c 1
 376 1722 l 1
 398 1716 418 1694 436 1688 c 1
 470 1688 l 1
 470 1688 472 1680 474 1680 c 1
 479.875927989 1687.83457065 484 1699.10699553 484 1712 c 1
 518 1740 l 1
 770 1740 l 2
 792 1740 798 1720 804 1704 c 1
 794 1438 670 1350 508 1350 c 0
484 1690 m 1
 484 1692 l 1
 484 1690 l 1
EndSplineSet
EndChar

StartChar: trademark
Encoding: 345 8482 230
Width: 2072
VWidth: 0
Flags: HW
LayerCount: 2
Fore
SplineSet
620 1514 m 0
 776.70975769 1514 804 1514.32582899 804 1340 c 0
 804 1292 800 1280 776 1272 c 1
 714 1274 654 1270 592 1276 c 1
 592 1244 590 1212 590 1180 c 0
 590 998 600 824 600 640 c 1
 594 610 508 604 440 604 c 2
 292 604 l 1
 262 652 l 1
 262 694 l 2
 262 886 270 1074 272 1268 c 1
 262 1268 204 1264 156 1264 c 0
 44 1264 62 1296 62 1424 c 0
 62 1506 74 1512 180 1512 c 0
 234 1512 288 1508 338 1508 c 0
 426 1508 524 1514 620 1514 c 0
882 646 m 2
 882 734 l 1
 886 984 890 1234 892 1484 c 0
 892 1500 898 1508 912 1508 c 0
 1026 1508 1140 1508 1254 1506 c 1
 1282 1502 1324 1358 1356 1250 c 1
 1372 1180 1404 1122 1420 1052 c 1
 1572.67332769 1516.38137172 l 1
 1636.67332769 1516.38137172 1712 1510 1776 1510 c 2
 1834 1510 l 2
 1886 1510 1944 1506 1944 1496 c 0
 1944 1206 1956 928 1956 640 c 1
 1950 614 1934 612 1908 612 c 2
 1720 612 l 2
 1656 612 1648 702 1648 788 c 2
 1648 932 l 1
 1608 784 l 1
 1566 646 1556 600 1432 600 c 0
 1394 600 1354 604 1314 604 c 1
 1248 658 1246 758 1212 848 c 1
 1190 924 l 1
 1188 828 1184 734 1184 638 c 1
 1180 608 1120 608 1076 608 c 2
 960 608 l 2
 902 608 882 612 882 646 c 2
EndSplineSet
EndChar

StartChar: two
Encoding: 50 50 231
Width: 1458
VWidth: 0
Flags: HW
LayerCount: 2
Fore
SplineSet
1400 1076 m 0
 1400 721.460780071 1096.62725553 626.627255531 874 404 c 1
 1012 404 1152 412 1296 412 c 0
 1396 412 1414 334 1414 232 c 0
 1414 176 1408 108 1408 42 c 2
 1408 24 l 2
 1408 -2 1406 -18 1368 -24 c 1
 1296 -24 l 1
 1174 -20 1062 -18 972 -16 c 1
 678 -16 394 -22 98 -32 c 1
 98 -12 l 1
 78 0 64 40 64 84 c 2
 64 376 l 2
 64 392 84 412 132 444 c 0
 263.983336993 533.34999634 396.142746646 622.52392002 526 714 c 1
 588 762 l 2
 624 790 804 926 804 1062 c 0
 804 1118 768 1152 714 1152 c 0
 590 1152 642 1004 580 988 c 1
 116 988 l 2
 86 988 60 992 60 1018 c 1
 100.725699931 1411.681766 361.017408728 1544 734 1544 c 0
 1074 1544 1400 1408 1400 1076 c 0
EndSplineSet
EndChar

StartChar: u
Encoding: 117 117 232
Width: 1450
VWidth: 0
Flags: HW
LayerCount: 2
Fore
SplineSet
84 1142 m 1
 79.1693427679 1166.15328616 80 1204.66012628 80 1256 c 0
 80 1310 84 1368 100 1384 c 1
 644 1384 l 1
 644 544 l 2
 644 500 650 414 720 414 c 0
 764 414 794 460 794 510 c 2
 794 658 l 1
 796 804 800 948 800 1100 c 0
 800 1188 800 1274 796 1352 c 0
 796 1370 806 1384 824 1392 c 1
 1380 1392 l 1
 1380 1236 l 1
 1374 1066 1368 914 1364 748 c 1
 1364 686 l 2
 1364 664 1362 644 1362 626 c 0
 1362 608 1362 592 1364 578 c 1
 1364 552 1364 526 1364 500 c 0
 1364 426 1358 348 1336 300 c 1
 1336 296 l 1
 1246 88 1004 24 778 24 c 0
 764 24 750 24 736 30 c 1
 712 30 l 1
 712 22 692 20 682 20 c 1
 682 18 l 1
 644 16 592 24 554 28 c 1
 508 28 l 1
 306 52 90 190 80 502 c 1
 82 658 78 800 86 960 c 1
 86 988 l 2
 86 998 88 1010 88 1020 c 0
 88 1050 84 1080 84 1110 c 2
 84 1144 l 1
 84 1142 l 1
EndSplineSet
EndChar

StartChar: underscore
Encoding: 95 95 237
Width: 1050
VWidth: 0
Flags: HW
LayerCount: 2
Fore
SplineSet
-24 -194 m 0
 -24 -148 -20 -122 10 -122 c 2
 222 -122 l 2
 402 -122 640 -120 816 -120 c 0
 1056 -120 1064 -110 1064 -224 c 0
 1064 -246 1056 -268 1036 -268 c 2
 870 -268 l 2
 582 -268 302 -276 14 -290 c 1
 -18 -248 l 1
 -20 -232 -24 -216 -24 -194 c 0
EndSplineSet
EndChar

StartChar: uni00AD
Encoding: 173 173 239
Width: 858
VWidth: 0
Flags: HW
LayerCount: 2
Fore
SplineSet
36 360 m 1
 36 642 l 2
 36 694 44 744 68 744 c 0
 260 744 446 744 640 746 c 0
 664 746 688 746 712 744 c 1
 780 744 l 1
 804 740 808 676 808 610 c 2
 808 396 l 1
 806 378 802 360 780 360 c 0
 540 360 306 340 72 340 c 1
 72 360 l 1
 36 360 l 1
EndSplineSet
EndChar

StartChar: uni00B2
Encoding: 178 178 240
Width: 1160
VWidth: 0
Flags: HW
LayerCount: 2
Fore
SplineSet
142 -24 m 1
 125.020194283 3.167689147 116 26.0159515475 116 80 c 0
 116 146 110 214 110 276 c 1
 536 560 l 1
 564 608 l 1
 604 648 636 696 636 744 c 0
 636 782 610 806 572 806 c 0
 530 806 516 778 510 752 c 1
 510 692 l 1
 116 692 l 1
 130 978 340 1080 588 1080 c 0
 826 1080 1052 986 1052 754 c 0
 1052 501.64491896 839.783665512 439.783665512 684 284 c 1
 780 284 878 288 980 288 c 0
 1050 288 1064 238 1064 164 c 0
 1064 124 1060 78 1060 30 c 2
 1060 16 l 2
 1060 0 1058 -16 1032 -16 c 2
 980 -16 l 2
 894 -16 818 -10 754 -10 c 0
 546 -10 348 -14 142 -24 c 1
EndSplineSet
EndChar

StartChar: uni00B3
Encoding: 179 179 241
Width: 1226
VWidth: 0
Flags: HW
LayerCount: 2
Fore
SplineSet
474 336 m 2
 522.764585306 336 499.074154914 228 584 228 c 1
 584 228 l 1
 634 228 664 264 664 306 c 0
 664 402 586 410 520 410 c 1
 514 408 510 408 504 408 c 1
 504 408 l 1
 466 408 442 434 442 474 c 2
 442 520 l 2
 442 590 448 632 480 632 c 2
 536 632 l 2
 606 632 654 660 654 744 c 0
 654 782 630 812 588 812 c 0
 494 812 540 712 492 696 c 1
 384 696 l 1
 332 692 278 700 226 700 c 2
 190 700 l 2
 160 700 136 702 136 726 c 1
 140 764 138 804 154 844 c 1
 154 874 l 1
 228 1060 458 1082 652 1082 c 0
 818 1082 1056 986 1056 778 c 0
 1056 624 962 582 878 552 c 1
 1024 510 1078 424 1078 308 c 0
 1078 26 806 -40 632 -40 c 0
 380 -40 126 -2 120 314 c 0
 120 328 124 336 140 336 c 2
 474 336 l 2
EndSplineSet
EndChar

StartChar: uni00B5
Encoding: 181 181 242
Width: 1358
VWidth: 0
Flags: HW
LayerCount: 2
Fore
SplineSet
948 -20 m 2
 823.604097792 -20 756 -38.732670003 756 96 c 2
 756 76 l 1
 722 18 660 -48 596 -48 c 1
 596 -400 l 1
 508 -406 412 -412 324 -412 c 2
 292 -412 l 1
 278 -410 266 -410 256 -410 c 2
 176 -410 l 2
 162 -410 150 -412 136 -412 c 0
 96 -412 82 -404 82 -386 c 2
 82 1018 l 2
 82 1068 126.015866457 1061.7453103 168.015866457 1061.7453103 c 2
 580 1058 l 1
 602 1054 612 1044 616 1016 c 1
 616 448 l 2
 616 370 618 304 672 304 c 0
 720 304 730.152055918 350.109648952 730.152055918 392.109648952 c 2
 742 1024 l 2
 742 1040 750 1048 764 1048 c 2
 1264 1048 l 1
 1297.45995792 1044.2822269 1271.75858443 1032.24141557 1296 1008 c 1
 1296 768 1290 542 1290 310 c 2
 1290 8 l 1
 1284 -16 1262 -20 1236 -20 c 2
 948 -20 l 2
EndSplineSet
EndChar

StartChar: uni00B9
Encoding: 346 185 243
Width: 1030
VWidth: 0
Flags: HW
LayerCount: 2
Fore
SplineSet
420 -22 m 2
 377.249566239 -22 356 -8.14867383034 356 34 c 0
 356 250 364 434 364 648 c 1
 302 608 238 576 168 552 c 1
 154 552 146 558 144 572 c 1
 144 672 l 2
 144 766 144 864 152 864 c 1
 284 926 l 1
 342 948 430 1000 460 1052 c 1
 518 1050 576 1048 636 1048 c 0
 662 1048 686 1050 712 1050 c 2
 740 1050 l 2
 748 1050 758 1050 768 1052 c 1
 784 1050 784 1040 784 1008 c 2
 784 922 l 2
 784 836 780 752 780 664 c 0
 780 448 790 224 790 4 c 0
 790 -20 738 -22 690 -22 c 0
 676 -22 664 -22 652 -20 c 1
 620 -20 l 2
 566 -20 514 -22 460 -22 c 2
 420 -22 l 2
EndSplineSet
EndChar

StartChar: uni030F
Encoding: 373 783 270
Width: 782
VWidth: 0
Flags: HW
LayerCount: 2
Fore
SplineSet
468 1356 m 1
 130 1356 l 2
 54 1356 50 1382 0 1442 c 1
 -247.805054765 1752 l 1
 253.05980198 1757.4780198 l 1
 468 1402 l 1
 468 1356 l 1
390.321127719 1727.00581445 m 1
 390.321127719 1737.00581445 402 1750 414 1752 c 1
 500 1752 588 1758 670 1760 c 1
 884 1760 l 1
 963.159038379 1643.82570505 1032.16753188 1521.50086521 1106 1400 c 1
 1100 1392 1098 1384 1092 1376 c 1
 1092 1352 l 1
 860 1352 l 2
 744 1352 720 1352 648 1434 c 2
 390.321127719 1727.00581445 l 1
EndSplineSet
EndChar

StartChar: uni0311
Encoding: 374 785 271
Width: 682
VWidth: 0
Flags: HW
LayerCount: 2
Fore
SplineSet
348 1466 m 0
 241.608084093 1466 311.366882637 1344 194 1344 c 1
 152 1342 106 1338 64 1338 c 2
 -24 1338 l 2
 -38 1338 -48 1334 -60 1334 c 0
 -74 1334 -76 1348 -84 1356 c 1
 -84 1380 l 1
 -32.3844784683 1605.8179067 88.1948563959 1752 340 1752 c 0
 578.579708214 1752 720.059323601 1613.7627056 778 1382 c 1
 778 1356 760 1352 738 1352 c 2
 452 1352 l 1
 406 1372 436 1466 348 1466 c 0
EndSplineSet
EndChar

StartChar: uni0326
Encoding: 375 806 272
Width: 734
VWidth: 0
Flags: HW
LayerCount: 2
Fore
SplineSet
-8 -844 m 1
 14.5914788698 -740.942918401 110.087623514 -194 164 -194 c 2
 520 -194 l 2
 596 -194 669.463233657 -195.222972472 669.463233657 -221.222972472 c 1
 475.544408993 -854.310900052 l 1
 465.544408993 -876.310900052 352 -876 254 -876 c 2
 24 -876 l 1
 -8 -844 l 1
EndSplineSet
EndChar

StartChar: uni2010
Encoding: 387 8208 284
Width: 858
VWidth: 0
Flags: HW
LayerCount: 2
Fore
SplineSet
36 360 m 1
 36 642 l 2
 36 694 44 744 68 744 c 0
 260 744 446 744 640 746 c 0
 664 746 688 746 712 744 c 1
 780 744 l 1
 804 740 808 676 808 610 c 2
 808 396 l 1
 806 378 802 360 780 360 c 0
 540 360 306 340 72 340 c 1
 72 360 l 1
 36 360 l 1
EndSplineSet
EndChar

StartChar: uni2011
Encoding: 388 8209 285
Width: 858
VWidth: 0
Flags: HW
LayerCount: 2
Fore
SplineSet
36 360 m 1
 36 642 l 2
 36 694 44 744 68 744 c 0
 260 744 446 744 640 746 c 0
 664 746 688 746 712 744 c 1
 780 744 l 1
 804 740 808 676 808 610 c 2
 808 396 l 1
 806 378 802 360 780 360 c 0
 540 360 306 340 72 340 c 1
 72 360 l 1
 36 360 l 1
EndSplineSet
EndChar

StartChar: uni2074
Encoding: 391 8308 288
Width: 1306
VWidth: 0
Flags: HW
LayerCount: 2
Fore
SplineSet
140 424 m 1
 227.828677095 656.7459943 379.542669514 834.300488212 500 1040 c 1
 656 1040 l 1
 728 1042 794 1052 866 1052 c 2
 1028 1052 l 1
 1028 1004 l 2
 1028 878 1024 756 1024 628 c 2
 1024 544 l 2
 1024 528 1022 512 1022 496 c 0
 1022 470 1026 444 1052 444 c 2
 1112 444 l 2
 1142 444 1148 438 1148 404 c 0
 1148 402 1146 400 1144 400 c 1
 1144 388 1150 308 1150 234 c 0
 1150 170 1148 148 1126 148 c 2
 1028 148 l 1
 1028 84 l 1
 1030 66 1030 46 1030 24 c 0
 1030 -2 1030 -20 1004 -20 c 2
 640 -20 l 1
 632 -10 622 -4 616 6 c 1
 616 152 l 1
 208 152 l 2
 174 152 156 148 140 174 c 1
 140 424 l 1
430 440 m 1
 435.320032561 428.029926737 444.212237063 415.363288811 448 404 c 1
 448 404 l 1
 506 404 658 394 666 432 c 1
 666 450 664 468 664 484 c 2
 664 494 l 1
 668 512 668 556 668 596 c 0
 668 686 662 792 640 798 c 1
 632 796 626 792 624 786 c 1
 560.370812636 669.629187364 495.719068822 554.280931178 430 440 c 1
EndSplineSet
EndChar

StartChar: uni2206
Encoding: 392 8710 289
Width: 1700
VWidth: 0
Flags: HW
LayerCount: 2
Fore
SplineSet
78 24 m 1
 78 206 l 1
 580 1492 l 1
 1117.90782452 1491.16840975 l 1
 1492 550 l 2
 1544 418 1614 266 1614 122 c 2
 1614 24 l 1
 78 24 l 1
514 348 m 1
 542 304 l 1
 596 302 652 300 708 300 c 0
 778 300 846 302 912 304 c 1
 1116 304 l 1
 1138 310 1142 328 1142 346 c 1
 984 740 l 2
 930 876 884 1018 852 1168 c 1
 846 1174 837.922569953 1176.78498311 827.922569953 1178.78498311 c 1
 514 348 l 1
EndSplineSet
EndChar

StartChar: uni272E
Encoding: 393 10030 290
Width: 1702
VWidth: 0
Flags: HW
LayerCount: 2
Fore
SplineSet
180 844 m 1
 676 844 l 1
 854 1300 l 1
 1028 868 l 1
 1528 868 l 1
 1144 508 l 1
 1260 44 l 1
 854 304 l 1
 444 44 l 1
 562 508 l 1
 180 844 l 1
EndSplineSet
EndChar

StartChar: uni272F
Encoding: 394 10031 291
Width: 1386
VWidth: 0
Flags: HW
LayerCount: 2
Fore
SplineSet
180 1256 m 1
 548 1256 l 1
 682 1596 l 1
 812 1274 l 1
 1184 1274 l 1
 896 1004 l 1
 984 660 l 1
 682 854 l 1
 376 660 l 1
 464 1004 l 1
 180 1256 l 1
EndSplineSet
EndChar

StartChar: uni278A
Encoding: 395 10122 292
Width: 1714
VWidth: 0
Flags: HW
LayerCount: 2
Fore
SplineSet
58 496 m 1
 58 504 l 1
 88 886 346 1288 852 1288 c 0
 1268 1288 1656 956 1656 504 c 0
 1656 56 1284 -276 868 -276 c 0
 368 -276 90 122 58 496 c 1
648 34 m 0
 648 -9.66499438808 668.01248502 -22 712 -22 c 2
 750 -22 l 2
 804 -22 858 -20 912 -20 c 0
 928 -20 954 -22 980 -22 c 0
 1024 -22 1080 -20 1080 4 c 0
 1080 258 1072 514 1072 764 c 2
 1072 1052 l 1
 1062 1050 1038 1050 1030 1050 c 2
 1002 1050 l 2
 976 1050 952 1048 926 1048 c 0
 866 1048 808 1050 750 1052 c 1
 718 998 630 952 576 926 c 2
 444 864 l 1
 434 864 434 764 434 672 c 2
 434 572 l 1
 436 558 444 552 458 552 c 1
 528 576 594 608 656 648 c 1
 650 434 648 250 648 34 c 0
EndSplineSet
EndChar

StartChar: uni278B
Encoding: 396 10123 293
Width: 1718
VWidth: 0
Flags: HW
LayerCount: 2
Fore
SplineSet
100 440 m 0
 100 458 100 478 102 496 c 1
 102 552 l 1
 134 934 374 1288 856 1288 c 0
 1272 1288 1660 956 1660 504 c 0
 1660 56 1288 -276 872 -276 c 0
 418 -276 100 84 100 440 c 0
968 284 m 1
 1123.74758525 439.747585254 1336 503.516385349 1336 754 c 0
 1336 986 1108 1080 872 1080 c 0
 624 1080 414 978 400 692 c 1
 784 692 l 1
 784 752 l 1
 790 778 814 806 856 806 c 0
 894 806 920 782 920 744 c 0
 920 698 892 652 848 608 c 2
 812 572 l 1
 720.600429081 492.025375445 617.279190291 425.700714541 516 356 c 1
 448 312 l 2
 414 290 402 272 402 264 c 0
 402 200 398 146 398 76 c 0
 398 25.7945660203 408.537136268 3.94058197191 426 -24 c 1
 632 -16 832 -10 1038 -10 c 0
 1102 -10 1178 -16 1264 -16 c 2
 1316 -16 l 2
 1342 -16 1344 2 1344 16 c 2
 1344 30 l 2
 1344 78 1348 122 1348 162 c 0
 1348 234 1334 288 1264 288 c 0
 1162 288 1064 284 968 284 c 1
EndSplineSet
EndChar

StartChar: uni278C
Encoding: 397 10124 294
Width: 1714
VWidth: 0
Flags: HW
LayerCount: 2
Fore
SplineSet
860 1288 m 0
 1372 1288 1610 888 1650 504 c 1
 1650 496 l 1
 1618 122 1342 -276 844 -276 c 0
 428 -276 58 56 58 504 c 0
 58 956 444 1288 860 1288 c 0
836 228 m 1
 752.398034684 228 768.670165949 340 724 340 c 2
 388 340 l 2
 372 340 368 328 368 314 c 0
 382 12 606 -40 840 -40 c 2
 894 -40 l 2
 1060 -40 1328 32 1328 308 c 0
 1328 426 1268 514 1128 552 c 1
 1216 584 1304 628 1304 778 c 0
 1304 986 1070 1082 900 1082 c 0
 706 1082 490 1058 416 874 c 1
 416 844 l 1
 400 806 390 766 384 726 c 1
 384 700 408 700 440 700 c 2
 476 700 l 2
 566 700 650 694 740 696 c 1
 790 714 744 812 836 812 c 0
 878 812 904 782 904 744 c 0
 904 656 848 632 784 632 c 2
 728 632 l 2
 696 632 692 590 692 520 c 2
 692 440 l 1
 706 422 712 408 738 408 c 1
 738 408 l 1
 742 408 762 408 768 410 c 1
 834 410 914 400 914 306 c 0
 914 264 886 228 836 228 c 1
 836 228 l 1
EndSplineSet
EndChar

StartChar: uni278D
Encoding: 398 10125 295
Width: 1714
VWidth: 0
Flags: HW
LayerCount: 2
Fore
SplineSet
64 504 m 1
 94 886 346 1288 852 1288 c 0
 1268 1288 1656 956 1656 504 c 0
 1656 56 1284 -276 868 -276 c 0
 364 -276 96 124 64 504 c 1
334 174 m 1
 348 150 372 148 404 148 c 2
 676 148 l 1
 702 158 748 172 780 172 c 0
 798 172 812 166 812 156 c 0
 812 118 810 68 810 6 c 1
 818 -4 826 -10 836 -20 c 1
 1198 -20 l 1
 1226 -16 1224 0 1224 24 c 2
 1224 148 l 1
 1320 148 l 2
 1342 148 1344 170 1344 234 c 0
 1344 306 1340 390 1340 400 c 1
 1342 400 1344 402 1344 404 c 0
 1344 438 1334 444 1308 444 c 2
 1248 444 l 2
 1222 444 1216 470 1216 496 c 0
 1216 512 1220 528 1220 544 c 2
 1220 548 l 2
 1220 562 1220 574 1218 588 c 1
 1218 628 l 2
 1218 754 1224 876 1224 1004 c 2
 1224 1052 l 1
 1060 1052 l 2
 988 1052 922 1050 850 1048 c 1
 788 1048 l 1
 762 1046 732 1044 702 1040 c 1
 577.930038668 840.590415377 426.924840169 654.350826447 340 424 c 1
 336 368 334 312 334 248 c 2
 334 174 l 1
624 440 m 1
 828.547390787 801.088761288 l 1
 850.547390787 801.088761288 862 684 862 596 c 0
 862 554 860 512 860 496 c 2
 860 432 l 1
 852 394 712 404 654 404 c 1
 654 404 l 1
 624 440 l 1
EndSplineSet
EndChar

StartChar: uni278E
Encoding: 399 10126 296
Width: 1714
VWidth: 0
Flags: HW
LayerCount: 2
Fore
SplineSet
864 1288 m 0
 1372 1288 1620 888 1656 504 c 1
 1624 124 1352 -276 848 -276 c 0
 432 -276 64 56 64 504 c 0
 64 956 448 1288 864 1288 c 0
400 280 m 1
 432 0 666 -40 856 -40 c 0
 1080 -40 1328 58 1328 368 c 0
 1328 562 1196 704 984 704 c 0
 914 704 842 686 788 652 c 1
 788 780 l 1
 1226 780 l 2
 1256 780 1268 786 1268 904 c 2
 1268 1056 l 1
 436 1056 l 1
 436 460 l 2
 436 434 440 408 460 388 c 1
 768 388 l 2
 830 388 770 468 850 468 c 0
 910 468 918 404 918 344 c 0
 918 300 912 228 848 228 c 0
 794 228 818 300 784 300 c 0
 720 300 664 304 600 304 c 2
 472 304 l 2
 436 304 400 306 400 280 c 1
EndSplineSet
EndChar

StartChar: uni278F
Encoding: 400 10127 297
Width: 1716
VWidth: 0
Flags: HW
LayerCount: 2
Fore
SplineSet
80 516 m 0
 80 894 380 1288 872 1288 c 0
 1290 1288 1656 958 1656 508 c 0
 1656 62 1272 -276 856 -276 c 0
 360 -276 80 128 80 516 c 0
356 528 m 0
 356 203.08598611 513.028925642 -36 876 -36 c 1
 1074 -30 1312 70 1312 358 c 0
 1312 552 1158 692 954 692 c 0
 878 692 798 672 752 618 c 1
 752 630 l 2
 752 704 770 812 856 812 c 0
 878 812 892 808 898 800 c 1
 898 764 l 2
 898 756 912 752 928 752 c 2
 950 752 l 2
 1060 752 1268 752 1268 782 c 1
 1258 936 1190 1088 864 1088 c 1
 546 1082 356 858 356 528 c 0
740 326 m 0
 740 404 760 484 858 484 c 0
 942 484 972 430 972 344 c 0
 972 268 952 192 856 186 c 1
 856 184 l 1
 766 194 740 260 740 326 c 0
EndSplineSet
EndChar

StartChar: uni2790
Encoding: 401 10128 298
Width: 1718
VWidth: 0
Flags: HW
LayerCount: 2
Fore
SplineSet
892 1288 m 0
 1384 1288 1656 890 1656 496 c 0
 1656 124 1362 -276 876 -276 c 0
 460 -276 90 56 90 504 c 0
 90 956 476 1288 892 1288 c 0
416 1012 m 2
 416 780 l 1
 438 748 444 746 460 746 c 2
 859.35867465 746.321772234 l 1
 488.738086584 7.63660015687 l 1
 488.738086584 -14.3633998431 590 -20 670 -20 c 2
 930 -20 l 1
 1015.868336 156.798330666 1107.50933872 343.82399461 1200 514 c 1
 1282 660 l 2
 1308 708 1320 750 1328 812 c 1
 1328 944 l 2
 1328 994 1324 1056 1300 1056 c 2
 872 1056 l 1
 730 1058 588 1068 444 1068 c 0
 418 1068 416 1038 416 1012 c 2
EndSplineSet
EndChar

StartChar: uni2791
Encoding: 402 10129 299
Width: 1714
VWidth: 0
Flags: HW
LayerCount: 2
Fore
SplineSet
58 496 m 1
 58 504 l 1
 88 886 346 1288 852 1288 c 0
 1268 1288 1656 956 1656 504 c 0
 1656 56 1284 -276 868 -276 c 0
 368 -276 90 122 58 496 c 1
376 276 m 1
 392 128 466 -40 838 -40 c 0
 1080 -40 1342 20 1342 278 c 0
 1342 390 1286 478 1168 536 c 1
 1264 570 1312 646 1312 748 c 0
 1312 988 1090 1084 852 1084 c 0
 656 1084 408 1000 408 748 c 0
 408 646 452 570 540 528 c 1
 426 470 384 388 376 276 c 1
746 308 m 1
 746 378 790 436 858 436 c 0
 932 436 968 384 968 304 c 0
 968 234 930 192 860 192 c 0
 790 192 754 238 746 308 c 1
764 736 m 0
 764 780 792 850 856 850 c 0
 932 850 952 798 952 736 c 0
 952 680 932 620 860 620 c 0
 784 620 764 678 764 736 c 0
EndSplineSet
EndChar

StartChar: uni2792
Encoding: 403 10130 300
Width: 1714
VWidth: 0
Flags: HW
LayerCount: 2
Fore
SplineSet
64 448 m 1
 64 504 l 1
 94 886 346 1288 852 1288 c 0
 1268 1288 1656 956 1656 504 c 0
 1656 56 1284 -276 868 -276 c 0
 366 -276 102 72 64 448 c 1
1356 548 m 0
 1356 860.591392297 1178.81689467 1078 868 1078 c 0
 648 1078 400 968 400 688 c 0
 400 458 598 366 784 366 c 0
 842 366 912 382 960 412 c 1
 954 340 950 228 860 228 c 0
 828 228 816 244 814 258 c 1
 814 300 l 1
 468 300 l 1
 444 272 l 1
 444 68 606 -48 798 -48 c 0
 938 -48 1142 -20 1248 134 c 0
 1334 258 1356 400 1356 548 c 0
734 692 m 1
 734 766 764 848 856 848 c 0
 946 848 968 772 968 698 c 0
 968 634 944 558 856 558 c 0
 776 558 740 606 734 692 c 1
EndSplineSet
EndChar

StartChar: uni2793
Encoding: 404 10131 301
Width: 1714
VWidth: 0
Flags: HW
LayerCount: 2
Fore
SplineSet
58 496 m 1
 58 504 l 1
 88 886 346 1288 852 1288 c 0
 1268 1288 1656 956 1656 504 c 0
 1656 56 1284 -276 868 -276 c 0
 368 -276 90 122 58 496 c 1
364 140 m 0
 364 114.84702989 382.833724203 96 416 96 c 2
 444 96 l 2
 486 96 528 98 570 98 c 0
 586 98 602 96 624 96 c 0
 662 96 700 100 702 116 c 1
 702 316 696 520 696 708 c 2
 696 932 l 1
 612 932 l 2
 554 932 502 932 444 934 c 1
 397.266269522 857.02679686 285.718077816 831.43084669 240 804 c 1
 200 804 l 1
 200 544 l 1
 256 560 324 586 372 618 c 1
 372 380 l 1
 370 302 364 222 364 140 c 0
764 514 m 2
 764 456 l 2
 764 266 882 84 1140 84 c 0
 1364 84 1528 230 1528 514 c 0
 1528 718 1460 960 1156 960 c 1
 1156 960 l 1
 934 944 764 824 764 514 c 2
1056 528 m 0
 1056 632 1066 762 1154 762 c 0
 1230 762 1236 662 1236 596 c 2
 1236 540 l 2
 1236 494 1246 276 1144 276 c 0
 1048 276 1056 460 1056 528 c 0
EndSplineSet
EndChar

StartChar: uniE000
Encoding: 405 57344 302
Width: 1390
VWidth: 0
Flags: HW
LayerCount: 2
Fore
SplineSet
0 1390 m 1
 1390 1390 l 1
 1390 0 l 1
 0 0 l 1
 0 1390 l 1
EndSplineSet
EndChar

StartChar: v
Encoding: 118 118 305
Width: 1392
VWidth: 0
Flags: HW
LayerCount: 2
Fore
SplineSet
764 880 m 1
 784.014858966 984.983436015 829.911970806 1085.03167887 840 1196 c 1
 840 1266 l 1
 848 1318 850 1374 920 1376 c 1
 1376 1376 l 1
 1384 1370 1410 1354 1412 1348 c 1
 1076.57053175 142.72801239 l 1
 1064.57053175 94.7280123903 1042 44 1012 44 c 2
 328 44 l 1
 290 198 250.305562423 365.631149567 212.305562423 519.631149567 c 1
 -31.4798516687 1345.79283066 l 1
 -31.4798516687 1367.79283066 -8 1374 2 1376 c 1
 2 1380 l 1
 120 1380 248 1384 360 1384 c 2
 524 1384 l 2
 540 1384 533.347557552 1374.16732173 549.347557552 1358.16732173 c 1
 692.177877597 527.966086468 l 1
 779.925507258 770.231848947 l 1
 764 880 l 1
EndSplineSet
EndChar

StartChar: w
Encoding: 119 119 306
Width: 1906
VWidth: 0
Flags: HW
LayerCount: 2
Fore
SplineSet
559.440705569 705.472303885 m 1
 609.273457835 914.769863401 631.860498543 1156.13075995 664 1376 c 1
 1240 1376 l 1
 1257.44198788 1240.77532122 1273.69346935 1090.09743426 1291.97010416 955.707402401 c 1
 1334.73770882 673.270524966 l 1
 1415.64505119 1360.98293515 l 1
 1425.64505119 1388.98293515 1504 1384 1556 1384 c 0
 1620 1384 1676 1380 1740 1380 c 0
 1750 1380 1770 1382 1788 1382 c 0
 1810 1382 1826 1382 1832 1376 c 1
 1842 1376 1856 1378 1868 1378 c 0
 1894 1378 1918.0212405 1370.45044932 1926.0212405 1328.45044932 c 1
 1635.41456671 52 l 1
 1050 52 l 1
 938.913511314 693.545929046 l 1
 870 164 l 1
 860 110 856 36 812 36 c 0
 738 36 666 42 592 42 c 0
 470 42 374 36 272 36 c 2
 240.273170732 36.0585365854 l 1
 -26.0097560976 1278.71219512 l 1
 -20 1350 l 1
 -20 1368 -24 1378 0 1388 c 1
 14 1386 28 1384 42 1384 c 2
 108 1384 l 2
 118 1384 128 1384 128 1388 c 1
 162 1388 l 2
 172 1388 180 1390 196 1390 c 2
 224 1390 l 2
 246 1390 266 1392 288 1392 c 2
 354 1392 l 1
 354 1388 l 1
 420 1388 l 2
 458 1388 484 1382 486 1340 c 1
 559.440705569 705.472303885 l 1
EndSplineSet
EndChar

StartChar: x
Encoding: 120 120 307
Width: 1416
VWidth: 0
Flags: HW
LayerCount: 2
Fore
SplineSet
-44.0423791042 79.7834889332 m 1
 372.240847582 723.844330221 l 1
 2.77618084327 1307.63095951 l 1
 16 1342 l 1
 14 1346 -2 1350 -2 1356 c 0
 -2 1364 4 1372 18 1380 c 1
 72 1380 l 2
 130 1380 190 1380 252 1382 c 1
 312 1382 l 2
 352 1382 390 1380 428 1376 c 1
 468 1376 l 2
 486 1376 506 1374 524 1374 c 0
 534 1374 542 1376 552 1376 c 1
 578.411447432 1368.79687797 582.339531607 1335.32093679 592 1316 c 1
 608 1278 628 1238 644 1196 c 1
 644 1198 l 1
 656 1176 666 1152 678 1128 c 2
 712 1058 l 1
 718 1048 714 1050 720 1040 c 1
 748.109675944 1107.22365739 779.743085484 1170.92358118 810 1236 c 1
 844 1304 l 2
 864 1344 884 1372 892 1372 c 2
 1376 1372 l 1
 1420 1356 1428 1378 1428 1326 c 1
 1384 1260 l 1
 1261.27821988 1082.73520649 1151.85754345 897.306783166 1034 718 c 1
 1442.35881826 80.3871083259 l 1
 1442.35881826 48.3871083259 1416 42 1382 42 c 2
 852 42 l 1
 797.587672056 153.587672056 743.792748215 277.792748215 688 388 c 1
 643.788917424 296.639386663 560.580419757 83.1482518544 492 42 c 1
 420 42 354 44 284 44 c 2
 248 44 l 2
 200 44 142 48 88 48 c 2
 -8 48 l 1
 -26 54 -44.0423791042 61.7834889332 -44.0423791042 79.7834889332 c 1
EndSplineSet
EndChar

StartChar: y
Encoding: 121 121 308
Width: 1366
VWidth: 0
Flags: HW
LayerCount: 2
Fore
SplineSet
545.269609944 1380 m 1
 702 886 l 1
 751.875024782 1018.79164188 799.311418804 1154.02191453 844 1292 c 1
 848.612338005 1311.46617142 864.132886971 1332.86376531 868 1358 c 1
 874 1376 922 1382 976 1382 c 0
 990 1382 1000 1380 1016 1380 c 0
 1133.23275131 1381.43391535 1250.57948949 1382.75384384 1368 1384 c 1
 1384 1382 1394.44367418 1368.64818024 1402.44367418 1334.64818024 c 1
 947.871750433 512.922010399 l 1
 964 446 l 1
 964 334 968 200 968 104 c 2
 968 74 l 1
 954 24 864 38 802 38 c 2
 420 38 l 1
 388 80 l 1
 388 498 l 1
 157.073324573 991.059658344 l 1
 50.2155530199 1141.02824531 l 1
 32.2155530199 1177.02824531 -32 1300 -32 1352 c 0
 -32 1374 -10 1380 16 1380 c 2
 545.269609944 1380 l 1
EndSplineSet
EndChar

StartChar: yen
Encoding: 410 165 311
Width: 1456
VWidth: 0
Flags: HW
PickledData: "(dp1
S'com.typemytype.robofont.layerData'
p2
(dp3
s."
LayerCount: 2
Fore
SplineSet
-49.2580772089 1474.65728151 m 1
 -49.2580772089 1496.65728151 74 1512 160 1512 c 2
 226 1512 l 2
 240 1512 306 1514 374 1514 c 0
 462 1514 556 1506 568 1484 c 1
 596 1396 624 1312 652 1224 c 2
 680 1136 l 2
 700 1072 724.994383197 1003.7508258 746.994383197 939.750825795 c 1
 904 1428 l 1
 928 1498 970 1508 1116 1508 c 2
 1418 1508 l 2
 1448 1508 1492 1508 1492 1476 c 1
 1450 1398 1403.95630469 1325.5290139 1361.95630469 1247.5290139 c 1
 1198.00225455 831.085726555 l 1
 1240 824 l 1
 1258 824 1280 828 1296 828 c 1
 1322 822 1328 792 1328 760 c 0
 1328 694 1340 574 1296 568 c 1
 1062 568 l 1
 1042 500 1036 456 1028 408 c 1
 1098 414 1156 414 1222 414 c 0
 1318 414 1334 400 1334 344 c 0
 1334 328 1332 312 1332 296 c 2
 1332 218 l 2
 1332 152 1314 144 1268 144 c 2
 1020 144 l 1
 1020 0 l 1
 1010 -52 866 -34 800 -36 c 1
 446 -36 l 1
 416 12 l 1
 416 44 l 1
 418 50 418 56 418 64 c 0
 418 90 416 114 416 140 c 1
 392 140 l 1
 350 138 282 138 224 132 c 1
 150 132 122 142 116 176 c 1
 116 218 118 250 118 292 c 0
 118 308 116 326 116 348 c 0
 116 380 124 412 168 412 c 2
 264 412 l 1
 296 414 328 410 362 410 c 2
 408 410 l 1
 408 414 l 2
 408 476 428 568 392 568 c 0
 344 568 294 560 246 564 c 1
 150 564 l 1
 124 570 120 612 120 668 c 2
 120 772 l 2
 120 828 156 824 204 824 c 1
 204 824 l 1
 220 824 242 824 264 822 c 1
 264 896 l 1
 -49.2580772089 1474.65728151 l 1
EndSplineSet
EndChar

StartChar: z
Encoding: 122 122 312
Width: 1242
VWidth: 0
Flags: HW
LayerCount: 2
Fore
SplineSet
8 84 m 1
 8 146 l 2
 8 164 10 186 10 208 c 2
 10 260 l 2
 10 312 10 390 20 400 c 1
 20 400 l 1
 160.682674024 561.983992642 293.354216995 727.979116339 428 896 c 1
 512.963111669 995.469008783 l 1
 416.963111669 997.469008783 318 994 216 994 c 2
 190 994 l 2
 168 994 146 992 124 992 c 2
 60 992 l 1
 44 1000 36 1008 36 1026 c 2
 36 1372 l 1
 1144 1372 l 2
 1180 1372 1194 1374 1194 1314 c 0
 1194 1292 1190 1274 1190 1264 c 0
 1190 1262 1192 1258 1194 1252 c 1
 1194 1118 1188 1046 1188 1040 c 1
 1182 1024 1180 1022 1180 1016 c 2
 1180 1000 l 1
 1046.40895739 846.257709281 906.425037236 692.908296097 772 540 c 1
 728 484 l 1
 680 432 l 1
 1180 432 l 2
 1204 432 1212 398 1212 352 c 2
 1212 92 l 2
 1212 50 1194 40 1156 40 c 2
 38 40 l 1
 32 46 10 74 8 84 c 1
EndSplineSet
EndChar

StartChar: zero
Encoding: 48 48 316
Width: 1462
VWidth: 0
Flags: HW
LayerCount: 2
Fore
SplineSet
708 -56 m 0
 170.339030695 -56 50.2934566798 296.744878143 20 736 c 1
 20 1302 314 1518 720 1550 c 1
 720 1550 l 1
 1302 1550 1418 1080 1418 720 c 0
 1418 202 1108 -56 708 -56 c 0
556 696 m 0
 556 548 564 300 712 300 c 0
 886 300 880 562 880 700 c 1
 884 734 884 770 884 806 c 0
 884 892 908 1188 732 1188 c 0
 550 1188 556 896 556 696 c 0
EndSplineSet
EndChar

